<svg xmlns="http://www.w3.org/2000/svg" xmlns:xlink="http://www.w3.org/1999/xlink" width="466.143" height="284.385" viewBox="0 0 466.143 284.385">
  <defs>
    <linearGradient id="linear-gradient" x1="0.5" x2="0.5" y2="1" gradientUnits="objectBoundingBox">
      <stop offset="0" stop-color="#d9c179"/>
      <stop offset="1" stop-color="#6d613d"/>
    </linearGradient>
  </defs>
  <g id="Group_51" data-name="Group 51" transform="translate(-459 -795.615)">
    <g id="logoMainSvg" transform="translate(450.582 1050.899)">
      <path id="Path_403" data-name="Path 403" d="M156.845,25.728H100.623C49.7,25.728,8.418-14.618,8.418-64.387v-55.658c0-21.4,17.746-38.741,39.638-38.741h69.149c21.892,0,39.64,17.345,39.64,38.741Z" fill="url(#linear-gradient)"/>
      <path id="Path_404" data-name="Path 404" d="M101.7-152.26c-10.453,0-19.882,3.509-26.565,9.131-6.685-5.622-16.111-9.131-26.565-9.131-20.272,0-36.705,13.171-36.705,29.42v10.331c0,21.175,15.207,40.011,37.846,46.873l25.424,7.708,25.424-7.708c22.639-6.862,37.846-25.7,37.846-46.873V-122.84C138.406-139.089,121.973-152.26,101.7-152.26Z" transform="translate(6.637 10.673)" fill="#fff" fill-rule="evenodd"/>
      <path id="Path_405" data-name="Path 405" d="M86.614-119.855a14.369,14.369,0,0,1-14.531,14.2,14.373,14.373,0,0,1-14.536-14.2,14.373,14.373,0,0,1,14.536-14.2A14.369,14.369,0,0,1,86.614-119.855Z" transform="translate(33.537 14.888)" fill="#402401" fill-rule="evenodd"/>
      <path id="Path_407" data-name="Path 407" d="M58.894-119.855a14.37,14.37,0,0,1-14.533,14.2,14.369,14.369,0,0,1-14.531-14.2,14.369,14.369,0,0,1,14.531-14.2A14.37,14.37,0,0,1,58.894-119.855Z" transform="translate(13.449 14.888)" fill="#402401" fill-rule="evenodd"/>
      <path id="Path_409" data-name="Path 409" d="M55.709-120.783l-10.145,9.915L55.709-93.932l10.145-16.936Z" transform="translate(26.922 23.99)" fill="#402401"/>
      <path id="Path_410" data-name="Path 410" d="M107.977-17.84c-17.689,0-32.029-14.014-32.029-31.3v-41.18h32.029Z" transform="translate(48.943 46.941)" fill="#402401" fill-rule="evenodd"/>
    </g>
    <g id="Group_50" data-name="Group 50">
      <g id="Path_705" data-name="Path 705" transform="translate(618 795.615)" fill="none">
        <path d="M16.334,0H289.019a18.209,18.209,0,0,1,18.124,18.292V96.45a18.209,18.209,0,0,1-18.124,18.292H16.334c-5.776,0-22.7,10.9-26.164,6.465-2.286-2.923,8.04-20.484,8.04-24.757V18.292A18.209,18.209,0,0,1,16.334,0Z" stroke="none"/>
        <path d="M 16.33407592773438 1.000007629394531 C 11.76177978515625 1.000007629394531 7.462677001953125 2.79754638671875 4.228729248046875 6.061508178710938 C 0.9923095703125 9.327926635742188 -0.790069580078125 13.6715087890625 -0.790069580078125 18.29217529296875 L -0.790069580078125 96.44959259033203 C -0.790069580078125 98.45704650878906 -2.5775146484375 102.5162582397461 -4.647186279296875 107.216423034668 C -5.985321044921875 110.255256652832 -7.3690185546875 113.3975524902344 -8.252410888671875 115.9824676513672 C -9.5511474609375 119.7826309204102 -9.098175048828125 120.5194625854492 -9.04180908203125 120.5915451049805 C -8.68560791015625 121.0476303100586 -8.029571533203125 121.2693405151367 -7.0361328125 121.2693405151367 C -4.020263671875 121.2693405151367 1.054351806640625 119.1346282958984 5.5316162109375 117.2512588500977 C 10.00823974609375 115.3680877685547 13.8743896484375 113.7417602539063 16.33407592773438 113.7417602539063 L 289.0189208984375 113.7417602539063 C 293.5911865234375 113.7417602539063 297.8902587890625 111.9442138671875 301.1242370605469 108.6802520751953 C 304.3606567382813 105.4138412475586 306.1430053710938 101.0702590942383 306.1430053710938 96.44959259033203 L 306.1430053710938 18.29217529296875 C 306.1430053710938 13.6715087890625 304.3606567382813 9.327926635742188 301.1242370605469 6.061508178710938 C 297.8902587890625 2.79754638671875 293.5911865234375 1.000007629394531 289.0189208984375 1.000007629394531 L 16.33407592773438 1.000007629394531 M 16.33407592773438 7.62939453125e-06 L 289.0189208984375 7.62939453125e-06 C 299.0285949707031 7.62939453125e-06 307.1430053710938 8.189674377441406 307.1430053710938 18.29217529296875 L 307.1430053710938 96.44959259033203 C 307.1430053710938 106.5520935058594 299.0285949707031 114.7417602539063 289.0189208984375 114.7417602539063 L 16.33407592773438 114.7417602539063 C 11.5352783203125 114.7417602539063 -0.959197998046875 122.2693481445313 -7.036163330078125 122.2693481445313 C -8.273162841796875 122.2693481445313 -9.243743896484375 121.9576644897461 -9.829925537109375 121.2070465087891 C -12.11602783203125 118.2840881347656 -1.790069580078125 100.7229614257813 -1.790069580078125 96.44959259033203 L -1.790069580078125 18.29217529296875 C -1.790069580078125 8.189674377441406 6.32440185546875 7.62939453125e-06 16.33407592773438 7.62939453125e-06 Z" stroke="none" fill="#5c552f"/>
      </g>
      <text id="Select_the_appropriate_option_to_view_download_your_notes." data-name="Select the appropriate option to view/download your notes." transform="translate(627 806)" fill="#585858" font-size="24" font-family="SegoeUI-Semibold, Segoe UI" font-weight="600"><tspan x="0" y="26">Select the appropriate </tspan><tspan x="0" y="58">option to view/download </tspan><tspan x="0" y="90">your notes.</tspan></text>
    </g>
  </g>
</svg>
