<svg xmlns="http://www.w3.org/2000/svg" xmlns:xlink="http://www.w3.org/1999/xlink" width="417" height="140" viewBox="0 0 417 140">
  <defs>
    <linearGradient id="linear-gradient" x1="0.5" x2="0.5" y2="1" gradientUnits="objectBoundingBox">
      <stop offset="0" stop-color="#d9c179"/>
      <stop offset="1" stop-color="#6d613d"/>
    </linearGradient>
  </defs>
  <g id="logoMain" transform="translate(-8.418 178.572)">
    <g id="logoMainSvg">
      <path id="Path_403" data-name="Path 403" d="M80.155-69.488H52.982C28.37-69.488,8.418-89.014,8.418-113.1v-26.937a18.957,18.957,0,0,1,19.158-18.749H61a18.957,18.957,0,0,1,19.158,18.749Z" fill="url(#linear-gradient)"/>
      <path id="Path_404" data-name="Path 404" d="M55.284-152.26a19.966,19.966,0,0,0-12.839,4.419,19.968,19.968,0,0,0-12.839-4.419c-9.8,0-17.74,6.374-17.74,14.238v5c0,10.248,7.35,19.364,18.291,22.685l12.288,3.73,12.288-3.73c10.942-3.321,18.291-12.437,18.291-22.685v-5C73.024-145.886,65.082-152.26,55.284-152.26Z" transform="translate(1.426 1.798)" fill="#fff" fill-rule="evenodd"/>
      <path id="Path_405" data-name="Path 405" d="M71.6-127.184a6.949,6.949,0,0,1-7.023,6.873,6.951,6.951,0,0,1-7.026-6.873,6.951,6.951,0,0,1,7.026-6.874A6.949,6.949,0,0,1,71.6-127.184Z" transform="translate(-9.175 -5.555)" fill="#402401" fill-rule="evenodd"/>
      <path id="Path_407" data-name="Path 407" d="M43.877-127.184a6.949,6.949,0,0,1-7.024,6.873,6.949,6.949,0,0,1-7.023-6.873,6.949,6.949,0,0,1,7.023-6.874A6.95,6.95,0,0,1,43.877-127.184Z" transform="translate(-4.563 -5.555)" fill="#402401" fill-rule="evenodd"/>
      <path id="Path_409" data-name="Path 409" d="M50.467-120.783l-4.9,4.8,4.9,8.2,4.9-8.2Z" transform="translate(-6.181 -8.001)" fill="#402401"/>
      <path id="Path_410" data-name="Path 410" d="M91.428-55.244a15.317,15.317,0,0,1-15.48-15.149v-19.93h15.48Z" transform="translate(-11.237 -12.612)" fill="#402401" fill-rule="evenodd"/>
    </g>
    <text id="Notebook" transform="translate(109.418 -88.572)" fill="#402401" font-size="55" font-family="Bungee-Inline, Bungee Inline"><tspan x="0" y="0">Notebook</tspan></text>
  </g>
</svg>
