<svg xmlns="http://www.w3.org/2000/svg" xmlns:xlink="http://www.w3.org/1999/xlink" width="469.359" height="330.457" viewBox="0 0 469.359 330.457">
  <defs>
    <linearGradient id="linear-gradient" x1="0.093" y1="0.585" x2="0.79" y2="0.334" gradientUnits="objectBoundingBox">
      <stop offset="0" stop-color="#d0f2dc"/>
      <stop offset="1" stop-color="#d9c179"/>
    </linearGradient>
    <filter id="Path_394" x="0" y="102.827" width="469.359" height="227.63" filterUnits="userSpaceOnUse">
      <feOffset dx="5" dy="5" input="SourceAlpha"/>
      <feGaussianBlur stdDeviation="3" result="blur"/>
      <feFlood flood-opacity="0.161"/>
      <feComposite operator="in" in2="blur"/>
      <feComposite in="SourceGraphic"/>
    </filter>
  </defs>
  <g id="svgHomepage4" transform="translate(41.889 181.245)">
    <g transform="matrix(1, 0, 0, 1, -41.89, -181.24)" filter="url(#Path_394)">
      <path id="Path_394-2" data-name="Path 394" d="M223.288,129.416C103.017,124.186,4.437,93.031,3.1,59.831S98.187,3.956,218.458,9.187,437.309,45.572,438.643,78.772,343.559,134.647,223.288,129.416Z" transform="matrix(0.98, -0.21, 0.21, 0.98, -0.78, 189.78)" fill="url(#linear-gradient)"/>
    </g>
    <path id="Path_414" data-name="Path 414" d="M129.074-93.38c-4.811-.425-7.289-.9-8.964-1.01s-5.614,4.1-5.832,4.946,3.719.638,4.811.426a8.322,8.322,0,0,0,2.771-1.809s3.425,1.649,5.686,1.49S129.074-93.38,129.074-93.38Z" transform="translate(46.512 24.888)" fill="#ff9466"/>
    <path id="Path_415" data-name="Path 415" d="M131.593-93.38c-4.809-.425-7.289-.9-8.966-1.01s-5.61,4.1-5.829,4.946,3.716.638,4.809.426a8.322,8.322,0,0,0,2.771-1.809s3.425,1.649,5.684,1.49S131.593-93.38,131.593-93.38Z" transform="translate(39.462 24.888)" fill="#ffb881"/>
    <path id="Path_416" data-name="Path 416" d="M128.722-88.97c-6.34,2.605-16.181,2.127-20.262-.531s3.936-4.626,10.2-5.211S128.722-88.97,128.722-88.97Z" transform="translate(59.347 24.785)" fill="#ffb881"/>
    <path id="Path_417" data-name="Path 417" d="M113.2-93.318a1.1,1.1,0,0,0-.384-.643,48.286,48.286,0,0,1,5.107-.75c6.27-.585,10.058,5.742,10.058,5.742-6.34,2.605-16.544,2.179-20.625-.479C107.1-89.615,113.366-92.035,113.2-93.318Z" transform="translate(60.095 24.785)" fill="#ff9466"/>
    <path id="Path_418" data-name="Path 418" d="M146.967-93.38c-4.809-.425-7.289-.9-8.966-1.01s-5.61,4.1-5.829,4.946,3.716.638,4.809.426a8.308,8.308,0,0,0,2.769-1.809s3.427,1.649,5.686,1.49S146.967-93.38,146.967-93.38Z" transform="translate(-3.542 24.888)" fill="#ff9466"/>
    <path id="Path_419" data-name="Path 419" d="M149.49-93.38c-4.811-.425-7.289-.9-8.964-1.01s-5.614,4.1-5.832,4.946,3.718.638,4.811.426a8.308,8.308,0,0,0,2.769-1.809s3.425,1.649,5.686,1.49S149.49-93.38,149.49-93.38Z" transform="translate(-10.595 24.888)" fill="#ffb881"/>
    <path id="Path_420" data-name="Path 420" d="M117.364-123.544c18.592-.908,13.454-12.733,13.454-12.733s13.943-8.094,9.172-16.006a8.508,8.508,0,0,0-5.136-3.547s4.89-8.821.857-11.641-9.91-1.729-9.91-1.729,2.693-6-5.014-7.548-11.863,2.637-11.863,2.637-2.323-3.82-13.209-1.272-4.892,15.46-4.892,15.46a8.1,8.1,0,0,0-6.971,6.73c-1.1,6.186,11.252,13.641,11.252,13.641Z" transform="translate(89.117 1.191)" fill="#933737"/>
    <path id="Path_421" data-name="Path 421" d="M83.853-154.039a8.1,8.1,0,0,1,6.971-6.73s-4.116-8.886.7-13.367c-1.464,2.653-2.762,6.164-.762,8,3.478,3.192,9.5,2.689,9.5,2.689s-3.779,5.683,3.57,7.975,13.241-6.51,13.241-6.51.6,9.08,11.855,7.631c3.555-.459,5.633-2.111,6.813-4.154-.476,1.1-.878,1.829-.878,1.829a8.508,8.508,0,0,1,5.136,3.547c4.771,7.912-9.172,16.006-9.172,16.006s5.137,11.825-13.454,12.733L95.1-140.4S82.751-147.853,83.853-154.039Z" transform="translate(89.117 2.037)" fill="#812b2b"/>
    <path id="Path_422" data-name="Path 422" d="M86-168.059a8.582,8.582,0,0,1-.131,4.237A17.27,17.27,0,0,0,86-168.059Z" transform="translate(140.626 3.778)" fill="#812b2b"/>
    <path id="Path_423" data-name="Path 423" d="M136.111-92.11c-16.539,5.616-41.652,5.917-41.652,5.917l-7.314-7s33.129-11.018,39.026-11.473S136.111-92.11,136.111-92.11Z" transform="translate(88.02 21.94)" fill="#e4d3aa"/>
    <path id="Path_424" data-name="Path 424" d="M84.776-126.6c6.427-4.585,25.4-2.578,25.242,3.1C109.23-96,98.624-85.18,98.624-85.18L81.443-86.688S78.35-122.02,84.776-126.6Z" transform="translate(125.894 14.932)" fill="#e4d3aa"/>
    <path id="Path_425" data-name="Path 425" d="M101.4-90.571H207.013c6.546,0,8.315,16.7,1.771,16.7H103.165C111.627-73.87,109.86-90.571,101.4-90.571Z" transform="translate(-15.347 25.983)" fill="#bcb13c"/>
    <path id="Path_426" data-name="Path 426" d="M201.435-82.533a331.6,331.6,0,0,1-45.853-.078c-22.3-1.431-41.9-4.448-54.112-7.96H195.68C198.872-90.571,200.923-86.6,201.435-82.533Z" transform="translate(-3.816 25.983)" fill="#d8ca4f"/>
    <path id="Path_427" data-name="Path 427" d="M158.488-89.043h75.764c13.407,0,14.76,12.769,1.353,12.769H159.841C167.023-77.993,167.844-87.017,158.488-89.043Z" transform="translate(-150.182 26.42)" fill="#e9ddbe"/>
    <path id="Path_428" data-name="Path 428" d="M220.475-84.418H164.968c-.806-2.034-2.885-3.847-6.479-4.625h75.764c13.407,0,14.76,12.769,1.353,12.769h-4.557C232.138-79.928,228.426-84.418,220.475-84.418Z" transform="translate(-150.182 26.42)" fill="#d8c49d"/>
    <path id="Path_429" data-name="Path 429" d="M161.4-90.571h83.794l.3,2.947H161.7a1.988,1.988,0,0,1-2.1-1.473C159.515-89.911,160.321-90.571,161.4-90.571Z" transform="translate(-152.615 25.983)" fill="#9d9329"/>
    <path id="Path_430" data-name="Path 430" d="M160.606-79.881h83.8l.3,2.947H160.9a1.99,1.99,0,0,1-2.1-1.474C158.724-79.221,159.53-79.881,160.606-79.881Z" transform="translate(-150.425 29.046)" fill="#9d9329"/>
    <path id="Path_431" data-name="Path 431" d="M156.346-90.571h9.82c5.425,2.892,6.538,13.809,1.7,16.7h-9.751C166.577-73.87,164.81-90.571,156.346-90.571Z" transform="translate(-70.855 25.983)" fill="#9d9329"/>
    <path id="Path_432" data-name="Path 432" d="M146.327-90.711c1.457,3.508-.728,5.635-7.508,5.635A9.234,9.234,0,0,1,130-90.551Z" transform="translate(0.647 25.942)" fill="#bcb13c"/>
    <path id="Path_433" data-name="Path 433" d="M146.087-76.352H230.2c14.885,0,19.163,42.495,4.278,42.495H150.365C157.963-39.577,156.912-69.61,146.087-76.352Z" transform="translate(-127.032 30.057)" fill="#e9ddbe"/>
    <path id="Path_434" data-name="Path 434" d="M205.49-66.38H152.861c-1.526-4.437-3.772-8.1-6.774-9.972H230.2c14.885,0,19.163,42.493,4.278,42.493H218.564C220.627-46.849,215.428-66.38,205.49-66.38Z" transform="translate(-127.032 30.057)" fill="#d8c49d"/>
    <path id="Path_435" data-name="Path 435" d="M79.542-77.979H196.8c23.294-.682,25.861,46,2.57,46.686H82.11C102.081-31.878,99.511-78.563,79.542-77.979Z" transform="translate(21.105 29.588)" fill="#ffb94a"/>
    <path id="Path_436" data-name="Path 436" d="M194.319-77.979c12.9-.378,19.426,13.764,18.745,26.579-15.428,2.28-39.361,1.434-65.36-2.949-25.574-4.31-47.3-11.055-59.893-17.923a13.407,13.407,0,0,0-7.975-5.437l-.286-.27Z" transform="translate(23.628 29.588)" fill="#ffcd61"/>
    <path id="Path_437" data-name="Path 437" d="M150.417-77.981h93.375l.843,4.426H151.262a2.831,2.831,0,0,1-2.677-2.213A1.8,1.8,0,0,1,150.417-77.981Z" transform="translate(-132.271 29.59)" fill="#efa02e"/>
    <path id="Path_438" data-name="Path 438" d="M149.416-44.679h93.021l.9,3.842H150.317a2.814,2.814,0,0,1-2.707-1.921C147.363-43.82,148.171-44.679,149.416-44.679Z" transform="translate(-129.248 39.133)" fill="#efa02e"/>
    <path id="Path_439" data-name="Path 439" d="M142.481-77.98h15.8c11.354,8.487,12.659,38.2,1.783,46.685H145.05C165.02-31.879,162.45-78.564,142.481-77.98Z" transform="translate(-42.694 29.589)" fill="#efa02e"/>
    <path id="Path_440" data-name="Path 440" d="M86.622-39.668h71.039c7.95-.233,12.223-7.007,13.123-14.79q-3.37.133-7.016.134h-.441c-.956,6.07-4.465,11.188-10.747,11.372H93.737c5.446-3.476,7.389-11.7,6.144-19.108q-3.05-.7-5.979-1.438C95.675-54.361,93.384-43.985,86.622-39.668Z" transform="translate(53.889 33.74)" fill="#ffe36f" fill-rule="evenodd"/>
    <path id="Path_441" data-name="Path 441" d="M165.137-51.114q3.64,0,7.016-.134C173.394-62.011,168.19-74.7,157.339-74.7c-.136,0-.275,0-.413.006H86.52c4.621,2.846,7.576,8.356,8.751,14.409q2.926.739,5.979,1.438c-.885-5.258-3.376-10.11-7.363-12.566H152.2c.115,0,.229-.005.342-.005,9.285,0,13.58,11.22,12.151,20.307Z" transform="translate(52.504 30.529)" fill="#ffeb91"/>
    <path id="Path_442" data-name="Path 442" d="M156.818-58.035c0-.22,14.391-.4,32.143-.4s32.142.179,32.142.4-14.391.4-32.142.4S156.818-57.816,156.818-58.035Z" transform="translate(-123.329 35.191)" fill="#d8c49d"/>
    <path id="Path_443" data-name="Path 443" d="M156.694-64.111c0-.22,14.391-.4,32.143-.4s32.142.178,32.142.4-14.391.4-32.142.4S156.694-63.891,156.694-64.111Z" transform="translate(-122.987 33.451)" fill="#d8c49d"/>
    <path id="Path_444" data-name="Path 444" d="M151.61-49.728c0-.221,12.239-.4,27.332-.4s27.334.178,27.334.4-12.238.4-27.334.4S151.61-49.508,151.61-49.728Z" transform="translate(-99.318 37.572)" fill="#d8c49d"/>
    <path id="Path_445" data-name="Path 445" d="M53.111-42.259H192.2c8.619,0,21.835,31.012,13.216,31.012H66.325C77.473-11.247,64.257-42.259,53.111-42.259Z" transform="translate(76.213 39.826)" fill="#955cbe"/>
    <path id="Path_446" data-name="Path 446" d="M187.987-28.134c-13.266,3.93-37.766,5.267-65.288,2.918-32.31-2.76-58.956-9.758-67.57-17.043h120.4C179.58-42.259,184.651-35.4,187.987-28.134Z" transform="translate(93.065 39.826)" fill="#a770d8"/>
    <path id="Path_447" data-name="Path 447" d="M129.336-39.423H229.11c17.657,0,27.762,23.715,10.105,23.715H139.44C147.778-18.9,142.976-35.661,129.336-39.423Z" transform="translate(-102.196 40.639)" fill="#e9ddbe"/>
    <path id="Path_448" data-name="Path 448" d="M203.746-32.351H139.831a19.932,19.932,0,0,0-10.5-7.072H229.11c17.657,0,27.762,23.715,10.105,23.715H218.662C229.184-18.7,219.468-32.351,203.746-32.351Z" transform="translate(-102.196 40.639)" fill="#d8c49d"/>
    <path id="Path_449" data-name="Path 449" d="M135.038-42.259h110.4l2.238,5.473h-110.4a4.467,4.467,0,0,1-3.688-2.736C132.971-41.034,133.62-42.259,135.038-42.259Z" transform="translate(-108.523 39.826)" fill="#73409d"/>
    <path id="Path_450" data-name="Path 450" d="M129.115-22.408h110.4l2.238,5.473h-110.4a4.467,4.467,0,0,1-3.688-2.736C127.049-21.183,127.7-22.408,129.115-22.408Z" transform="translate(-92.153 45.514)" fill="#73409d"/>
    <path id="Path_451" data-name="Path 451" d="M123.044-42.259h15.869c12.037,4.436,23.757,26.576,16.417,31.012H139.461C153.305-11.247,136.89-42.259,123.044-42.259Z" transform="translate(2.077 39.826)" fill="#73409d"/>
    <path id="Path_452" data-name="Path 452" d="M66.269-16.623H164.3a3.1,3.1,0,0,0,2.594-1.142,4.1,4.1,0,0,0,.638-2.434,20.548,20.548,0,0,0-2.113-7.566q-.823.129-1.675.251a19.169,19.169,0,0,1,2.074,7.315,3.407,3.407,0,0,1-.483,1.983,1.157,1.157,0,0,1-1.035.512H68.674c1.187-3.658-2.116-11.822-6.515-17.547q-1.328-.39-2.592-.787c4.935,5.809,9.113,15.633,7.174,18.674Z" transform="translate(105.761 41.608)" fill="#ed9ede"/>
    <path id="Path_453" data-name="Path 453" d="M170.27-26.534q.852-.122,1.675-.251c-2.753-6.082-7.76-12.679-12.317-12.679H60.765l1.5.926A17.037,17.037,0,0,1,66.1-35.059q1.262.4,2.592.787a24.066,24.066,0,0,0-3.913-4.113h94.853C162.85-38.385,167.58-32.326,170.27-26.534Z" transform="translate(99.142 40.627)" fill="#f1c2ec"/>
    <path id="Path_454" data-name="Path 454" d="M134.128-26.463c0,.264,18.5.477,41.325.477s41.328-.214,41.328-.477-18.5-.479-41.328-.479S134.128-26.728,134.128-26.463Z" transform="translate(-78.991 44.215)" fill="#d8c49d"/>
    <path id="Path_455" data-name="Path 455" d="M134.624-31.423c0,.265,19.923.479,44.5.479s44.5-.214,44.5-.479-19.922-.479-44.5-.479S134.624-31.687,134.624-31.423Z" transform="translate(-86.704 42.794)" fill="#d8c49d"/>
    <path id="Path_456" data-name="Path 456" d="M5.656-19.423h205.4c12.728,0,7.072,24.989-5.654,24.989H0C16.46,5.566,22.115-19.423,5.656-19.423Z" transform="translate(162.827 46.37)" fill="#e92856"/>
    <path id="Path_457" data-name="Path 457" d="M115.174-3.673C65.12-6.186,21.944-12.382,0-19.423H196.058c7.382,0,8.573,8.4,5.793,15.464C178.411-2.248,148.129-2.019,115.174-3.673Z" transform="translate(177.827 46.37)" fill="#ff4569"/>
    <path id="Path_458" data-name="Path 458" d="M115.468-17.138H262.811c26.073,0,21.749,19.108-4.324,19.108H111.144C126.045-.6,132.558-14.107,115.468-17.138Z" transform="translate(-102.014 47.025)" fill="#e9ddbe"/>
    <path id="Path_459" data-name="Path 459" d="M229.333-8.631H121.249c.485-3.655-2.414-7.143-10.105-8.507H258.487c26.073,0,21.749,19.108-4.324,19.108h-7.79C248.551-3.129,243.324-8.631,229.333-8.631Z" transform="translate(-97.69 47.025)" fill="#d8c49d"/>
    <path id="Path_460" data-name="Path 460" d="M117.269-19.423h159.9l-.938,4.408h-159.9c-2.055,0-3.508-.987-3.25-2.2S115.216-19.423,117.269-19.423Z" transform="translate(-102.205 46.37)" fill="#b6204a"/>
    <path id="Path_461" data-name="Path 461" d="M119.755-3.428h159.9l-.938,4.41h-159.9c-2.055,0-3.508-.988-3.249-2.205S117.7-3.428,119.755-3.428Z" transform="translate(-109.075 50.953)" fill="#b6204a"/>
    <path id="Path_462" data-name="Path 462" d="M113.188-19.423h17.068c10.206,3.874,6.3,21.114-5.656,24.989H107.533C123.991,5.566,129.647-19.423,113.188-19.423Z" transform="translate(51.538 46.37)" fill="#b6204a"/>
    <path id="Path_463" data-name="Path 463" d="M11.828.455h103.16c3.866,0,6.94-2.792,8.762-6.321-7.462.257-15.373.39-23.645.39-13.675,0-28.327-.363-43.554-1.127C43.788-7.244,31.473-8.124,19.84-9.2,18.689-4.912,15.809-.769,11.828.455Z" transform="translate(236.45 49.3)" fill="#fa4995"/>
    <path id="Path_464" data-name="Path 464" d="M94.4-3.031c8.271,0,16.183-.133,23.645-.39,3.127-6.065,2.55-14.308-4.093-14.308H10.79c3.781,1.35,4.614,6.25,3.344,10.977C25.767-5.679,38.082-4.8,50.845-4.158,66.072-3.394,80.724-3.031,94.4-3.031Z" transform="translate(242.156 46.855)" fill="#ff7db6"/>
    <path id="Path_465" data-name="Path 465" d="M81.619,1.493H98.351c5.714,0,9.7-6.1,10.462-11.664-6.908-.82-13.477-1.706-19.646-2.648C89.34-7.563,86.416-.989,81.619,1.493Z" transform="translate(125.464 48.262)" fill="#fa4995"/>
    <path id="Path_466" data-name="Path 466" d="M104.069-8.764c.638-4.67-1-8.965-5.79-8.965H81.544c1.883,1.272,2.788,3.622,2.878,6.317C90.592-10.47,97.161-9.584,104.069-8.764Z" transform="translate(130.247 46.855)" fill="#ff7db6"/>
    <path id="Path_467" data-name="Path 467" d="M123.362-8.01c0,.264,26.57.477,59.347.477s59.349-.214,59.349-.477-26.572-.479-59.349-.479S123.362-8.275,123.362-8.01Z" transform="translate(-85.281 49.503)" fill="#d8c49d"/>
    <path id="Path_468" data-name="Path 468" d="M122.246-5.654c0,.264,26.57.479,59.347.479s59.348-.215,59.348-.479-26.572-.479-59.348-.479S122.246-5.919,122.246-5.654Z" transform="translate(-82.197 50.178)" fill="#d8c49d"/>
    <path id="Path_469" data-name="Path 469" d="M146.459-74.39l-55.3,7.116L61.135-28.059H59.71L76.363-78.911l39.115-11.583,9.68-5.932Z" transform="translate(126.778 24.305)" fill="#673646"/>
    <path id="Path_470" data-name="Path 470" d="M89.94-68.628,59.358-30.508,86.343-74.427l42.785-5.37,1.913-9.667,13.915,14.847Z" transform="translate(128.927 26.3)" fill="#4e2934"/>
    <path id="Path_471" data-name="Path 471" d="M64.746-90.242,77.529-47.3,124.952-6.333l-.774.848L57.39-41.084,34.855-74.82,22.936-80.083,17.887-95.329Z" transform="translate(224.562 24.619)" fill="#6d3d4b"/>
    <path id="Path_472" data-name="Path 472" d="M38.905-79.6l-5.321,2.446,25.948,31.9L121.048-9.588l-.728.813-67.687-35.3-22.4-32.335L17.913-83.851Q28.8-78.127,38.905-79.6Z" transform="translate(228.42 27.908)" fill="#4e2934"/>
    <path id="Path_473" data-name="Path 473" d="M100.551-77.31c-14.216,1.418-38.88-7.161-50.687-12.823l.982-.639-1-4.557L96.7-90.242Z" transform="translate(190.744 24.619)" fill="#4e2934"/>
    <path id="Path_474" data-name="Path 474" d="M130.312-70.061C120.438-68.083,83.1-80.018,80.547-81.5c-2.481-1.445.968-9.322-15.876-15.821s-19.752-18.363-12.2-29.665,46.667,4.8,58.477,21.756c0,0,10.068,5.649,20.331,24.861C135.4-72.667,132.556-70.51,130.312-70.061Z" transform="translate(160.062 14.466)" fill="#f4e7c6"/>
    <path id="Path_475" data-name="Path 475" d="M74.753-111.041a85.984,85.984,0,0,0,17.871,3.65c-3.2,8.078,4.6,19.792,19.616,28.156A68.924,68.924,0,0,0,130.666-72.2C117.73-72.429,86.383-82.5,84.052-83.856c-2.481-1.445.968-9.322-15.876-15.821-13.483-5.2-18.013-13.838-15.426-22.872C57.866-118.105,65.474-113.987,74.753-111.041Z" transform="translate(156.456 16.819)" fill="#ecd9ae"/>
    <path id="Path_476" data-name="Path 476" d="M112.937-126.431c-4.783-4.111-10.47-12.669-12.111-17.1l-11.417,10.5,14.2,20.059Z" transform="translate(107.363 10.807)" fill="#ffb881"/>
    <path id="Path_477" data-name="Path 477" d="M99.956-131.9l4.719,1.777S94.616-118.78,88.17-117.23l-.6-5.422Z" transform="translate(118.982 14.141)" fill="#e4d3aa"/>
    <path id="Path_478" data-name="Path 478" d="M188.295-115.614h18.112L188.983-84.53H166.689Z" transform="translate(-126.042 18.806)" fill="#bc9d7d"/>
    <path id="Path_479" data-name="Path 479" d="M160.6-181.245H234.41c6.839,0,12.384,4.045,12.384,9.034v78.433c0,4.989-5.545,9.033-12.384,9.033H160.6c-6.839,0-12.384-4.044-12.384-9.033v-78.433C148.212-177.2,153.757-181.245,160.6-181.245Z" transform="translate(-133.842)" fill="#dac1a2"/>
    <path id="Path_480" data-name="Path 480" d="M148.212-100.515v-72.96c0-4.289,4.771-7.769,10.652-7.769h77.279c5.882,0,10.65,3.48,10.65,7.769v72.96Z" transform="translate(-133.842)" fill="#2d2121"/>
    <path id="Path_481" data-name="Path 481" d="M186.044-115.614h18.112L186.73-84.53H164.438Z" transform="translate(-119.821 18.806)" fill="#dac1a2"/>
    <path id="Path_482" data-name="Path 482" d="M164.438-95.5l14.655-20.118h18.112L185.123-94.06Z" transform="translate(-112.871 18.806)" fill="#bc9d7d"/>
    <path id="Path_483" data-name="Path 483" d="M154.008-181.245h73.814c6.839,0,12.384,4.045,12.384,9.034v78.433c0,4.989-5.545,9.033-12.384,9.033H154.008c-6.839,0-12.384-4.044-12.384-9.033v-78.433C141.624-177.2,147.169-181.245,154.008-181.245Z" transform="translate(-115.636)" fill="#e9ddbe"/>
    <path id="Path_484" data-name="Path 484" d="M215.925-84.745H173.378l-23.387-96.5H181.67Z" transform="translate(-106.111)" fill="#f4e7d0"/>
    <path id="Path_485" data-name="Path 485" d="M142.469-178.84a8.265,8.265,0,0,0-.19,1.759V-93.34c0,3.523,2.145,6.38,4.79,6.38h87.841c2.645,0,4.79-2.857,4.79-6.38v-83.741a8.383,8.383,0,0,0-.19-1.759,7.93,7.93,0,0,1,.771,3.46v83.741c0,3.523-2.145,6.38-4.79,6.38h-89c-2.645,0-4.79-2.857-4.79-6.38V-175.38A7.906,7.906,0,0,1,142.469-178.84Z" transform="translate(-115.84 0.689)" fill="#f1e6cc"/>
    <path id="Path_486" data-name="Path 486" d="M178.308-93.135h21.95v3.093H176.373Z" transform="translate(-136.971 25.248)" fill="#e9ddbe"/>
    <path id="Path_487" data-name="Path 487" d="M187.21-90.042H162.594v-3.093H187.21Z" transform="translate(-98.516 25.248)" fill="#f4e7d0"/>
    <path id="Path_488" data-name="Path 488" d="M146.452-181.245H236.1c2.665,0,4.825,2.856,4.825,6.38v74.346h-99.3v-74.346C141.625-178.389,143.785-181.245,146.452-181.245Z" transform="translate(-116.36)" fill="#3f3131"/>
    <path id="Path_489" data-name="Path 489" d="M172.731-100.519l-19.565-80.726h31.679L213.5-100.519Z" transform="translate(-109.286)" fill="#493a3a"/>
    <path id="Path_490" data-name="Path 490" d="M235.829-178.77H145.991c-1.926,0-3.582,1.487-4.361,3.636.108-3.4,2.2-6.111,4.779-6.111h89c2.577,0,4.672,2.715,4.779,6.111C239.413-177.282,237.755-178.77,235.829-178.77Z" transform="translate(-115.631)" fill="#5b4a4a"/>
    <path id="Path_491" data-name="Path 491" d="M234.589-101.759H143.847v-75.158h90.742Z" transform="translate(-113.94 1.24)" fill="#56b0d0"/>
    <path id="Path_492" data-name="Path 492" d="M232.936-103.251H144.5v-72.717h88.435Z" transform="translate(-113.441 1.512)" fill="#8edaec"/>
    <path id="Path_493" data-name="Path 493" d="M152.686-175.968h40.06l19.505,72.717H172.193Z" transform="translate(-107.191 1.512)" fill="#a5ecf9"/>
    <path id="Path_494" data-name="Path 494" d="M165.667-112.1h15.167c.5,0,.906.295.906.661v.184c0,.365-.4.663-.906.663H165.667c-.5,0-.908-.3-.908-.663v-.184C164.759-111.8,165.166-112.1,165.667-112.1Z" transform="translate(-96.816 19.814)" fill="#dac1a2"/>
    <path id="Path_495" data-name="Path 495" d="M228.589-113.006H145.01v-54.656h83.579Z" transform="translate(-109.99 3.892)" fill="#f4e7d0"/>
    <path id="Path_496" data-name="Path 496" d="M223.132-124.6H146.3V-160.7h76.829Z" transform="translate(-106.814 5.888)" fill="#564141"/>
    <path id="Path_497" data-name="Path 497" d="M165.927-149.5h11.587c1.436,0,2.6.849,2.6,1.9v4.092c0,1.047-1.167,1.9-2.6,1.9H165.927c-1.439,0-2.6-.849-2.6-1.9V-147.6C163.324-148.652,164.488-149.5,165.927-149.5Z" transform="translate(-92.61 9.096)" fill="#ec4848"/>
    <path id="Path_498" data-name="Path 498" d="M171.262-148.092v4.835l-4.434-2.417Z" transform="translate(-89.861 9.5)" fill="#f4e7d0"/>
    <path id="Path_499" data-name="Path 499" d="M15.1-17.243h7.144l3.206-8.615s-5.538-2.872-6.705-.212,1.021,6.487,1.021,6.487Z" transform="translate(328.97 44.141)" fill="#f1e8cd"/>
    <path id="Path_500" data-name="Path 500" d="M107.473-41.516h13.01s.656-2.792-1.312-3.27S107.473-41.516,107.473-41.516Z" transform="translate(67.34 39.09)" fill="#f1e8cd"/>
    <path id="Path_501" data-name="Path 501" d="M80.021-114.682a44.243,44.243,0,0,0-9.62,20.1l10.933-15.1Z" transform="translate(173.231 19.074)" fill="#f4e7c6"/>
    <path id="Path_502" data-name="Path 502" d="M96.342-112.616a5.422,5.422,0,0,0,1.615-1.782,15.308,15.308,0,0,1-.358-6.25c-.2.066-.392.122-.584.171A77.7,77.7,0,0,0,96.342-112.616Z" transform="translate(110.075 17.364)" fill="#c7745e"/>
    <path id="Path_503" data-name="Path 503" d="M99.42-121.386l.028-.019-9.2-13,9.2,13Zm11.959-8.927.425-.316-.423.315a53.517,53.517,0,0,1-4.9-6A53.607,53.607,0,0,0,111.379-130.313Z" transform="translate(107.005 12.876)" fill="#de8e8e"/>
    <path id="Path_504" data-name="Path 504" d="M98.574-134.241a45.792,45.792,0,0,1-5.308-9.288h0A45.809,45.809,0,0,0,98.574-134.241Z" transform="translate(114.955 10.807)" fill="#701818"/>
    <path id="Path_505" data-name="Path 505" d="M100.623-135.831l2.413-2.218-2.411,2.217Z" transform="translate(97.302 12.378)" fill="#de8e8e"/>
    <path id="Path_506" data-name="Path 506" d="M86.83-111.516l.011-.018a15.313,15.313,0,0,1-.347-6.238l-.021.006A15.308,15.308,0,0,0,86.83-111.516Zm14.389-17.772a25.024,25.024,0,0,0,3.312-1.114c-.993-.144-1.958-.246-2.887-.3l.653.247S101.9-130.014,101.219-129.288Z" transform="translate(121.395 14.482)" fill="#d5816e"/>
    <path id="Path_507" data-name="Path 507" d="M95.72-114.236a24.444,24.444,0,0,0,2-6.367l-.478-.674a13.1,13.1,0,0,1-1.868.8A15.314,15.314,0,0,0,95.72-114.236Z" transform="translate(112.352 17.184)" fill="#cf7861"/>
    <path id="Path_508" data-name="Path 508" d="M103.307-114.227c.085-.359.175-.719.268-1.078q-.376.214-.746.4Zm-3.617-5.11,11.931-8.908a53.605,53.605,0,0,1-4.894-6,45.809,45.809,0,0,1-5.31-9.286l-7.668,7.049-2.413,2.218q-.439.94-.847,1.929Z" transform="translate(106.759 10.808)" fill="#de6648"/>
    <path id="Path_509" data-name="Path 509" d="M88.17-117.23l.1-.032a.012.012,0,0,1,0,.008c.192-.049.386-.105.584-.171l.021-.006a13.1,13.1,0,0,0,1.868-.8q.37-.189.746-.4a14.373,14.373,0,0,1,2.8-6c2.093-2.388,6.04-3.38,9.308-4.31.684-.726,1.078-1.171,1.078-1.171l-.653-.247h0l-4.065-1.53-.425.316L87.6-122.67l-.028.019Z" transform="translate(118.982 14.141)" fill="#c7745e"/>
    <path id="Path_510" data-name="Path 510" d="M138.2-113.184c-26.251,19.835-45.89,22.459-45.89,22.459L78.174-100.47s30.014-27.545,40.082-27.688S143.624-117.281,138.2-113.184Z" transform="translate(100.839 15.212)" fill="#f4e7c6"/>
    <path id="Path_511" data-name="Path 511" d="M130.491-117.22a2.951,2.951,0,0,1-.79.915C104.015-96.257,84.557-93.481,84.557-93.481l-6.2-4.153C86.866-98.945,105.872-103.257,130.491-117.22Z" transform="translate(109.434 18.346)" fill="#ecd9ae"/>
    <path id="Path_512" data-name="Path 512" d="M146.617-88.97c-6.342,2.605-16.181,2.127-20.264-.531s3.936-4.626,10.206-5.211S146.617-88.97,146.617-88.97Z" transform="translate(9.282 24.785)" fill="#ffb881"/>
    <path id="Path_513" data-name="Path 513" d="M131.1-93.318a1.113,1.113,0,0,0-.388-.643,48.353,48.353,0,0,1,5.111-.75c6.266-.585,10.058,5.742,10.058,5.742-6.342,2.605-16.546,2.179-20.629-.479C124.994-89.615,131.262-92.035,131.1-93.318Z" transform="translate(10.029 24.785)" fill="#ff9466"/>
    <path id="Path_514" data-name="Path 514" d="M157.756-98.468c-15.491,8.9-42.6,14.548-42.6,14.548L101.323-90.5s33.97-16.163,40.168-17.857S157.756-98.468,157.756-98.468Z" transform="translate(40.754 20.838)" fill="#f4e7c6"/>
    <path id="Path_515" data-name="Path 515" d="M145.578-103.071c3.4,1.013,4.127,3.034,4.127,3.034-15.491,8.9-43.783,14.555-43.783,14.555l-5.27-2.486C108.429-89.879,130.612-95.195,145.578-103.071Z" transform="translate(50.103 22.401)" fill="#ecd9ae"/>
    <path id="Path_516" data-name="Path 516" d="M119.68-154.346c5.383,5.729,5.626,27.191,5.016,28.646s-13.195,9.131-20.533,9.676a51.8,51.8,0,0,1-8.7-26.683c-.273-8.637,3.056-16.189,8.806-16.916S116.922-157.284,119.68-154.346Z" transform="translate(84.453 6.165)" fill="#ffb881"/>
    <path id="Path_517" data-name="Path 517" d="M103.913-160.777c-10.373-2.671-10.775,10.806-5.277,25.108l7.705-1.274S107.019-159.978,103.913-160.777Z" transform="translate(103.722 5.767)" fill="#812b2b"/>
    <path id="Path_518" data-name="Path 518" d="M93.046-146.3c-.032-4.026,6.188-6.356,8.488-2.576s-2.943,10.482-5.176,10.47S93.067-143.906,93.046-146.3Z" transform="translate(111.786 8.727)" fill="#ffb881"/>
    <path id="Path_519" data-name="Path 519" d="M93.99-146.2c-.019-2.443,3.751-3.855,5.146-1.563s-1.785,6.356-3.137,6.35S94-144.749,93.99-146.2Z" transform="translate(112.742 9.262)" fill="#da5b3d"/>
    <path id="Path_520" data-name="Path 520" d="M94.614-144.152c0-1.678,2.739-2.666,3.73-1.095s-1.337,4.378-2.314,4.379S94.612-143.154,94.614-144.152Z" transform="translate(112.532 10.089)" fill="#ffb881"/>
    <path id="Path_521" data-name="Path 521" d="M110.218-147.8l2.739-.282c.153,1.483.1,3.4-1.219,3.566S110.235-146.695,110.218-147.8Z" transform="translate(70.084 9.502)" fill="#5b2f2b"/>
    <path id="Path_522" data-name="Path 522" d="M116.063-152.283a17.4,17.4,0,0,1,.242,4.884c-.178.382-5.6.8-5.917.511s-.517-4.435-.377-4.978S115.763-152.75,116.063-152.283Z" transform="translate(67.136 8.236)" fill="#933737"/>
    <path id="Path_523" data-name="Path 523" d="M112.329-150.633c-1.563,5.389-4.487,15.077-4.54,16.728-.056,1.742,6.963,2.231,8.1,1.373,1.093-.825-2.684-18.16-2.684-18.16Z" transform="translate(71.322 8.755)" fill="#e97b58"/>
    <path id="Path_524" data-name="Path 524" d="M111.325-151.022c-1.429,5.225-4.1,14.556-4.113,16.141-.021,1.671,6.793,2.183,7.883,1.366,1.048-.787-2.917-17.56-2.917-17.56Z" transform="translate(73.177 8.645)" fill="#ffb881"/>
    <path id="Path_525" data-name="Path 525" d="M104.424-148.367l3.411-.279c.215,1.481.183,3.391-1.462,3.562S104.463-147.262,104.424-148.367Z" transform="translate(85.572 9.341)" fill="#5b2f2b"/>
    <path id="Path_526" data-name="Path 526" d="M114.077-153.114c.515.437.746,4.478.416,4.859s-10.2.858-10.781.569-.921-4.406-.665-4.948S113.534-153.574,114.077-153.114Z" transform="translate(81.404 8.003)" fill="#933737"/>
    <path id="Path_527" data-name="Path 527" d="M112.988-139.276l.857.645c-.794,3.128-4.626,5.294-11.7,7.067l-.2-.265C108.78-133.556,112.317-136.335,112.988-139.276Z" transform="translate(84.032 12.026)" fill="#e97b58"/>
    <path id="Path_528" data-name="Path 528" d="M104.437-133.011a2.214,2.214,0,0,0,1.781-.1c.834-.344,1.367-.988,1.252-1.164s-.8.355-1.64.706C105-133.227,104.31-133.175,104.437-133.011Z" transform="translate(86.021 13.448)" fill="#e97b58"/>
  </g>
</svg>
