<svg xmlns="http://www.w3.org/2000/svg" xmlns:xlink="http://www.w3.org/1999/xlink" width="914.86" height="573.253" viewBox="0 0 914.86 573.253">
  <defs>
    <linearGradient id="linear-gradient" x1="0.806" y1="0.528" x2="0.284" y2="0.678" gradientUnits="objectBoundingBox">
      <stop offset="0" stop-color="#d0f2dc"/>
      <stop offset="1" stop-color="#d9c179"/>
    </linearGradient>
    <filter id="Path_411" x="0" y="370.636" width="914.86" height="202.617" filterUnits="userSpaceOnUse">
      <feOffset dx="5" dy="5" input="SourceAlpha"/>
      <feGaussianBlur stdDeviation="3" result="blur"/>
      <feFlood flood-opacity="0.161"/>
      <feComposite operator="in" in2="blur"/>
      <feComposite in="SourceGraphic"/>
    </filter>
  </defs>
  <g id="svgHomepage3" transform="translate(-781.403 -873.215)">
    <g transform="matrix(1, 0, 0, 1, 781.4, 873.21)" filter="url(#Path_411)">
      <path id="Path_411-2" data-name="Path 411" d="M447.807,167.375C200.924,165.384.325,125.964-.244,79.329S198.866-3.5,445.749-1.508,893.232,39.9,893.8,86.538,694.691,169.365,447.807,167.375Z" transform="matrix(1, -0.02, 0.02, 1, 4.27, 391.82)" fill="url(#linear-gradient)"/>
    </g>
    <g id="Group_4" data-name="Group 4" transform="translate(864.352 1099.269)">
      <path id="Path_651" data-name="Path 651" d="M66.319-58.243,35.546-25.271l-10.7,136.119,58.792-4.709Z" transform="translate(41.905 140.19)" fill="#ccaf8f"/>
      <path id="Path_652" data-name="Path 652" d="M40.833-74.432,18.9-82.711,17.668-56.822l14.713,5.553Z" transform="translate(29.795 82.711)" fill="#50343c"/>
      <path id="Path_653" data-name="Path 653" d="M50.431-68.738,28.563-77.349,27.043-51.51l14.668,5.777Z" transform="translate(45.605 95.307)" fill="#50343c"/>
      <path id="Path_654" data-name="Path 654" d="M58.594-57.911,40.941-15.049,32.506,110.069l58.365-4.679Z" transform="translate(54.818 140.97)" fill="#dac1a2"/>
      <path id="Path_655" data-name="Path 655" d="M9.368-20.289,22.23,36.338H62.287V14.24L26.639-20.748Z" transform="translate(15.798 228.271)" fill="#412932"/>
      <path id="Path_656" data-name="Path 656" d="M2.585-19.074H48.748v-5.211H2.585Z" transform="translate(4.359 219.962)" fill="#81c4d8"/>
      <path id="Path_657" data-name="Path 657" d="M2.269-19.074H20.488v-5.211H2.269Z" transform="translate(3.826 219.962)" fill="#58a1b1"/>
      <path id="Path_658" data-name="Path 658" d="M15.154-20.289,28.016,36.338H101.4L32.428-20.748Z" transform="translate(25.556 228.271)" fill="#50343c"/>
      <path id="Path_659" data-name="Path 659" d="M62.867-23.053H0V-9.486H65.505Z" transform="translate(0 222.856)" fill="#dac1a2"/>
      <path id="Path_660" data-name="Path 660" d="M45.819-16.934l-29.636-.044,8.32,35.33,35.528-2.77,3.108-18.27Z" transform="translate(27.291 237.127)" fill="#674950"/>
      <path id="Path_661" data-name="Path 661" d="M29.561-23.053H0V-9.486H31.847Z" transform="translate(0 222.856)" fill="#c6a789"/>
      <path id="Path_662" data-name="Path 662" d="M48.068,108.474l38.485-3.085L54.276-57.911l-19.21,22.65Z" transform="translate(59.135 140.97)" fill="#e9ddbe"/>
      <path id="Path_663" data-name="Path 663" d="M77.5-40.03,15.818-64.509,6.974,24.91l36.28,14.4Z" transform="translate(11.761 125.47)" fill="#674950"/>
      <path id="Path_664" data-name="Path 664" d="M23.006,24.7a89.13,89.13,0,0,1,21.5,11.039L77.218-40.03,15.533-64.509,7.143,20.338A94.735,94.735,0,0,1,23.006,24.7Z" transform="translate(12.046 125.47)" fill="#412932"/>
      <path id="Path_665" data-name="Path 665" d="M90.615-49.892l-75.834-30.1-5,86.917,44.605,17.7Z" transform="translate(16.5 89.101)" fill="#674950"/>
      <path id="Path_666" data-name="Path 666" d="M101.171-44.135l-83.918-33.3L5.223,44.209,54.578,63.8Z" transform="translate(8.808 95.096)" fill="#dac1a2"/>
      <path id="Path_667" data-name="Path 667" d="M86.568-50.312,23.838-75.2,11.526,28.728l36.9,14.642Z" transform="translate(19.437 100.348)" fill="#e9ddbe"/>
      <path id="Path_668" data-name="Path 668" d="M25.7-30.178c0,20.544,13.357,37.2,29.838,37.2s29.838-16.655,29.838-37.2-13.359-37.2-29.838-37.2S25.7-50.725,25.7-30.178Z" transform="translate(43.334 118.733)" fill="#dac1a2"/>
      <path id="Path_669" data-name="Path 669" d="M27.152-32.579c0,18.651,12.129,33.773,27.092,33.773s27.09-15.121,27.09-33.773S69.2-66.355,54.244-66.355,27.152-51.234,27.152-32.579Z" transform="translate(45.789 121.134)" fill="#674950"/>
      <path id="Path_670" data-name="Path 670" d="M28.263-36.208c0,15.795,10.27,28.6,22.942,28.6s22.942-12.807,22.942-28.6S63.874-64.81,51.2-64.81,28.263-52.006,28.263-36.208Z" transform="translate(47.663 124.763)" fill="#dac1a2"/>
      <path id="Path_671" data-name="Path 671" d="M29.378-36.208c0,15.795,10.273,28.6,22.945,28.6s22.939-12.807,22.939-28.6-10.27-28.6-22.939-28.6S29.378-52.006,29.378-36.208Z" transform="translate(49.543 124.763)" fill="#e9ddbe"/>
      <path id="Path_672" data-name="Path 672" d="M18.618-1.169V22.483h95.5V-9.572Z" transform="translate(31.397 254.525)" fill="#e9ddbe"/>
      <path id="Path_673" data-name="Path 673" d="M34.9-7.132,8.965-4.617V16.754H38.228Z" transform="translate(15.119 260.257)" fill="#dac1a2"/>
      <path id="Path_674" data-name="Path 674" d="M34.612-60.907c.621,13.179,9.365,23.635,20.089,23.635a16.882,16.882,0,0,0,8.776-2.535c-.618-13.179-9.359-23.635-20.086-23.635A16.867,16.867,0,0,0,34.612-60.907Z" transform="translate(58.37 127.977)" fill="#f6ebd5"/>
      <path id="Path_675" data-name="Path 675" d="M54.018-14.249,48.078-44.3l-5.252,6.193L45.292-10.87Z" transform="translate(72.222 172.942)" fill="#f6ebd5"/>
      <path id="Path_676" data-name="Path 676" d="M54.151-31.709l-9.983,3.862,5.969,65.968,17.54-1.407Z" transform="translate(74.485 202.522)" fill="#f6ebd5"/>
      <path id="Path_677" data-name="Path 677" d="M27.444-26.8,39.463-65.725,23.75-72.045,17.187-30.485Z" transform="translate(28.984 107.767)" fill="#f6ebd5"/>
      <path id="Path_678" data-name="Path 678" d="M18.679-57.846,15.74-39.255l6.845,2.74,5.539-17.938Z" transform="translate(26.544 141.122)" fill="#f6ebd5"/>
      <path id="Path_679" data-name="Path 679" d="M13.162-10.037l8.913-64.4-7.672-.75L8.12-9.863Z" transform="translate(13.694 100.391)" fill="#e2cab0"/>
      <path id="Path_680" data-name="Path 680" d="M9.546-52.759,6.736-23.538l3.345.3,4.108-29.68Z" transform="translate(11.36 152.711)" fill="#e2cab0"/>
      <path id="Path_681" data-name="Path 681" d="M33.661-46.267c0,7.874,5.12,14.257,11.439,14.257s11.436-6.383,11.436-14.257S51.415-60.528,45.1-60.528,33.661-54.141,33.661-46.267Z" transform="translate(56.766 134.822)" fill="#50343c"/>
      <path id="Path_682" data-name="Path 682" d="M34.4-49.765c0,5.121,3.331,9.277,7.441,9.277s7.439-4.156,7.439-9.277-3.331-9.274-7.439-9.274S34.4-54.889,34.4-49.765Z" transform="translate(58.021 138.32)" fill="#674950"/>
      <path id="Path_683" data-name="Path 683" d="M52.012-15.079l-3.084-15.6Z" transform="translate(82.512 204.949)" fill="#e3b9a3"/>
      <path id="Path_684" data-name="Path 684" d="M34.641,2.921,31.968.707l4.223-20.761Z" transform="translate(53.911 229.901)" fill="#b5805c"/>
      <path id="Path_685" data-name="Path 685" d="M45.358,45.45l-12.4-10.258,1.55-22.975,9.359-46.007,6.955,76.9H46.975C46.194,43.105,45.538,44.1,45.358,45.45Z" transform="translate(55.589 197.631)" fill="#c28c67"/>
      <path id="Path_686" data-name="Path 686" d="M33.875,5.57l2.654-15.594-4.567-3.758.016-.074,2.673,2.214,12.4,10.258A6.011,6.011,0,0,0,47-.643c0,1.7.744,3.085,1.663,3.085H50.3a10.5,10.5,0,0,1,.972,1.6Z" transform="translate(53.901 244.464)" fill="#482626"/>
      <path id="Path_687" data-name="Path 687" d="M30.457,6.044,34.5-13.833l4.567,3.758L36.413,5.518Z" transform="translate(51.363 244.515)" fill="#5c3433"/>
      <path id="Path_688" data-name="Path 688" d="M45.578,77.276h-1.6L37.024.38,45.094-39.3a29.335,29.335,0,0,0,12.218-9.036L69,10.812l3.084,15.6H69.965L66.2,7.353l-9.983,3.862,1.375,15.2H41.252c-.921,0-1.451,1.092-1.187,2.442s1.222,2.442,2.141,2.442h2.012a31.406,31.406,0,0,1,3.213,7.177h.005c3.216,9.9,4.365,23.963,2.912,31.968h-.03a18.987,18.987,0,0,1-.852,3.242h-3.5c-.919,0-1.451.951-1.187,2.12A3.108,3.108,0,0,0,45.578,77.276ZM57.862-34.82l-5.252,6.193L55.077-1.389,63.8-4.768Z" transform="translate(62.437 163.46)" fill="#d0a179"/>
      <path id="Path_689" data-name="Path 689" d="M47.909-55.608v-.007Zm0-.231v-.02Zm0-.124v-.017Zm0-.141v0Zm0-.161v-.077Z" transform="translate(80.794 144.658)" fill="#e3b9a3"/>
      <path id="Path_690" data-name="Path 690" d="M40.028-2.354l.693-3.4c10.958-4.327,18.9-17.107,18.9-32.2A38.419,38.419,0,0,0,52.039-61.4l.543-2.669A42.008,42.008,0,0,1,61.2-38.2v.077a.2.2,0,0,1,0,.04v.261c0,.033,0,.067,0,.1v.251a41.932,41.932,0,0,1-8.956,26.056l0,.017A29.335,29.335,0,0,1,40.028-2.354Z" transform="translate(67.503 126.513)" fill="#c28c67"/>
      <path id="Path_691" data-name="Path 691" d="M40.286-7.629l1.042-5.121c9.04-3.838,15.538-14.515,15.538-27.081a32.642,32.642,0,0,0-6.085-19.4l.822-4.036a38.419,38.419,0,0,1,7.581,23.437C59.185-24.736,51.244-11.956,40.286-7.629Z" transform="translate(67.938 128.385)" fill="#5c3433"/>
      <path id="Path_692" data-name="Path 692" d="M40.674-15.58l5.08-24.981a17.145,17.145,0,0,0,7.5-2.485,28.944,28.944,0,0,0-4.169-13.886l1.042-5.131a32.642,32.642,0,0,1,6.085,19.4C56.212-30.1,49.714-19.418,40.674-15.58Z" transform="translate(68.593 131.216)" fill="#d0a179"/>
      <path id="Path_693" data-name="Path 693" d="M97.53,19.993H28.455L33.833-6.456l5.956-.526,17.4-1.531A15.764,15.764,0,0,1,58.3-5.5h.024a26.557,26.557,0,0,1-1.174,15.949h-.027A12.9,12.9,0,0,1,56,12.494H54.578c-.919,0-1.663,1.383-1.663,3.081s.744,3.085,1.663,3.085H97.53Z" transform="translate(47.987 257.015)" fill="#d0a179"/>
      <path id="Path_694" data-name="Path 694" d="M42.565-44.16,45.9-60.531a28.944,28.944,0,0,1,4.169,13.886A17.145,17.145,0,0,1,42.565-44.16Z" transform="translate(71.782 134.815)" fill="#dbab89"/>
      <path id="Path_695" data-name="Path 695" d="M45.292-10.87,42.826-38.108,48.078-44.3l5.94,30.052Z" transform="translate(72.222 172.942)" fill="#dbab89"/>
      <path id="Path_696" data-name="Path 696" d="M57.917-12.652H45.543l-1.375-15.2,9.983-3.862Z" transform="translate(74.485 202.522)" fill="#dbab89"/>
      <path id="Path_697" data-name="Path 697" d="M38.906-25.328h62.029c10.977,0,17.325,46.885,6.348,46.885H45.257C50.428,15.244,47.4-17.893,38.906-25.328Z" transform="translate(65.611 217.512)" fill="#e9ddbe"/>
    </g>
    <g id="Group_3" data-name="Group 3" transform="translate(919.48 873.215)">
      <path id="Path_529" data-name="Path 529" d="M121.214-27.788H59.185c2.149,1.882,3.946,5.419,5.351,9.746.887-.013,1.757-.044,2.654-.044,28.758,0,52.071,2.91,52.071,16.006,0,13.062-23.186,15.989-51.837,16.006A12.045,12.045,0,0,1,65.536,19.1h62.026C138.539,19.1,132.191-27.788,121.214-27.788Z" transform="translate(-9.046 444.512)" fill="#dac7a1"/>
      <path id="Path_530" data-name="Path 530" d="M82.788-28.479h26c4.6,0,9.241,51.51,4.642,51.51h-26C93.38,23.031,88.738-28.479,82.788-28.479Z" transform="translate(30.758 442.889)" fill="#854db1"/>
      <path id="Path_531" data-name="Path 531" d="M59.665-28.479h68.858l.954,4.883H60.618c-.919,0-1.878-1.1-2.141-2.442S58.743-28.479,59.665-28.479Z" transform="translate(-10.353 442.889)" fill="#be79ec"/>
      <path id="Path_532" data-name="Path 532" d="M61.419-14.365h68.6l.954,4.24H62.37a2.566,2.566,0,0,1-2.138-2.12C59.968-13.414,60.5-14.365,61.419-14.365Z" transform="translate(-7.395 476.044)" fill="#be79ec"/>
      <path id="Path_533" data-name="Path 533" d="M129.82-28.479H59.713c-.954,0-1.507,1.092-1.233,2.442S59.751-23.6,60.7-23.6h64.111c3.933,10.054,6.359,32.922,4.427,42.387H64.616c-.956,0-1.51.951-1.236,2.12a2.627,2.627,0,0,0,2.227,2.12h69.836C138.11,14.45,134.363-19.9,129.82-28.479Z" transform="translate(-10.353 442.889)" fill="#a262d3"/>
      <path id="Path_534" data-name="Path 534" d="M81.362-13.291h41.913c5.357,0,5.357,34.938,0,34.938H81.362C88.293,21.647,88.29-13.291,81.362-13.291Z" transform="translate(28.353 478.567)" fill="#77464e"/>
      <path id="Path_535" data-name="Path 535" d="M58.225-12.064h62.029c10.979,0,10.979,26.719,0,26.719H58.225C64.253,11.058,65.709-7.824,58.225-12.064Z" transform="translate(-10.665 481.45)" fill="#e9ddbe"/>
      <path id="Path_536" data-name="Path 536" d="M120.254-12.064H58.225C60.4-10.835,61.8-8.356,62.569-5.4H109.93c10.977,0,10.977,15.949,0,15.949H61.392a8.855,8.855,0,0,1-3.167,4.1h62.029C131.233,14.655,131.233-12.064,120.254-12.064Z" transform="translate(-10.665 481.45)" fill="#dac7a1"/>
      <path id="Path_537" data-name="Path 537" d="M59.5-13.291h71.507v6.169H59.5c-.919,0-1.663-1.383-1.663-3.085S58.583-13.291,59.5-13.291Z" transform="translate(-11.316 478.567)" fill="#77464e"/>
      <path id="Path_538" data-name="Path 538" d="M59.5-4.7h71.507V1.466H59.5c-.919,0-1.663-1.38-1.663-3.085S58.583-4.7,59.5-4.7Z" transform="translate(-11.316 498.749)" fill="#77464e"/>
      <path id="Path_539" data-name="Path 539" d="M118.9-13.291H83.955c8.551,0,8.551,34.938,0,34.938H118.9C124.259,21.647,124.259-13.291,118.9-13.291Z" transform="translate(32.726 478.567)" fill="#62343f"/>
      <path id="Path_540" data-name="Path 540" d="M339.609-152.215H68.642c-15.533,0-28.121,15.694-28.121,35.059V-76.27c0,19.361,12.588,35.055,28.121,35.055H339.609c15.53,0,28.121-15.694,28.121-35.055v-40.886C367.73-136.521,355.139-152.215,339.609-152.215Z" transform="translate(-40.521 152.215)" fill="#d983ef"/>
      <path id="Path_541" data-name="Path 541" d="M231.846,92.8H197.852c27.031-46.834,43.856-104.771,53.261-170.783h6.23C254.742-15.562,247.784,42.8,231.846,92.8Z" transform="translate(224.802 326.587)" fill="#e27024"/>
      <path id="Path_542" data-name="Path 542" d="M148.832,38.817c0,94.191,61.247,170.548,136.8,170.548s136.8-76.357,136.8-170.548-61.247-170.548-136.8-170.548S148.832-55.371,148.832,38.817Z" transform="translate(142.135 200.335)" fill="#6daacc"/>
      <path id="Path_543" data-name="Path 543" d="M220.53-26.719H202.553l-4.946,66.835h5.171Z" transform="translate(224.389 447.023)" fill="#ffc35c"/>
      <path id="Path_544" data-name="Path 544" d="M298.542,10.5c-3.32-12.958-29.7-23.045-61.755-23.045S178.355-2.455,175.032,10.5Z" transform="translate(186.319 480.324)" fill="#ffc35c"/>
      <path id="Path_545" data-name="Path 545" d="M212.326-2.364l6.469-24.355H200.817L198.636,2.713Z" transform="translate(226.124 447.023)" fill="#ef9737"/>
      <path id="Path_546" data-name="Path 546" d="M233.822-28.508h-35.5c-2.45,0-4.435,2.475-4.435,5.529s1.985,5.533,4.435,5.533h35.5c2.45,0,4.438-2.478,4.438-5.533S236.272-28.508,233.822-28.508Z" transform="translate(218.122 442.82)" fill="#ef9737"/>
      <path id="Path_547" data-name="Path 547" d="M221.229-9.985A21.988,21.988,0,0,1,222.6-6.11a15.362,15.362,0,0,0,.731,2.3,8.352,8.352,0,0,0,1,1.521c.419.566.838,1.135,1.217,1.752a22.5,22.5,0,0,1,2.705,9.344c1.131,10.463-.852,20.684-2.775,30.578l-.87,4.531a63.8,63.8,0,0,0-1.421,14.006c.191,4.659,1.405,8.681,3.345,11.049,1.1,1.346,3.5,2.642,4.239,2.395-.078-.435-.1-3.567-.113-5.436a34.6,34.6,0,0,1,.363-6.826,48.961,48.961,0,0,1,4.247-11.538c3-6.156,7.251-13.721,13.531-17.71a32.406,32.406,0,0,1,8.594-3.517c.932-.275,1.854-.543,2.778-.861a43.622,43.622,0,0,0,15.286-9.136l.637-.65c-.027-.064-.107-.8-.156-1.273a84.479,84.479,0,0,1,4.424-37.289,9.075,9.075,0,0,0,.438-1.41,4.119,4.119,0,0,1-1.061-2c-.9-3.232.363-6.8,3.288-9.3a10.277,10.277,0,0,0,.959-.9l-.218-.248a34.092,34.092,0,0,0-6.942-5.754,55.894,55.894,0,0,1-5.609-4.25,64.348,64.348,0,0,1-4.682-4.829c-1.279-1.423-2.555-2.847-3.922-4.1a50.428,50.428,0,0,0-8.674-6.052l-9.193-5.506a35.812,35.812,0,0,0-8.126-4.009c-4.621-1.326-9.685-.281-14.558.713a15.68,15.68,0,0,0-4.913,1.567,19.139,19.139,0,0,0-1.706,1.229,24.708,24.708,0,0,1-2.332,1.661,13.045,13.045,0,0,1-3.981,1.577c.177.375.352.767.527,1.145l3.713,8.266-1,1.979C210-48.41,207.77-43.071,209.079-39A14.783,14.783,0,0,0,212-34.387a24.733,24.733,0,0,1,3.809,5.771,34.48,34.48,0,0,1,1.241,3.56c.465,1.514.954,3.085,1.523,3.587a8.491,8.491,0,0,1,2.708,2.612C222.793-16.368,222.725-13.133,221.229-9.985Zm9.687,89.452c-3.6.208-7.414-2.753-9.024-4.712-3.1-3.8-4.951-9.6-5.225-16.307a72.665,72.665,0,0,1,1.582-16.22l.892-4.605c1.789-9.177,3.635-18.645,2.66-27.64A14.437,14.437,0,0,0,220.31,4.3c-.244-.4-.521-.754-.792-1.119A15.062,15.062,0,0,1,217.627.136a24.135,24.135,0,0,1-1.179-3.563c-.164-.586-.392-1.407-.588-1.929l-7.114-.271,5.735-6.584a7.389,7.389,0,0,0,1.271-1.976c-.481-.345-.733-.536-.97-.74-2.168-1.9-3.071-4.84-3.793-7.211a23.6,23.6,0,0,0-.9-2.6,17.905,17.905,0,0,0-2.705-3.979,21.694,21.694,0,0,1-4.336-7.241c-2.1-6.564.073-13.269,2.858-19.174l-1.816-4.049a26.139,26.139,0,0,0-1.4-2.85,6.882,6.882,0,0,0-3.635-3.064l-.938-.2,1.123-7.793c.253.037.508.08.755.141l.011-.2,3.315.861c3.135.462,5.29.208,7.038-.841a18.582,18.582,0,0,0,1.709-1.232,24.211,24.211,0,0,1,2.326-1.654,20.413,20.413,0,0,1,6.686-2.274c5.29-1.082,11.243-2.294,17.107-.64a40.115,40.115,0,0,1,9.486,4.592l9.139,5.469a56.6,56.6,0,0,1,9.76,6.846c1.51,1.383,2.936,2.954,4.368,4.538a56.456,56.456,0,0,0,4.169,4.314,48.622,48.622,0,0,0,4.981,3.744,39.769,39.769,0,0,1,8.237,6.933,9.167,9.167,0,0,1,2.343,5.349c.322,4.448-2.789,7.09-3.954,8.085l-.537.549a8.42,8.42,0,0,1,.8,1.782c.865,2.874-.134,5.6-.672,7.063a74.616,74.616,0,0,0-3.893,32.912,12.979,12.979,0,0,1-.236,5.285,9.109,9.109,0,0,1-2.877,4.263,49.692,49.692,0,0,1-17.478,10.449c-.986.328-1.98.623-2.977.918a27.94,27.94,0,0,0-7.119,2.833c-4.793,3.048-8.331,9.431-10.875,14.669a40.33,40.33,0,0,0-3.5,9.357,32.61,32.61,0,0,0-.156,4.729c.03,4.133.064,8.028-1.531,10.69a5.921,5.921,0,0,1-4.478,3Z" transform="translate(225.251 322.463)" fill="#5699b6"/>
      <path id="Path_548" data-name="Path 548" d="M185.558-77.923a6.913,6.913,0,0,1,3.538.683c2.1,1.028,3.514,2.964,4.755,4.675l.647.874a55.849,55.849,0,0,0,5.11,5.6c3.785,3.788,7.7,7.7,9.819,14.02.33.978.6,1.993.87,3.008.223.827.438,1.661.7,2.462a36.046,36.046,0,0,0,2.826,5.931L228.56-14.022c1.263,2.294,2.7,4.9,4.382,6.035.29.191.591.362.895.529a9.577,9.577,0,0,1,3.5,2.924A14.665,14.665,0,0,1,239.292.4a12.163,12.163,0,0,0,.677,2.157c.728,1.393,2.754,1.427,5.531,1.309a34.425,34.425,0,0,1,21.574,6.641l.895.954a18.05,18.05,0,0,0,3.688,4.233,10.971,10.971,0,0,1,2.028-2.927l.553-.529-4.3-10.593C265.079,1.4,261.422-4.41,259.9-6.835a15.653,15.653,0,0,1-2.748-6.966,11.418,11.418,0,0,1,2.321-8.212,9.505,9.505,0,0,1,7.863-3.818,14.447,14.447,0,0,1,5.15,1.631,14.309,14.309,0,0,1,.846-2.83,17.928,17.928,0,0,1,5.225-6.715,49.329,49.329,0,0,1,9.15-6.226l.811-.486a4.912,4.912,0,0,1,.008-1.711,9.566,9.566,0,0,1,7.815-8.081,19.335,19.335,0,0,1,3.409-.124,12.1,12.1,0,0,0,2.858-.151c2.536-.62,5.032-3.848,7.038-6.437L316.1-65.3l-8.078-14.642c-4.3-7.773-8.623-14.9-14.265-16.8a9.849,9.849,0,0,0-9.472,2.076l-.328,6.946a9.63,9.63,0,0,1-.9,4.066,6.033,6.033,0,0,1-3.769,3.064c-4.919,1.574-8.881.975-11.82-1.778a13.166,13.166,0,0,1-3.568-9.344,13.7,13.7,0,0,1,.36-3.175,10.155,10.155,0,0,1-1.212-7.171,17.06,17.06,0,0,1,2.689-5.982l.76-1.263.33-.633a61.812,61.812,0,0,0-15.93,1.587,81.834,81.834,0,0,0-9.158,3.282c-7.014,2.82-14.268,5.734-21.857,4.076-.725-.167-1.472-.362-2.235-.563-3.8-1-6.364-1.517-7.643.378l-.989,1.44-1.521,0a101.645,101.645,0,0,0-28.242,4.257A165.463,165.463,0,0,0,164.6-71.734l.078.084a8.591,8.591,0,0,0,1.451,1.393c.629.375,1.574.368,3.087,0a24.231,24.231,0,0,0,7.683-3.47l.989-.677C180-75.864,182.679-77.719,185.558-77.923ZM276.869,27.9l-4.505-2.823a19.6,19.6,0,0,1-2.3-1.279,23.875,23.875,0,0,1-6.807-6.8,28.653,28.653,0,0,0-17.4-5.285c-3.627.147-8.634.345-11.32-4.819a17.932,17.932,0,0,1-1.362-3.985,9.15,9.15,0,0,0-.747-2.257,4.7,4.7,0,0,0-1.392-.971c-.443-.244-.881-.5-1.308-.784-2.979-2.023-4.93-5.563-6.493-8.41l-14.692-26.6a43.022,43.022,0,0,1-3.444-7.361c-.325-.961-.591-1.976-.86-2.991-.223-.827-.438-1.661-.7-2.462-1.534-4.578-4.7-7.75-8.057-11.112a60.7,60.7,0,0,1-5.711-6.3l-.72-.978a9.421,9.421,0,0,0-2.485-2.733c-1.343-.663-3.568.864-5.709,2.344l-1.056.723a30.409,30.409,0,0,1-9.547,4.3,9.063,9.063,0,0,1-7.084-.626,12.793,12.793,0,0,1-2.815-2.519l-1.76-1.49-2.455-1.959,1.553-3.185a175.117,175.117,0,0,1,17.677-29.007l.669-.884.954-.291a107.9,107.9,0,0,1,29.362-4.766c3.855-4.016,8.989-2.679,12.838-1.665.693.174,1.367.358,2.028.5,6.007,1.333,12.167-1.169,18.7-3.8a87.387,87.387,0,0,1,9.8-3.5c6.9-1.825,13.792-1.792,20.454-1.755l1.808.01.878,1.879c1.649,3.563.489,7.877-1.15,10.734-.3.519-.626,1.032-.948,1.551a10.746,10.746,0,0,0-1.5,2.917l12.075-3.738L270.639-93.44a2.36,2.36,0,0,0-.355,1.49,5.161,5.161,0,0,0,1.174,3.4c1.3,1.226,3.393,1.4,6.214.512l.4-10.345,1.064-1.109c4.669-4.86,10.813-6.618,16.481-4.706,7.678,2.576,12.779,10.834,17.754,19.824l8.167,14.733a8.617,8.617,0,0,1,1.268,4.87,8.21,8.21,0,0,1-1.9,4.531l-6.622,8.557c-2.509,3.252-5.948,7.69-10.539,8.825a15.116,15.116,0,0,1-4.3.295A14.674,14.674,0,0,0,297-42.5a2.524,2.524,0,0,0-2.176,1.708,13.481,13.481,0,0,1-.7,3.865,7.542,7.542,0,0,1-3.989,4.123,43.6,43.6,0,0,0-7.973,5.422,10.634,10.634,0,0,0-3.13,3.771,4.076,4.076,0,0,0-.124,3.078l6.748,10.021-10.243-3.734a29.56,29.56,0,0,1-3.9-1.859,13.665,13.665,0,0,0-4.785-1.912,3.382,3.382,0,0,0-2.654,1.323,2.278,2.278,0,0,0-.551,1.735,8.708,8.708,0,0,0,1.5,3.252c3.406,5.412,5.107,5.667,5.881,5.4l2.617-1.055,10.74,26.421-5.848-.653-.658.362a3.6,3.6,0,0,0-.895,2.143l-.148.991Z" transform="translate(154.454 233.434)" fill="#5699b6"/>
      <path id="Path_549" data-name="Path 549" d="M216.315-109.137c1.749.569,3.511,1.082,5.276,1.591,6.009,1.738,12.231,3.543,17.9,7.69l.846.626a9.73,9.73,0,0,0,3.081,1.862,8.068,8.068,0,0,0,1.346.134,8.624,8.624,0,0,1,4.169,1.011c3.436,2.026,4.441,6.306,5.247,9.753.231.988.454,1.966.744,2.82,1.2,3.56,3.554,5.272,6.735,6.749,3.868,1.815,7.366-.807,12.685-5.335,1.451-1.242,2.893-2.465,4.322-3.51,1.537-1.119,3.165-2.1,4.79-3.081a34.916,34.916,0,0,0,6.711-4.762A123.278,123.278,0,0,0,256.831-117.8c-14.974,2.545-31.122,5.687-41.524,8.323C215.643-109.365,215.984-109.248,216.315-109.137Zm48.441,40.558a11.027,11.027,0,0,1-5.529-1.072c-3.86-1.8-8.091-4.508-10.251-10.932-.371-1.1-.666-2.351-.967-3.624-.516-2.21-1.048-4.491-1.983-5.044a4.6,4.6,0,0,0-1.692-.258,13.51,13.51,0,0,1-2.294-.271,14.17,14.17,0,0,1-5.2-2.874l-.768-.573c-4.838-3.55-10.324-5.141-16.129-6.822-1.824-.529-3.656-1.062-5.456-1.648v-.01a87.42,87.42,0,0,1-11.4-4.675l-7.122-3.533,7.28-3.587c8.777-4.324,46.254-10.811,53.7-12.064l.841-.147.779.378a129.99,129.99,0,0,1,38.41,28.494l2.168,2.321-1.754,2.864c-2.952,4.829-7.124,7.335-11.154,9.759-1.469.881-2.944,1.765-4.336,2.773-1.295.951-2.6,2.06-3.922,3.188C274.226-72.722,269.788-68.934,264.756-68.579Z" transform="translate(221.625 214.474)" fill="#5699b6"/>
      <path id="Path_550" data-name="Path 550" d="M200.381-71.5c-.672-.144-1.349-.278-2.009-.435a9.487,9.487,0,0,1,6.474,4.716A29.542,29.542,0,0,1,206.5-63.9q1.35,3.009,2.694,6.018c-2.651,5.251-5.424,11.822-3.562,17.64,1.421,4.424,5.08,6.658,6.891,10.8,1.252,2.864,1.671,6.688,3.715,8.47.672.583,1.486.908,1.993,1.748,1.311,2.174-.4,5.318-1.985,7.144,2.334.084,2.568,4.739,3.8,7.489A33.993,33.993,0,0,0,222.5-.877a18.742,18.742,0,0,1,2.1,7.509c1.214,11.273-1.529,22.583-3.6,33.679A67.481,67.481,0,0,0,219.5,55.425c.21,5.1,1.542,10.3,4.285,13.671,1.727,2.117,6.874,5.469,8.833,2.2,1.572-2.622.422-10.513,1.144-13.989a44.251,44.251,0,0,1,3.874-10.453c3.2-6.561,7.03-12.9,12.2-16.186,3.38-2.147,7.124-2.85,10.738-4.063a46.971,46.971,0,0,0,16.376-9.8,5.357,5.357,0,0,0,1.738-2.4,8.84,8.84,0,0,0,.059-3.376A79.372,79.372,0,0,1,282.9-24.03a6.639,6.639,0,0,0,.583-4.036c-.255-.854-.852-1.443-1.088-2.3-.521-1.865.814-3.671,2.044-4.719s2.7-2.438,2.557-4.428a5.06,5.06,0,0,0-1.375-2.86c-3.791-4.468-8.712-6.618-12.889-10.345-3-2.683-5.6-6.159-8.572-8.9a54.461,54.461,0,0,0-9.239-6.457q-4.578-2.738-9.142-5.473a38.158,38.158,0,0,0-8.809-4.307c-5.185-1.467-10.563-.4-15.809.677a17.815,17.815,0,0,0-5.824,1.926c-1.386.844-2.646,2.053-4.032,2.887-2.783,1.678-5.838,1.688-8.879,1.222l-.107.723A15.5,15.5,0,0,1,200.381-71.5Z" transform="translate(225.679 325.225)" fill="#c7d04a"/>
      <path id="Path_551" data-name="Path 551" d="M161.982-69.487c1.563.948,3.382.73,5.088.308a27.072,27.072,0,0,0,8.607-3.882c3.033-2.036,6.367-4.806,9.491-3.282,1.73.847,2.977,2.87,4.3,4.622,4.763,6.306,11.557,10.2,14.348,18.521.6,1.778.975,3.687,1.569,5.469a39.7,39.7,0,0,0,3.146,6.661q7.334,13.273,14.7,26.606c1.537,2.787,3.159,5.667,5.437,7.214,1.209.821,2.614,1.266,3.546,2.609,1.249,1.782,1.322,4.639,2.369,6.658,1.792,3.453,5.48,3.188,8.575,3.061a31.659,31.659,0,0,1,19.589,6.142,20.523,20.523,0,0,0,6.192,6.367,15.5,15.5,0,0,0,1.94,1.085l.108-.723c.247-3.443,2.606-6.461,5.118-6.179q-3.461-8.535-6.92-17.054c-3.616,1.467-6.944-2.807-9.386-6.692a11.785,11.785,0,0,1-2.13-5.1c-.459-4.488,3.417-7.837,6.692-7.556s6.2,2.763,9.373,3.925c-1.281-1.906-1.177-5.04-.223-7.318a14.151,14.151,0,0,1,4.183-5.245,46.609,46.609,0,0,1,8.556-5.824,4.246,4.246,0,0,0,2.31-2.15A15.352,15.352,0,0,0,289-44.181a5.945,5.945,0,0,1,5-4.9,16.171,16.171,0,0,1,2.931-.094,13.268,13.268,0,0,0,3.584-.224c3.452-.851,6.222-4.314,8.785-7.629q3.308-4.275,6.622-8.557a4.082,4.082,0,0,0,1.016-2.137,4.387,4.387,0,0,0-.747-2.408q-4.078-7.38-8.161-14.736c-4.293-7.76-9.112-16-16.014-18.32-4.591-1.547-9.7-.077-13.5,3.888q-.205,4.381-.414,8.761a5.486,5.486,0,0,1-.406,2.18,2.81,2.81,0,0,1-1.832,1.313c-3.057.985-6.5,1.279-9.059-1.122s-3.366-8.353-.833-10.922c-1.711.533-2.96-2.539-2.5-4.863s1.88-4.022,2.974-5.918,1.886-4.612.951-6.615c-6.6-.04-13.257-.074-19.753,1.665-9.977,2.673-19.81,9.518-29.757,7.328-4.459-.985-9.808-3.383-12.951,1.2a104.166,104.166,0,0,0-29.953,4.665,170.306,170.306,0,0,0-17.26,28.34,12.616,12.616,0,0,1,1.354,1A17.2,17.2,0,0,0,161.982-69.487Z" transform="translate(157.122 236.137)" fill="#c7d04a"/>
      <path id="Path_552" data-name="Path 552" d="M210.119-108.2c7.578,2.482,15.522,3.858,22.386,8.889,1.593,1.162,3.154,2.535,4.938,2.961,1.582.372,3.288-.02,4.76.844,3.011,1.768,3.259,7.04,4.468,10.623,1.655,4.907,4.887,7.15,8.494,8.838,7.393,3.46,13.655-4.675,19.836-9.163,4.978-3.617,11.017-5.744,14.528-11.484a126.974,126.974,0,0,0-37.5-27.841c-16.924,2.864-45.889,8.346-52.927,11.816A83.434,83.434,0,0,0,210.119-108.2Z" transform="translate(226.905 217.246)" fill="#aaf1f1"/>
      <path id="Path_553" data-name="Path 553" d="M161.982-69.487c1.563.948,3.382.73,5.088.308a27.072,27.072,0,0,0,8.607-3.882c3.033-2.036,6.367-4.806,9.488-3.282,1.733.847,2.979,2.87,4.3,4.622,2.576,3.413,5.735,6.136,8.545,9.22,11.052,7.358,33.556,15.637,51.2,5.225,17.177-10.138,48.422-14.646,67.606-11.166a5.712,5.712,0,0,0-.631-1.685q-4.078-7.38-8.161-14.736c-4.293-7.76-9.112-16-16.014-18.32-4.591-1.547-9.7-.077-13.5,3.888q-.205,4.381-.414,8.761a5.486,5.486,0,0,1-.406,2.18,2.8,2.8,0,0,1-1.832,1.313c-3.057.985-6.5,1.279-9.059-1.122s-3.366-8.353-.833-10.922c-1.711.533-2.96-2.539-2.5-4.863s1.88-4.022,2.974-5.918,1.886-4.612.951-6.615c-6.6-.04-13.257-.074-19.753,1.665-9.977,2.673-19.81,9.518-29.757,7.328-4.459-.985-9.808-3.383-12.951,1.2a104.166,104.166,0,0,0-29.953,4.665,170.306,170.306,0,0,0-17.26,28.34,12.616,12.616,0,0,1,1.354,1A17.2,17.2,0,0,0,161.982-69.487Z" transform="translate(157.122 236.137)" fill="#aaf1f1"/>
      <path id="Path_554" data-name="Path 554" d="M148.832-78.41v0Zm0-.285c0-.037,0-.08,0-.117C148.835-78.772,148.835-78.735,148.832-78.695Zm0-.288v0Zm0-.285c0-.04,0-.08,0-.121C148.835-79.348,148.835-79.308,148.835-79.267Zm0-.288v0Zm0-.291v0Zm0-.285v0Zm0-.288v0Zm0-.295v0Zm0-.295c0-.03,0-.057,0-.087C148.853-81.066,148.851-81.039,148.851-81.009Zm.005-.295v-.08Zm.005-.315v-.047Zm.005-.322v-.01Z" transform="translate(142.135 317.278)" fill="#de8e8e"/>
      <path id="Path_555" data-name="Path 555" d="M270.975,177.648c-68.659-9.12-122.143-81.562-122.143-169.58V7.5c0-.04,0-.077,0-.117V6.925c0-.04,0-.08,0-.121V6.52c0-.06,0-.114,0-.174V6.235c0-.057,0-.114,0-.174V5.944c0-.054,0-.117,0-.171V5.662c0-.06,0-.121,0-.184v-.1c0-.064,0-.131,0-.194,0-.03,0-.057,0-.087,0-.07,0-.137,0-.208v-.08c0-.077,0-.157.005-.234V4.527c0-.09,0-.181.005-.275v-.01c.011-.589.021-1.172.038-1.758,1.23-47.672,18.163-90.387,44.549-120.408.236-.241.475-.479.715-.717q1.527,8.093,3.651,16.106-4.259.944-8.511,2.241l-.954.291-.669.884a175.119,175.119,0,0,0-17.677,29.007l-1.553,3.185,2.455,1.959,1.76,1.49a15.494,15.494,0,0,0,2.235,2.133A180.369,180.369,0,0,0,157.383,17.22c0,72.094,40.178,132.489,94.142,148.273q.56,4.094,1.187,8.118a112.072,112.072,0,0,0,18.251,4A.2.2,0,0,0,270.975,177.648Zm30.609-.181q-2.406-4.667-4.688-9.475,4.122-.728,8.159-1.8c1.58,1.892,5.161,4.665,8.615,4.665q.181,0,.363-.01l.269-.027a5.921,5.921,0,0,0,4.478-3c1.107-1.845,1.429-4.284,1.512-6.983A117.214,117.214,0,0,0,354.06,137.9l-.54,18.256A118.434,118.434,0,0,1,301.583,177.467Zm20.054-29.094a55.848,55.848,0,0,1,2.332-5.332c2.544-5.238,6.082-11.622,10.875-14.669a27.94,27.94,0,0,1,7.119-2.833c1-.295,1.991-.589,2.977-.918a49.692,49.692,0,0,0,17.478-10.449,9.109,9.109,0,0,0,2.877-4.263,12.979,12.979,0,0,0,.236-5.285,74.616,74.616,0,0,1,3.893-32.912c.537-1.467,1.537-4.19.672-7.063a8.419,8.419,0,0,0-.8-1.782l.537-.549c1.166-.995,4.277-3.637,3.954-8.085a9.167,9.167,0,0,0-2.343-5.349,28.449,28.449,0,0,0-3.355-3.316,121.7,121.7,0,0,0,21.4-2.807A195.069,195.069,0,0,1,378.933,101a170.946,170.946,0,0,0,22.939-61.715,119,119,0,0,0,15.484-6.517C412.18,72.689,395.672,111.7,374.24,137.612H354.358q1.261-1.221,2.5-2.485A111.193,111.193,0,0,1,321.637,148.373Zm52.949-10.761h-.011a157.222,157.222,0,0,0,10.883-12.978A157.1,157.1,0,0,1,374.586,137.612Z" transform="translate(142.135 231.085)" fill="#5e5e72"/>
      <path id="Path_556" data-name="Path 556" d="M215.6,55.677c-3.455,0-7.036-2.773-8.615-4.665q2.1-.558,4.177-1.2a8.35,8.35,0,0,0,4.476,1.815,2.688,2.688,0,0,0,2.45-1.37,7.877,7.877,0,0,0,.779-3.185q1.688-.678,3.355-1.413c-.083,2.7-.406,5.138-1.512,6.983a5.921,5.921,0,0,1-4.478,3l-.269.027Q215.782,55.677,215.6,55.677Zm4.245-21.85a51.09,51.09,0,0,1,3.261-8.014c3.2-6.561,7.03-12.9,12.2-16.186,3.38-2.147,7.124-2.85,10.738-4.063a46.971,46.971,0,0,0,16.376-9.8,5.356,5.356,0,0,0,1.738-2.4,8.841,8.841,0,0,0,.059-3.376,79.372,79.372,0,0,1,4.161-35.062,6.639,6.639,0,0,0,.583-4.036c-.255-.854-.852-1.443-1.088-2.3-.521-1.865.814-3.671,2.044-4.719s2.7-2.438,2.557-4.428a5.06,5.06,0,0,0-1.375-2.86A35.257,35.257,0,0,0,263.88-69.5c.279,0,.561,0,.841,0,1.773,0,3.535-.04,5.3-.114a28.452,28.452,0,0,1,3.355,3.316,9.167,9.167,0,0,1,2.343,5.349c.322,4.448-2.789,7.09-3.954,8.085l-.537.549a8.42,8.42,0,0,1,.8,1.782c.865,2.874-.134,5.6-.672,7.063a74.616,74.616,0,0,0-3.893,32.912,12.979,12.979,0,0,1-.236,5.285,9.109,9.109,0,0,1-2.877,4.263A49.692,49.692,0,0,1,246.87,9.442c-.986.328-1.98.623-2.977.918a27.94,27.94,0,0,0-7.119,2.833c-4.793,3.048-8.331,9.431-10.875,14.669a55.841,55.841,0,0,0-2.332,5.332Q221.714,33.546,219.845,33.827Z" transform="translate(240.204 346.264)" fill="#4a5666"/>
      <path id="Path_557" data-name="Path 557" d="M162.587-72.641a15.494,15.494,0,0,1-2.235-2.133l-1.76-1.49-2.455-1.959,1.553-3.185a175.118,175.118,0,0,1,17.677-29.007l.669-.884.954-.291q4.247-1.3,8.511-2.241c.325,1.222.658,2.438,1,3.657q-4.449.965-8.854,2.311a170.3,170.3,0,0,0-17.26,28.34,12.614,12.614,0,0,1,1.354,1A24.391,24.391,0,0,0,164.261-76Q163.406-74.334,162.587-72.641Z" transform="translate(154.454 242.382)" fill="#4a5666"/>
      <path id="Path_558" data-name="Path 558" d="M285.071,114.553a105.6,105.6,0,0,1-11.135-.837c-14.2-34.751-24.328-74.026-31.17-116.955,5.185-2.813,9.107-9.17,10.241-16.947a31.109,31.109,0,0,1,7.842,3.922,24.332,24.332,0,0,0,5.757,6.072l-.1.66.938.2a6.882,6.882,0,0,1,3.635,3.064,26.139,26.139,0,0,1,1.4,2.85L274.3.628c-2.786,5.9-4.956,12.61-2.858,19.174a21.694,21.694,0,0,0,4.336,7.241,17.906,17.906,0,0,1,2.705,3.979,23.593,23.593,0,0,1,.9,2.6C280.1,36,281,38.939,283.172,40.835c.236.2.489.4.97.74a7.389,7.389,0,0,1-1.271,1.976l-5.736,6.584,7.114.271c.2.522.424,1.343.588,1.929a24.134,24.134,0,0,0,1.179,3.563,15.062,15.062,0,0,0,1.891,3.044c.271.365.548.723.792,1.119a14.438,14.438,0,0,1,1.491,5.683c.975,9-.87,18.464-2.66,27.64l-.892,4.605a72.665,72.665,0,0,0-1.582,16.22C285.061,114.325,285.066,114.439,285.071,114.553Zm-51.388-14.445c-44.9-25.48-76.119-81.91-76.119-147.423a198.63,198.63,0,0,1,5.891-48.291,8.355,8.355,0,0,0,1.249.09,13.478,13.478,0,0,0,3.14-.432,30.409,30.409,0,0,0,9.547-4.3l1.056-.723c1.786-1.236,3.632-2.505,4.975-2.505a1.625,1.625,0,0,1,.733.161,9.421,9.421,0,0,1,2.485,2.733l.72.978a60.7,60.7,0,0,0,5.711,6.3c3.353,3.363,6.523,6.534,8.057,11.112.263.8.478,1.634.7,2.462.269,1.015.535,2.03.86,2.991a43.024,43.024,0,0,0,3.444,7.361l14.692,26.6a47.675,47.675,0,0,0,2.56,4.29,29.67,29.67,0,0,0-3.175,13.644c0,11.153,5.636,20.463,13.147,22.667C231.464,33.677,231.265,68.046,233.683,100.108Z" transform="translate(156.861 266.7)" fill="#5e5e72"/>
      <path id="Path_559" data-name="Path 559" d="M219.034,49.146c-.784,0-1.572-.01-2.353-.027-.005-.114-.011-.228-.013-.342a72.665,72.665,0,0,1,1.582-16.22l.892-4.605c1.789-9.177,3.635-18.645,2.66-27.64a14.437,14.437,0,0,0-1.491-5.683c-.244-.4-.521-.754-.792-1.119a15.062,15.062,0,0,1-1.891-3.044,24.135,24.135,0,0,1-1.179-3.563c-.164-.586-.392-1.407-.588-1.929l-7.114-.271,5.735-6.584a7.389,7.389,0,0,0,1.271-1.976c-.481-.345-.733-.536-.97-.74-2.168-1.9-3.071-4.84-3.793-7.211a23.6,23.6,0,0,0-.9-2.6,17.906,17.906,0,0,0-2.705-3.979,21.694,21.694,0,0,1-4.336-7.241c-2.1-6.564.073-13.269,2.858-19.174l-1.816-4.049a26.138,26.138,0,0,0-1.4-2.85,6.882,6.882,0,0,0-3.635-3.064l-.938-.2.1-.66q.516.382,1.05.723a19.6,19.6,0,0,0,2.3,1.279l4.505,2.823-.051-1.966c.32.64.615,1.3.911,1.959q1.35,3.009,2.694,6.018c-2.651,5.251-5.424,11.822-3.562,17.64,1.421,4.424,5.08,6.658,6.891,10.8,1.252,2.864,1.671,6.688,3.715,8.47.672.583,1.486.908,1.993,1.748,1.311,2.174-.4,5.318-1.985,7.144,2.334.084,2.568,4.739,3.8,7.489a33.993,33.993,0,0,0,2.45,3.711,18.742,18.742,0,0,1,2.1,7.509C226.245,11,223.5,22.306,221.431,33.4a67.479,67.479,0,0,0-1.507,15.115c.008.208.019.415.03.623C219.647,49.143,219.341,49.146,219.034,49.146Z" transform="translate(225.251 332.133)" fill="#4a5666"/>
      <path id="Path_560" data-name="Path 560" d="M270.764-2.656l-4.505-2.823a19.6,19.6,0,0,1-2.3-1.279q-.536-.342-1.05-.723a24.332,24.332,0,0,1-5.757-6.072,31.109,31.109,0,0,0-7.842-3.922,32,32,0,0,0,.328-3.979,32.826,32.826,0,0,1,5.9,2.475q2.144,1.623,4.312,3.158a20.245,20.245,0,0,0,5.658,5.556c-.322-.07-.645-.137-.967-.2a7.036,7.036,0,0,0-1.042-.231c.344.08.693.157,1.042.231a9.943,9.943,0,0,1,5.432,4.485c.266.435.51.894.747,1.363Zm-1.709-7.06c-.5-.047-1.007-.111-1.507-.188.016-.238.046-.472.081-.707Q268.343-10.158,269.056-9.716Zm-49.368-26.06a47.68,47.68,0,0,1-2.56-4.29l-14.692-26.6a43.022,43.022,0,0,1-3.444-7.361c-.325-.961-.591-1.976-.86-2.991-.223-.827-.438-1.661-.7-2.462-1.534-4.578-4.7-7.75-8.057-11.112a60.7,60.7,0,0,1-5.711-6.3l-.72-.978a9.421,9.421,0,0,0-2.485-2.733,1.625,1.625,0,0,0-.733-.161c-1.343,0-3.189,1.269-4.975,2.505l-1.056.723a30.409,30.409,0,0,1-9.547,4.3,13.478,13.478,0,0,1-3.14.432,8.355,8.355,0,0,1-1.249-.09q.48-1.9.991-3.788c.126.01.252.013.379.013a10.551,10.551,0,0,0,2.506-.362,27.072,27.072,0,0,0,8.607-3.882c.244-.164.494-.335.741-.506,2.211-1.524,4.553-3.215,6.842-3.215a4.262,4.262,0,0,1,1.9.439c1.733.847,2.979,2.87,4.3,4.622.019.023.038.05.059.074a.619.619,0,0,0,.038.05.072.072,0,0,0,.019.023c2.555,3.346,5.66,6.032,8.43,9.073.024.013.046.03.07.047a25.727,25.727,0,0,1,5.733,9.254c.6,1.778.975,3.687,1.569,5.469a39.7,39.7,0,0,0,3.146,6.661q7.334,13.273,14.7,26.606c.618,1.122,1.249,2.257,1.932,3.316A22.821,22.821,0,0,0,219.688-35.776Z" transform="translate(160.559 263.99)" fill="#4a5666"/>
      <path id="Path_561" data-name="Path 561" d="M230.163,68.012a8.35,8.35,0,0,1-4.476-1.815q3.9-1.216,7.7-2.74a7.877,7.877,0,0,1-.779,3.185A2.688,2.688,0,0,1,230.163,68.012ZM219.525,51.4c-.011-.208-.022-.415-.03-.623A67.481,67.481,0,0,1,221,35.66c2.071-11.1,4.814-22.406,3.6-33.679a18.742,18.742,0,0,0-2.1-7.509,33.993,33.993,0,0,1-2.45-3.711c-1.233-2.75-1.467-7.4-3.8-7.489,1.582-1.825,3.3-4.97,1.985-7.144-.508-.841-1.322-1.166-1.993-1.748-2.044-1.782-2.463-5.606-3.715-8.47-1.811-4.143-5.47-6.377-6.891-10.8-1.862-5.817.911-12.388,3.562-17.64q-1.346-3.009-2.694-6.018c-.3-.66-.591-1.32-.911-1.959-.236-.469-.481-.928-.747-1.363a9.943,9.943,0,0,0-5.432-4.485c.322.067.645.134.967.2a15.5,15.5,0,0,0,1.94,1.085l.107-.723c.5.077,1.007.141,1.507.188,24.194,14.93,49.79,22.325,74.47,22.489a35.257,35.257,0,0,1,7.218,6.089A5.06,5.06,0,0,1,287-44.164c.14,1.989-1.327,3.379-2.557,4.428s-2.566,2.853-2.044,4.719c.236.857.833,1.447,1.088,2.3a6.639,6.639,0,0,1-.583,4.036,79.372,79.372,0,0,0-4.161,35.062,8.84,8.84,0,0,1-.059,3.376,5.357,5.357,0,0,1-1.738,2.4,46.971,46.971,0,0,1-16.376,9.8c-3.613,1.212-7.358,1.916-10.738,4.063-5.169,3.282-9,9.625-12.2,16.186a51.09,51.09,0,0,0-3.261,8.014A104.751,104.751,0,0,1,219.525,51.4ZM199.414-76.356c-.349-.074-.7-.151-1.042-.231A7.035,7.035,0,0,1,199.414-76.356Z" transform="translate(225.679 329.876)" fill="#ae7429"/>
      <path id="Path_562" data-name="Path 562" d="M259.139-9.18a15.5,15.5,0,0,1-1.94-1.085,20.245,20.245,0,0,1-5.658-5.556q3.86,2.738,7.785,5.211c-.035.234-.064.469-.081.707Zm-11.909-9.8a32.826,32.826,0,0,0-5.9-2.475c.005-.228.008-.452.008-.677,0-.509-.011-1.011-.035-1.51Q244.244-21.225,247.23-18.98ZM213.422-39c-.682-1.058-1.314-2.194-1.932-3.316q-7.366-13.328-14.7-26.606a39.7,39.7,0,0,1-3.146-6.661c-.594-1.782-.972-3.691-1.569-5.469a25.727,25.727,0,0,0-5.733-9.254c.895.593,1.867,1.192,2.9,1.788A214.312,214.312,0,0,0,219.8-44.236,16.486,16.486,0,0,0,213.422-39ZM177.843-99.426a.072.072,0,0,1-.019-.023A.072.072,0,0,0,177.843-99.426Zm-.056-.074c-.022-.023-.04-.05-.059-.074Zm-13.107-1.919c2.211-1.524,4.553-3.215,6.842-3.215C169.233-104.634,166.891-102.943,164.68-101.419Z" transform="translate(168.861 263.99)" fill="#ae7429"/>
      <path id="Path_563" data-name="Path 563" d="M200.984-69.476c-1.034-.6-2.007-1.2-2.9-1.788-.024-.017-.046-.033-.07-.047-2.77-3.041-5.875-5.727-8.43-9.073a.072.072,0,0,1-.019-.023.618.618,0,0,1-.038-.05l-.059-.074c-1.322-1.752-2.568-3.774-4.3-4.622a4.262,4.262,0,0,0-1.9-.439c-2.289,0-4.631,1.691-6.842,3.215-.247.171-.5.342-.741.506a27.072,27.072,0,0,1-8.607,3.882,10.55,10.55,0,0,1-2.506.362c-.126,0-.252,0-.379-.013q1.692-6.194,3.764-12.157-3.377,5.431-6.356,11.236a24.388,24.388,0,0,1-2.52-2.522,12.614,12.614,0,0,0-1.354-1,170.306,170.306,0,0,1,17.26-28.34q4.4-1.346,8.854-2.311A228.646,228.646,0,0,0,200.984-69.476Z" transform="translate(157.122 244.947)" fill="#948686"/>
      <path id="Path_564" data-name="Path 564" d="M209.571,70.939a112.076,112.076,0,0,1-18.251-4q-.629-4.029-1.187-8.118a99.817,99.817,0,0,0,17.1,3.426Q208.361,66.628,209.571,70.939Zm-8.344-35.055a114.275,114.275,0,0,1-14.211-6.832c-2.418-32.061-2.219-66.43-.325-102.283a12.082,12.082,0,0,0,1.862.392C190.619-34.543,194.482,2.04,201.227,35.883Z" transform="translate(203.528 337.757)" fill="#533440"/>
      <path id="Path_565" data-name="Path 565" d="M209.117-19.968q-4.332-9.093-8.234-18.661a105.6,105.6,0,0,0,11.135.837c.325,6.564,2.165,12.228,5.212,15.965.016.02.03.04.046.057Q213.246-20.7,209.117-19.968Z" transform="translate(229.914 419.045)" fill="#83818f"/>
      <path id="Path_566" data-name="Path 566" d="M210.285-22.357c-.016-.017-.03-.037-.046-.057-3.046-3.738-4.887-9.4-5.212-15.965.782.017,1.569.027,2.353.027.306,0,.612,0,.919-.007.29,4.9,1.623,9.816,4.255,13.048a10.691,10.691,0,0,0,1.907,1.752Q212.387-22.916,210.285-22.357Z" transform="translate(236.904 419.632)" fill="#677480"/>
      <path id="Path_567" data-name="Path 567" d="M212.657-17.162c.038-1.2.027-2.442.019-3.708a32.609,32.609,0,0,1,.156-4.729A28.7,28.7,0,0,1,214-29.624,111.193,111.193,0,0,0,249.222-42.87q-1.237,1.266-2.5,2.485h-.287l-.011.285A117.214,117.214,0,0,1,212.657-17.162Z" transform="translate(249.77 409.082)" fill="#83818f"/>
      <path id="Path_568" data-name="Path 568" d="M211.408-25.04c.3-3.47-.159-8.292.365-10.8.172-.831.379-1.641.612-2.438q1.87-.281,3.723-.633a28.7,28.7,0,0,0-1.171,4.026,32.612,32.612,0,0,0-.156,4.729c.008,1.266.019,2.512-.019,3.708Q213.1-25.719,211.408-25.04Z" transform="translate(247.663 418.373)" fill="#677480"/>
      <path id="Path_569" data-name="Path 569" d="M212.409-22.744A10.691,10.691,0,0,1,210.5-24.5c-2.633-3.232-3.965-8.148-4.255-13.048a104.751,104.751,0,0,0,14.845-1.182c-.234.8-.441,1.608-.612,2.438-.524,2.512-.067,7.335-.365,10.8Q216.313-23.961,212.409-22.744Z" transform="translate(238.958 418.817)" fill="#cc9e33"/>
      <path id="Path_570" data-name="Path 570" d="M246.157,125.3c-53.965-15.785-94.142-76.18-94.142-148.273a180.369,180.369,0,0,1,17.523-78.564c.185.134.379.265.58.385a7.228,7.228,0,0,0,2.694.968,198.631,198.631,0,0,0-5.891,48.291c0,65.513,31.219,121.942,76.119,147.423Q244.194,110.781,246.157,125.3Z" transform="translate(147.503 271.274)" fill="#83818f"/>
      <path id="Path_571" data-name="Path 571" d="M161.813-97.826a7.228,7.228,0,0,1-2.694-.968c-.2-.121-.395-.251-.58-.385q.818-1.693,1.674-3.356c.126.094.255.184.39.265a4.683,4.683,0,0,0,2.2.656Q162.292-99.73,161.813-97.826Z" transform="translate(158.503 268.92)" fill="#677480"/>
      <path id="Path_572" data-name="Path 572" d="M161.753-93.733a4.682,4.682,0,0,1-2.2-.656c-.134-.08-.263-.171-.39-.265q2.978-5.8,6.356-11.236Q163.446-99.932,161.753-93.733Z" transform="translate(159.554 261.039)" fill="#beb1a6"/>
      <path id="Path_573" data-name="Path 573" d="M206.111-9.5a99.817,99.817,0,0,1-17.1-3.426q-1.979-14.514-3.116-29.771A114.275,114.275,0,0,0,200.11-35.86Q202.794-22.381,206.111-9.5Z" transform="translate(204.645 409.5)" fill="#73484f"/>
      <path id="Path_574" data-name="Path 574" d="M206.705-65.261q-1.314-1.075-2.611-2.184c-.411-9.465-6.7-16.987-14.4-16.987a11.739,11.739,0,0,0-2.877.358q-.814-.889-1.62-1.782a12.314,12.314,0,0,1,4.978-1.062C198.963-86.917,206.152-77.352,206.705-65.261Z" transform="translate(203.463 305.609)" fill="#ae7429"/>
      <path id="Path_575" data-name="Path 575" d="M194.031-47.763c-7.511-2.2-13.147-11.514-13.147-22.667a29.67,29.67,0,0,1,3.175-13.644c.2.3.416.589.634.877A21.707,21.707,0,0,0,182.5-73.136c.091,6.45,2.737,12.074,6.579,15.051a12.877,12.877,0,0,0,5.381,2.656Q194.231-51.581,194.031-47.763Zm9.408-1.065q-.6-3.773-1.169-7.582a16.725,16.725,0,0,0,8.148-10.225,27.582,27.582,0,0,1,3.261.861C212.546-58,208.624-51.641,203.439-48.828Z" transform="translate(196.187 312.288)" fill="#533440"/>
      <path id="Path_576" data-name="Path 576" d="M211.686-63.512a27.583,27.583,0,0,0-3.261-.861,21.527,21.527,0,0,0,.814-3.835q1.4.291,2.775.717A32.007,32.007,0,0,1,211.686-63.512ZM182.7-80.934c-.218-.288-.43-.579-.634-.877a22.82,22.82,0,0,1,2.036-3.225c.212.328.43.65.655.961A16.269,16.269,0,0,0,182.7-80.934Z" transform="translate(198.181 310.026)" fill="#402f38"/>
      <path id="Path_577" data-name="Path 577" d="M210.736-63.819q-1.378-.427-2.775-.717a22.905,22.905,0,0,0,.156-2.666c0-.332-.005-.66-.019-.988q1.3,1.11,2.611,2.184c.024.5.035,1,.035,1.51C210.744-64.271,210.741-64.047,210.736-63.819ZM183.479-80.4c-.226-.311-.443-.633-.655-.961A16.485,16.485,0,0,1,189.2-86.6q.806.894,1.62,1.782a12.109,12.109,0,0,0-2.187.78A11.547,11.547,0,0,0,183.479-80.4Z" transform="translate(199.459 306.354)" fill="#984017"/>
      <path id="Path_578" data-name="Path 578" d="M187.64-67.463a12.083,12.083,0,0,1-1.862-.392q.2-3.823.43-7.666c.338.074.682.134,1.032.177Q187.429-71.39,187.64-67.463Z" transform="translate(204.441 332.38)" fill="#481d24"/>
      <path id="Path_579" data-name="Path 579" d="M211.141,92.8h33.276C217.956,45.961,201.486-11.975,192.282-77.987h-6.1C188.731-15.562,195.541,42.8,211.141,92.8Z" transform="translate(205.125 326.587)" fill="#ef9737"/>
      <path id="Path_580" data-name="Path 580" d="M239.082,82.913c-23.358-45.009-38.23-99.449-46.8-160.9h-6.1q.625,15.368,1.631,30.37C200.793,1.351,217.593,45.241,239.082,82.913Z" transform="translate(205.125 326.587)" fill="#ffc35c"/>
      <path id="Path_581" data-name="Path 581" d="M252.328-11.7a145.055,145.055,0,0,0-15.541-.841c-32.057,0-58.432,10.088-61.755,23.045h31.087C208.883-.278,227.64-9.057,252.328-11.7Z" transform="translate(186.319 480.324)" fill="#ef9737"/>
      <path id="Path_582" data-name="Path 582" d="M222.2-22.831v-.295c0-2.971,1.934-5.382,4.317-5.382H198.208c-2.385,0-4.317,2.411-4.317,5.382v.295c0,2.974,1.932,5.385,4.317,5.385H226.52C224.137-17.446,222.2-19.857,222.2-22.831Z" transform="translate(218.122 442.82)" fill="#ef9737"/>
      <path id="Path_583" data-name="Path 583" d="M192.715-75.08c-.14-.971-.3-1.929-.433-2.907h-6.1C188.731-15.562,195.541,42.8,211.141,92.8h21.311C211.5,43.654,198.423-13.717,189.182-75.08Z" transform="translate(205.125 326.587)" fill="#ef9737"/>
      <path id="Path_584" data-name="Path 584" d="M210.342-68.2c0-9.927-6.455-17.975-14.418-17.975S181.5-78.127,181.5-68.2s6.455,17.978,14.421,17.978S210.342-58.27,210.342-68.2Z" transform="translate(197.233 307.352)" fill="#ffc35c"/>
      <path id="Path_585" data-name="Path 585" d="M206.635-68.67c-.142-9.558-5.881-17.305-12.828-17.305s-12.462,7.747-12.32,17.305,5.881,17.308,12.825,17.308S206.775-59.108,206.635-68.67Z" transform="translate(197.201 307.822)" fill="#ef9737"/>
      <path id="Path_586" data-name="Path 586" d="M190.337-67.776c-3.412,0-6.179-3.453-6.179-7.706s2.767-7.71,6.179-7.71,6.184,3.45,6.184,7.71S193.754-67.776,190.337-67.776Z" transform="translate(201.709 314.36)" fill="#d0531d"/>
      <path id="Path_587" data-name="Path 587" d="M338.484,42.589v-.044Zm.005-.3v-.054Zm0-.3c0-.023,0-.044,0-.067C338.494,41.946,338.492,41.966,338.492,41.989Zm.005-.311v-.057Zm0-.328a.128.128,0,0,0,0-.03C338.5,41.329,338.5,41.339,338.5,41.349Zm.008-.636v-.077Zm0-.295v0Zm0-.291v0Zm0-.3v0Zm0-.295v0Zm0-.315v0Zm-139.924-170.9h.011Zm.175,0c.013,0,.032,0,.048,0C198.794-131.694,198.788-131.691,198.767-131.691Zm.2-.007h.067Zm.21,0c.024,0,.046,0,.07,0C199.218-131.7,199.2-131.7,199.172-131.7Zm.2-.007h0Zm.21,0h0Zm.21,0h0Zm.212,0h0Zm.21,0h0Zm.22,0h0Zm.21,0c.038,0,.073,0,.113,0C200.717-131.728,200.682-131.724,200.644-131.724Zm.215,0h0Zm.215,0h0Zm.21,0h0Zm.218,0h0Z" transform="translate(226.05 200.335)" fill="#edc2c2"/>
      <path id="Path_588" data-name="Path 588" d="M357.489,155.384c19-25.3,31.888-57.813,35.734-93.9q-1.9,1.05-3.836,2.033a200.78,200.78,0,0,0,1.7-25.785c0-94.191-59.453-166.1-135.008-166.1-32.24,0-66.4,17.134-89.884,40.471-.005-.027-.011-.05-.016-.077-.234.265-.467.529-.7.794-.021.02-.046.044-.067.067,23.611-26.9,54.8-43.623,89.121-44.58h.011c.051,0,.107,0,.164,0,.021,0,.027,0,.048,0,.048,0,.1,0,.148,0h.067c.048,0,.094,0,.142,0,.024,0,.046,0,.07,0,.046,0,.089,0,.132,0h.086c.04,0,.083,0,.124,0h.091c.035,0,.078,0,.118,0h.1c.04,0,.075,0,.113,0h.1c.04,0,.078,0,.113,0h.1c.04,0,.075,0,.116,0h.21c.038,0,.073,0,.113,0h.441a.763.763,0,0,1,.086,0h.433c75.552,0,136.8,76.36,136.8,170.548v.713c0,.057,0,.117,0,.178v.419c0,.06,0,.127,0,.188v.1c0,.074,0,.144,0,.218v.077c0,.2-.005.405-.005.606a.126.126,0,0,1,0,.03c0,.087,0,.184,0,.271v.057c0,.08,0,.164,0,.245,0,.023,0,.044,0,.067,0,.08,0,.164,0,.244v.054c0,.084,0,.171-.005.258v.044C393.67,86.191,379.773,125.748,357.489,155.384Z" transform="translate(170.104 200.335)" fill="#66819c"/>
      <path id="Path_589" data-name="Path 589" d="M346.565,137.666h-.336c21.432-25.912,37.94-64.923,43.117-104.842q1.934-.98,3.836-2.033c-3.847,36.084-16.734,68.6-35.734,93.9A157.218,157.218,0,0,1,346.565,137.666ZM165.442-117.87c.231-.265.465-.529.7-.794.005.027.011.05.016.077C165.917-118.349,165.678-118.111,165.442-117.87Z" transform="translate(170.146 231.031)" fill="#584857"/>
      <path id="Path_590" data-name="Path 590" d="M354.223,60.863q.085-2.979.086-5.992c0-48.693-17.239-92.363-44.53-122.043,4.7-.673,8.868-4.23,12.419-7.271,1.324-1.129,2.627-2.237,3.922-3.188,1.392-1.008,2.866-1.892,4.336-2.773.9-.543,1.811-1.092,2.713-1.668,22.265,27.587,36.046,65.8,36.046,108.023A189.027,189.027,0,0,1,366.6,57.39,119.141,119.141,0,0,1,354.223,60.863ZM292.078-83.364a120.737,120.737,0,0,0-22.034-13.4,36.573,36.573,0,0,1,10.251,5.03l.768.573a14.17,14.17,0,0,0,5.2,2.874,13.511,13.511,0,0,0,2.294.271,4.6,4.6,0,0,1,1.692.258C291.092-87.263,291.606-85.357,292.078-83.364ZM169.745-91.958c21.059-21.485,47.974-34.389,77.312-34.389a99.841,99.841,0,0,1,33.892,5.938c-13.1,2.539-28.3,5.848-33.478,8.4l-7.28,3.587,7.122,3.533q.717.352,1.437.693a105.7,105.7,0,0,0-24.3-2.83A108.421,108.421,0,0,0,169.745-91.958Z" transform="translate(177.403 212.983)" fill="#97c8d9"/>
      <path id="Path_591" data-name="Path 591" d="M265.557-71.336q-1.958-2.13-3.989-4.166a8.279,8.279,0,0,0,2.506.392c5.862,0,11.063-6.263,16.207-10,2.007-1.46,4.185-2.676,6.3-3.982.8.938,1.588,1.892,2.364,2.853-.9.576-1.811,1.125-2.713,1.668-1.469.881-2.944,1.765-4.336,2.773-1.295.951-2.6,2.06-3.922,3.188C274.424-75.566,270.26-72.009,265.557-71.336ZM252.211-84.063c-1.429-1.189-2.885-2.348-4.355-3.466-.473-1.993-.986-3.9-1.829-4.394a4.6,4.6,0,0,0-1.692-.258,13.509,13.509,0,0,1-2.294-.271,14.17,14.17,0,0,1-5.2-2.874l-.768-.573a36.573,36.573,0,0,0-10.251-5.03,109.744,109.744,0,0,0-21.3-7.432q-.721-.342-1.437-.693l-7.122-3.533,7.28-3.587c5.182-2.552,20.374-5.861,33.478-8.4q3.337,1.2,6.6,2.626c-15.724,2.924-33.612,6.7-38.942,9.331A83.433,83.433,0,0,0,215.4-108.1c7.578,2.482,15.522,3.858,22.386,8.889,1.593,1.162,3.154,2.535,4.938,2.961,1.582.372,3.288-.02,4.76.844,3.011,1.768,3.259,7.04,4.467,10.623C252.033-84.535,252.119-84.294,252.211-84.063Z" transform="translate(221.625 217.148)" fill="#77beca"/>
      <path id="Path_592" data-name="Path 592" d="M258.794-76.952a8.279,8.279,0,0,1-2.506-.392q-4.517-4.531-9.357-8.56c-.091-.231-.177-.472-.261-.72-1.209-3.584-1.456-8.855-4.468-10.623-1.472-.864-3.178-.472-4.76-.844-1.784-.425-3.345-1.8-4.938-2.961-6.864-5.03-14.807-6.407-22.386-8.889a83.433,83.433,0,0,1-11.02-4.518c5.33-2.629,23.219-6.407,38.942-9.331,16.271,7.124,30.966,18.417,43.262,32.858-2.117,1.306-4.3,2.522-6.3,3.982C269.856-83.215,264.655-76.952,258.794-76.952Z" transform="translate(226.905 218.989)" fill="#cbf6f5"/>
      <path id="Path_593" data-name="Path 593" d="M234.486-9.771a195.069,195.069,0,0,0,10.558-58.242,119.148,119.148,0,0,0,12.382-3.473A170.945,170.945,0,0,1,234.486-9.771Z" transform="translate(286.582 341.859)" fill="#83818f"/>
      <path id="Path_594" data-name="Path 594" d="M192.226-77.258c0-2.957-1.421-5.355-3.173-5.355s-3.173,2.4-3.173,5.355S187.3-71.9,189.054-71.9,192.226-74.3,192.226-77.258Z" transform="translate(204.614 315.72)" fill="#ffc35c"/>
      <path id="Path_595" data-name="Path 595" d="M296.158-42.128H238.918L230.835,92.31h61.282Z" transform="translate(280.425 410.825)" fill="#c63c7b"/>
      <path id="Path_596" data-name="Path 596" d="M251.2-42.128H227.734L223.747,92.31h26.128Z" transform="translate(268.472 410.825)" fill="#ef568e"/>
      <path id="Path_597" data-name="Path 597" d="M238.732,48.847H225.824l3.812-82.473h11.6Z" transform="translate(271.974 430.798)" fill="#ff94b6"/>
      <path id="Path_598" data-name="Path 598" d="M302.271-37.57H245.035L243.818,81.6h61.277Z" transform="translate(302.319 421.532)" fill="#f4ac3b"/>
      <path id="Path_599" data-name="Path 599" d="M259.131-37.57H235.657L238.537,81.6h26.128Z" transform="translate(288.557 421.532)" fill="#ffc35c"/>
      <path id="Path_600" data-name="Path 600" d="M316.775-47.912H248.508L261.953,105.9h66.73Z" transform="translate(310.229 397.238)" fill="#f9e27d"/>
      <path id="Path_601" data-name="Path 601" d="M291.389-46.582,258.252,99.454H301.9Z" transform="translate(326.661 400.362)" fill="#f6d362"/>
      <path id="Path_602" data-name="Path 602" d="M257.68-47.912H244.57L256.538,105.9h16.006Z" transform="translate(303.588 397.238)" fill="#ffeca1"/>
      <path id="Path_603" data-name="Path 603" d="M134.937,57.326h0c2.678,0,4.019-8.735,4.019-17.469,0-1.9-.064-3.8-.191-5.61.126,1.809.191,3.711.191,5.61C138.956,48.591,137.615,57.326,134.937,57.326Zm3.742-24.177c-.518-6-1.765-10.761-3.742-10.761C136.914,22.388,138.16,27.147,138.679,33.149ZM123.173-28.4h0Zm-.013-.007h0Zm-.011-.007h-.005Zm-.013,0s0,0-.005,0S123.133-28.415,123.135-28.415Zm-.013-.007h0Zm-.013-.007h0Zm-.011,0h-.005Zm-.013,0,0,0Zm-.013-.007h0Zm-.046-.013h-.005Zm-.013,0h-.005Zm-.013,0h-.005Zm-.013,0h-.005Zm-.011,0h-.008Zm-.013,0s-.005,0-.005,0S122.958-28.469,122.961-28.469Zm-.013,0h-.005Zm-.013,0s0,0-.005,0S122.931-28.472,122.934-28.472Zm-.013,0h-.005Zm-.011,0H122.9Zm-.013,0a.009.009,0,0,0-.008,0A.009.009,0,0,1,122.9-28.476Zm-.013,0h-.008Zm-.013,0h-.013Z" transform="translate(16.692 442.889)" fill="#e3b9a3"/>
      <path id="Path_604" data-name="Path 604" d="M70.9,6.319c1.306-7.988.193-21.421-2.88-31.1,21.067,1.112,36.336,5.04,36.336,15.637C104.358.967,90.467,5,70.9,6.319Z" transform="translate(5.857 451.576)" fill="#d0a179"/>
      <path id="Path_605" data-name="Path 605" d="M116.378,15.366H73.289l.263-.787a21.086,21.086,0,0,0,.6-2.455c.035-.178.064-.358.094-.543C93.813,10.265,107.7,6.229,107.7-3.882c0-10.6-15.27-14.525-36.336-15.637-.035-.111-.07-.221-.1-.328-.344-1.065-.717-2.076-1.107-3.031l-.019-.05c-.363-.884-.752-1.695-1.155-2.465l-.118-.248c-.274-.509-.575-.931-.868-1.38h43.955C115.884-16.967,118.31,5.9,116.378,15.366Z" transform="translate(2.511 446.314)" fill="#c29066"/>
      <path id="Path_606" data-name="Path 606" d="M110.5,22.388H90.792c2.316-9.532-1.365-42.484-5.8-50.867h20.113a.009.009,0,0,1,.008,0h.032s0,0,.005,0h.021s0,0,.005,0h.013s0,0,.005,0h.005a.009.009,0,0,1,.008,0h.005a.009.009,0,0,1,.008,0h.005a.009.009,0,0,1,.008,0h.005a.009.009,0,0,1,.008,0l.035.01h0s.005,0,.011,0l0,0a.009.009,0,0,1,.008,0h.005s.005,0,.008,0h0s.008,0,.011.007h0s.005,0,.008,0,0,0,.005,0,.005,0,.008,0h.005s.005,0,.008.007h0s.008,0,.011.007h0s.008,0,.011.007C109.589-26.215,113.624,16.651,110.5,22.388ZM97.277-17.082a133.5,133.5,0,0,1,2.587,28.716h7.807c2.566,0-.021-28.716-2.587-28.716Z" transform="translate(34.475 442.889)" fill="#753773"/>
      <path id="Path_607" data-name="Path 607" d="M124.141,22.388H70.8A3.082,3.082,0,0,1,70,20.911c-.263-1.169.269-2.12,1.185-2.12h46.582c1.932-9.465-.494-32.333-4.427-42.387H67.423c-.916,0-1.875-1.1-2.138-2.442s.269-2.442,1.185-2.442h51.872C122.776-20.1,126.456,12.856,124.141,22.388Z" transform="translate(1.126 442.889)" fill="#8f4887"/>
      <path id="Path_608" data-name="Path 608" d="M99.959,3.64H92.152a133.5,133.5,0,0,0-2.587-28.716h7.807C99.937-25.076,102.524,3.64,99.959,3.64Z" transform="translate(42.187 450.883)" fill="#aa4d7c"/>
      <path id="Path_609" data-name="Path 609" d="M88.5,18.65v-4.4H83.045c2.391-2.488,3.586-6.9,3.586-11.3s-1.2-8.812-3.584-11.3H88.5v-4.407C93.036-6.79,93.036,12.675,88.5,18.65Z" transform="translate(31.192 479.803)" fill="#6a3333"/>
      <path id="Path_610" data-name="Path 610" d="M96.463,5.876H66.211a26.389,26.389,0,0,0,1.174-15.949H96.463C107.439-10.073,107.439,5.876,96.463,5.876Z" transform="translate(2.803 486.127)" fill="#d0a179"/>
      <path id="Path_611" data-name="Path 611" d="M113.031,11.154H66.666l.4-.61.126-.214c.215-.385.422-.79.615-1.222H98.06c10.977,0,10.977-15.949,0-15.949H68.982a16.875,16.875,0,0,0-.658-2l-.091-.224a12.851,12.851,0,0,0-.771-1.517l-.212-.355-.408-.516h46.193c2.388,2.488,3.584,6.893,3.584,11.3S115.422,8.666,113.031,11.154Z" transform="translate(1.206 482.894)" fill="#c29066"/>
      <path id="Path_612" data-name="Path 612" d="M119.531-7.122H66.308c-.916,0-1.663-1.383-1.663-3.085s.747-3.085,1.663-3.085h50.212a3.816,3.816,0,0,1,3.011,1.762Z" transform="translate(0.162 478.567)" fill="#6a3333"/>
      <path id="Path_613" data-name="Path 613" d="M116.518,1.466H66.306c-.916,0-1.66-1.38-1.66-3.085S65.39-4.7,66.306-4.7h53.223V-.3A3.816,3.816,0,0,1,116.518,1.466Z" transform="translate(0.163 498.749)" fill="#6a3333"/>
      <path id="Path_614" data-name="Path 614" d="M118.9,21.647H83.955a3.816,3.816,0,0,0,3.011-1.762c4.535-5.975,4.535-25.44,0-31.415a3.816,3.816,0,0,0-3.011-1.762H118.9c1.977,0,3.224,4.759,3.742,10.761H112.326l10.4,1.1c.126,1.809.191,3.711.191,5.61C122.921,12.913,121.581,21.647,118.9,21.647Z" transform="translate(32.726 478.567)" fill="#582629"/>
      <path id="Path_615" data-name="Path 615" d="M330.256-85.212H80.321l48.8,267.345,257.33-11.983Z" transform="translate(26.598 309.615)" fill="#fff5e6"/>
      <path id="Path_616" data-name="Path 616" d="M88.085-85.212H80.321L121.915,189.97l16.452-1.845Z" transform="translate(26.598 309.615)" fill="#ecd8b1"/>
      <path id="Path_617" data-name="Path 617" d="M362.1-10.078H94.516L268.931,8.285,487.437,4.829Z" transform="translate(50.536 486.115)" fill="#f6ebd5"/>
      <path id="Path_618" data-name="Path 618" d="M157.531,3.014h223.5V-5.627h-223.5Z" transform="translate(156.805 496.571)" fill="#ecd8b1"/>
      <path id="Path_619" data-name="Path 619" d="M268.152,5.423,94.565-10.479l3.328,24.891H268.152Z" transform="translate(50.619 485.173)" fill="#d8c6a2"/>
      <path id="Path_620" data-name="Path 620" d="M315.532-80.456H86.922l40.6,228.807H365.341Z" transform="translate(37.73 320.787)" fill="#81c4d8"/>
      <path id="Path_621" data-name="Path 621" d="M262.813-80.456H198.251L109.774,148.351H213.585Z" transform="translate(76.267 320.787)" fill="#8fd1e2"/>
      <path id="Path_622" data-name="Path 622" d="M295.11-42.531H251.961l1.773,17.694h43.149Z" transform="translate(316.052 409.878)" fill="#fff2bf"/>
      <path id="Path_623" data-name="Path 623" d="M82.428-118.726,135.67-20V-126.442Z" transform="translate(30.151 212.759)" fill="#d983ef"/>
      <path id="Path_624" data-name="Path 624" d="M66.022-140.5c0-1.953,1.62-1.819,2.754-1.819a39.6,39.6,0,0,0,5.942-.539c1.512-.2,1.512.944,1.3,3.031-.11,1.011-.11,7.07-.11,13.4V-111.2c0,5.724.379,19.864.379,16.836,0,.807-.322,1.075-.865,1.075a2.647,2.647,0,0,1-.647-.064,3.156,3.156,0,0,0-.862-.07c-1.19,0-2.971.271-4.161.271-1.459,0-1.945-.74-2.592-2.492-.758-1.819-2.163-5.928-3.782-9.364-.809-1.681-2.267-5.117-3.565-8.148l-2.377-5.59v2.562c0,1.547-.054,3.165,0,4.712,0,3.031.054,14.143.325,15.962a4.844,4.844,0,0,1,.054.811c0,1.008-.379,1.008-1.026.941a34.6,34.6,0,0,0-4.215.405c-1.136.2-1.3-.271-1.244-2.425,0-2.09-.269-11.518-.43-19.67,0-5.724.269-13.2.269-18.179,0-1.956-.054-3.574-.161-4.515-.056-.61-.107-1.078-.107-1.551,0-1.882.647-2.157,1.4-2.087a7.906,7.906,0,0,0,3.186-.405,4.722,4.722,0,0,1,1.187-.134c.6,0,.919.134,2.485.134,2.27,0,3.406,3.7,4.43,5.858.489,1.149,1.083,2.287,1.566,3.165l.811,1.551v-3.7C65.966-137.267,65.966-139.49,66.022-140.5Z" transform="translate(-23.026 174.137)" fill="#fff"/>
      <path id="Path_625" data-name="Path 625" d="M65.256-116.411c0,1.547.218,2.224.218,3.771l.054,8.018c0,1.142-.054,2.354-.054,3.366-.054.61-.054,1.145-.054,1.685.7.064,1.4.064,2.052.064,1.134.07,2.485.07,3.511.07,2,0,3.782.134,5.725.134s3.785-.2,5.244-.2,2.861.137,3.457.137.591.338.591,1.078c0,.606-.1,1.346-.1,2.087,0,.606-.325.811-1.136.811a5.049,5.049,0,0,1-.972-.07c-.972-.134-3.4-.2-5.889-.2-1.351,0-2.7,0-3.89.067-.919.067-1.945.067-3.025.067-2.864,0-5.942-.134-7.079-.134-1.08,0-1.241-.4-1.241-1.008,0-.338.054-.673.054-1.082l.054-.6c0-.472-.107-.877-.107-3.838,0-4.109-.269-9.364-.269-13.879s.43-11.176.43-13.939c0-2.7,0-7.81-.161-10.305s2.592-1.35,4.269-1.35,6.157-.4,9.075-.4c2.81,0,8.266.2,9.4.2s.916,1.078.916,1.822v.74c0,.673,0,1.547-.215,1.547-.594,0-.7-.2-1.73-.2H75.738l-6.7-.07a24.021,24.021,0,0,0-2.431.208l-1.244.131-.107,1.822c-.054,1.011-.054,2.153-.054,3.162,0,1.889.218,3.637.218,5.188v2.7c0,.536,0,1.075.054,1.681a10.632,10.632,0,0,0,1.459.067h2.16c.919,0,2.055-.271,3.729-.271,1.727,0,3.565.271,4.212.271s1.512-.2,2.81-.2c.972,0,2.646.2,3.729.2a2.88,2.88,0,0,0,.809-.067l.325-.067a.706.706,0,0,1,.65.874c-.056.338-.056,1.886-.11,2.428-.054.6,0,.737-.811.737-.755,0-5.4-.737-7.455-.737-2,0-4.591,0-6.751.2a16.953,16.953,0,0,1-3.189.137,11.028,11.028,0,0,1-1.512-.067l-.164,1.078C65.312-117.958,65.256-117.151,65.256-116.411Z" transform="translate(-3.633 176.042)" fill="#fff"/>
      <path id="Path_626" data-name="Path 626" d="M85.868-138.916c.271-2.154,1.026-2.964,1.891-2.964.811,0,2-.271,3.132-.271,1.4,0,3.457-.064,4.647.472.54.2.755.673.755,1.417A6.219,6.219,0,0,1,95.7-137.9c-.7,1.882-3.132,10.644-3.726,12.6-.7,1.953-2.324,6.326-2.324,7.676,0,1.413.7,2.287,1.62,3.7.865,1.551,7.508,15.356,8.32,16.635a2.786,2.786,0,0,1,.594,1.48c0,.271-.161.472-.594.472-.7,0-2.646.137-3.242.137s-.862-1.889-1.566-3.436c-.862-1.413-3.189-6.4-4.051-8.219s-2.485-5.181-2.917-5.181c-.379,0-.54,1.41-1.026,3.229-.594,1.685-3.189,11.045-3.619,12.459-.379,1.078-.919,1.417-1.784,1.417a2.59,2.59,0,0,1-.7-.07c-1.187,0-6.05-.134-7.237-.134-.432,0-.594-.335-.594-.807a7.773,7.773,0,0,1,.54-2.421c.432-1.283,2.592-6.939,3.457-9.5s2.646-8.691,3.079-10.1a44.042,44.042,0,0,0,1.674-5.653c0-1.011-.322-1.149-1.026-2.425-.7-1.212-2.971-5.66-3.565-7.144a58.668,58.668,0,0,0-3.186-6.8,2.265,2.265,0,0,1-.325-1.015.63.63,0,0,1,.647-.673c.594-.067,1.3.07,2.216.07s1.4.74,1.891,1.815c.43.948,2.267,5.66,2.864,6.538s1.62,3.905,2.052,3.905C83.816-129.351,85.6-136.759,85.868-138.916Z" transform="translate(13.999 175.85)" fill="#fff"/>
      <path id="Path_627" data-name="Path 627" d="M106.355-114.736c0,5.59.865,15.49.865,18.112.164,2.629-1.566,2.09-4.752,2.09-3.242,0-11.13-.268-12.21-.268-.433,0-.54-.539-.54-1.35,0-1.145.215-2.827.215-4.511-.054-.874-.107-3.165-.107-6.126,0-7.006.161-17.784.486-22.567.107-1.752.107-3.3.107-4.712,0-2.09-.054-3.838-.161-4.983a7.226,7.226,0,0,0-.972-.07c-.865,0-3.89.134-4.484.134-.381,0-.432-.469-.432-1.078,0-.472.051-.938.051-1.48,0-.74.218-.877.6-.877.325,0,.758.137,1.3.137l11.506-.064c3.025,0,12.642-.2,13.94-.2,1.134.064.862,1.008.862,2.154.054,1.279-.433,1.547-1.295,1.547s-2.055.137-4.594.067h-.215C106.519-134,106.355-119.385,106.355-114.736Z" transform="translate(33.426 174.91)" fill="#fff"/>
      <path id="Path_628" data-name="Path 628" d="M130.566-95.674l.054.338c0,.469-.379.539-1.244.539-1.026,0-8.752-.2-10.644-.2-1.566,0-6.643.409-8.8.409-.433,0-.758-.07-.919-.07a6.782,6.782,0,0,0-1.244-.067c-1.349,0-3.186.137-4.1.137-1.19,0-.919-.472-.919-1.752,0-1.082.325-10.51.325-12.06,0-1.346-.271-5.921-.271-8.145,0,3.232.647-11.183.647-13.135l-.051-7.609c0-.61-.11-3.369-.11-4.314v-.067c0-.8.865-.469,1.351-.469s.809.067,2.052.067h.486c.215,0,.325.064.325.536,0,.61-.379,12.194-.379,14.147l-.054,9.632c0,1.075.107,4.24.107,6.263a14.363,14.363,0,0,1-.054,1.748,8.718,8.718,0,0,0,0,1.212l.054.338,1.3.134a19.135,19.135,0,0,0,2.864.07c1.942,0,7.995-.137,9.993-.137,2.052,0,7.4.271,8.212.271.486.064.594.2.594.4l-.107.74v3.1C130.026-102.138,130.566-96.411,130.566-95.674Z" transform="translate(64.365 175.712)" fill="#fff"/>
      <path id="Path_629" data-name="Path 629" d="M116.766-116.411c0,1.547.218,2.224.218,3.771l.054,8.018c0,1.142-.054,2.354-.054,3.366-.056.61-.056,1.145-.056,1.685.7.064,1.408.064,2.055.064,1.134.07,2.482.07,3.511.07,2,0,3.78.134,5.727.134s3.78-.2,5.238-.2,2.864.137,3.457.137.6.338.6,1.078c0,.606-.11,1.346-.11,2.087,0,.606-.322.811-1.134.811a5.1,5.1,0,0,1-.975-.07c-.97-.134-3.4-.2-5.886-.2-1.351,0-2.7,0-3.89.067-.919.067-1.945.067-3.025.067-2.866,0-5.942-.134-7.076-.134-1.08,0-1.244-.4-1.244-1.008,0-.338.054-.673.054-1.082l.054-.6c0-.472-.107-.877-.107-3.838,0-4.109-.269-9.364-.269-13.879s.433-11.176.433-13.939c0-2.7,0-7.81-.164-10.305s2.592-1.35,4.269-1.35,6.157-.4,9.075-.4c2.81,0,8.266.2,9.4.2s.919,1.078.919,1.822v.74c0,.673,0,1.547-.215,1.547-.6,0-.7-.2-1.727-.2h-8.647l-6.7-.07a23.954,23.954,0,0,0-2.431.208l-1.241.131-.11,1.822c-.056,1.011-.056,2.153-.056,3.162,0,1.889.218,3.637.218,5.188v2.7c0,.536,0,1.075.056,1.681a10.593,10.593,0,0,0,1.459.067h2.16c.919,0,2.052-.271,3.726-.271,1.73,0,3.57.271,4.215.271s1.515-.2,2.81-.2c.972,0,2.646.2,3.729.2a2.92,2.92,0,0,0,.811-.067l.322-.067a.7.7,0,0,1,.647.874c-.054.338-.054,1.886-.107,2.428-.054.6,0,.737-.809.737-.758,0-5.405-.737-7.457-.737-2,0-4.591,0-6.754.2a16.916,16.916,0,0,1-3.186.137,11.009,11.009,0,0,1-1.512-.067l-.161,1.078C116.82-117.958,116.766-117.151,116.766-116.411Z" transform="translate(83.234 176.042)" fill="#fff"/>
      <path id="Path_630" data-name="Path 630" d="M126.313-142.233c.975,0,.811.673.975,1.145a40.319,40.319,0,0,1,1.026,4.85c.594,3.3,3.4,13.135,4.1,16.839.7,3.771,1.515,6.464,2.541,10.305.484,1.953.862,3.3,1.134,4.176a11.769,11.769,0,0,0,.433,1.209c.269-1.075,1.674-6.059,2.431-8.082.811-1.886,2.969-10.171,3.672-13,.919-2.964,3.189-9.7,3.619-11.116.486-1.343,1.3-4.779,1.569-5.59.161-.807.432-.807.862-.6a3.047,3.047,0,0,0,1.354.131l.322.208-.218.67A41.248,41.248,0,0,1,148.3-135.9c-.865,1.886-4.755,16.3-5.244,18.323-.645,1.953-3.562,12.526-4.266,14.813-.758,2.361-1.891,6.333-2.05,6.872-.164.74-.271.807-.7.807-.489,0-.432-.2-.6-.539-.107-.332-2.157-8.617-2.754-10.778l-3.672-12.931c-.6-2.221-2.705-11.176-3.135-12.6-.432-1.276-1.459-6.862-1.889-8.617a4.339,4.339,0,0,1-.218-1.209c0-.476.218-.409.486-.476Z" transform="translate(99.882 175.664)" fill="#fff"/>
      <path id="Path_631" data-name="Path 631" d="M137.518-116.411c0,1.547.212,2.224.212,3.771l.059,8.018c0,1.142-.059,2.354-.059,3.366-.051.61-.051,1.145-.051,1.685.7.064,1.4.064,2.052.064,1.134.07,2.485.07,3.511.07,2,0,3.78.134,5.727.134s3.782-.2,5.238-.2,2.864.137,3.457.137.6.338.6,1.078c0,.606-.107,1.346-.107,2.087,0,.606-.325.811-1.136.811a5.1,5.1,0,0,1-.975-.07c-.97-.134-3.4-.2-5.886-.2-1.351,0-2.7,0-3.887.067-.921.067-1.948.067-3.028.067-2.866,0-5.942-.134-7.076-.134-1.08,0-1.244-.4-1.244-1.008,0-.338.054-.673.054-1.082l.054-.6c0-.472-.107-.877-.107-3.838,0-4.109-.269-9.364-.269-13.879s.432-11.176.432-13.939c0-2.7,0-7.81-.164-10.305s2.6-1.35,4.269-1.35,6.157-.4,9.075-.4c2.813,0,8.266.2,9.4.2s.921,1.078.921,1.822v.74c0,.673,0,1.547-.218,1.547-.594,0-.7-.2-1.727-.2h-8.648l-6.7-.07a23.9,23.9,0,0,0-2.428.208l-1.244.131-.107,1.822c-.059,1.011-.059,2.153-.059,3.162,0,1.889.22,3.637.22,5.188v2.7c0,.536,0,1.075.051,1.681a10.672,10.672,0,0,0,1.461.067h2.16c.921,0,2.052-.271,3.726-.271,1.733,0,3.57.271,4.218.271s1.512-.2,2.81-.2c.97,0,2.643.2,3.726.2a2.92,2.92,0,0,0,.811-.067l.322-.067a.7.7,0,0,1,.647.874c-.054.338-.054,1.886-.107,2.428-.051.6,0,.737-.809.737-.758,0-5.405-.737-7.457-.737-2,0-4.594,0-6.751.2a16.954,16.954,0,0,1-3.189.137,10.969,10.969,0,0,1-1.51-.067l-.164,1.078C137.571-117.958,137.518-117.151,137.518-116.411Z" transform="translate(118.225 176.042)" fill="#fff"/>
      <path id="Path_632" data-name="Path 632" d="M173.227-95.674l.054.338c0,.469-.376.539-1.241.539-1.026,0-8.752-.2-10.641-.2-1.569,0-6.646.409-8.806.409-.433,0-.758-.07-.921-.07a6.751,6.751,0,0,0-1.241-.067c-1.351,0-3.189.137-4.1.137-1.19,0-.919-.472-.919-1.752,0-1.082.325-10.51.325-12.06,0-1.346-.271-5.921-.271-8.145,0,3.232.647-11.183.647-13.135l-.054-7.609c0-.61-.107-3.369-.107-4.314v-.067c0-.8.862-.469,1.351-.469s.811.067,2.052.067h.484c.218,0,.325.064.325.536,0,.61-.376,12.194-.376,14.147l-.056,9.632c0,1.075.107,4.24.107,6.263a15.108,15.108,0,0,1-.051,1.748,8.311,8.311,0,0,0,0,1.212l.051.338,1.3.134A19.109,19.109,0,0,0,154-108c1.945,0,8-.137,9.993-.137,2.055,0,7.4.271,8.215.271.484.064.594.2.594.4l-.11.74v3.1C172.687-102.138,173.227-96.411,173.227-95.674Z" transform="translate(136.314 175.712)" fill="#fff"/>
      <path id="Path_633" data-name="Path 633" d="M238.034-32.7H227.178l.177-5.888h10.778Z" transform="translate(274.258 419.148)" fill="#ff94b6"/>
      <path id="Path_634" data-name="Path 634" d="M255.556,62.687H246.07V59.317h.137l-5.787-.69-2.861-91.9h13.48Z" transform="translate(291.766 431.627)" fill="#fff07c"/>
      <path id="Path_635" data-name="Path 635" d="M244.411-5.143h-5.765l-.021-.69Z" transform="translate(293.562 496.087)" fill="#fffae3"/>
      <path id="Path_636" data-name="Path 636" d="M244.261-2.258h-5.523l-.1-3.369h5.628Z" transform="translate(293.576 496.571)" fill="#fff5cd"/>
      <path id="Path_637" data-name="Path 637" d="M250.167-47.912l11.2,149.241L249.025,105.9h16.006Z" transform="translate(311.101 397.238)" fill="#f6d362"/>
      <path id="Path_639" data-name="Path 639" d="M311.535-75.472l48.723,223.823h5.083L315.532-80.456H86.922l.884,4.984Z" transform="translate(37.73 320.787)" fill="#61abbc"/>
      <path id="Path_640" data-name="Path 640" d="M313.142-56.064H94.67l12.973,73.112H329.056Z" transform="translate(50.796 378.087)" fill="#fff"/>
      <path id="Path_641" data-name="Path 641" d="M106.49-11.838,106-11.892l-.344-.348a4.859,4.859,0,0,1-.013-.851c-.016-.683-.688-2.445-.948-3.758s-3.057-16.277-3.2-17.811c-.129-1.028-.6-3.584-1.021-5.69-.228-1.142-.433-2.167-.575-2.676-.129-.455-.312-1.37-.516-2.395-.433-2.157-.9-4.893-.919-5.576-.051-.455.124-.569.322-.569l.827.174c.911,0,2.042.111,2.942.057h.239c.634,0,.631.569.744,1.132.134.687.312,1.772.672,3.363.078.4.247,1.253.465,2.334.537,2.673,1.332,6.658,1.537,8.48.089.623.183,1.31.32,2s.3,1.3.416,1.872l.467,1.936.438-.968a18.232,18.232,0,0,1,.809-1.708c.529-.908,2.214-4.776,2.59-5.694a59.391,59.391,0,0,1,2.523-5.8c.728-1.708,2.391-5.288,2.531-5.972.18-.687.373-.914.637-.968a7.228,7.228,0,0,1,1.112,0l.357.4-.1.509c-.142.285-1.306,2.79-1.792,3.53-.446.74-2.778,7.117-3,7.968-.185.452-.943,2.22-1.725,3.872l-1.5,3.185c.645.854,1.268,1.6,1.854,2.334,1.013,1.31,2.157,2.673,2.77,3.356,1.225,1.366,5.977,7.686,6.912,8.6s3.452,4.381,3.911,4.9l.21.449c.056.288-.188.459-.586.459-.513,0-4.363.171-5.077.171-.674,0-1.085-.281-1.749-1.025-.639-.623-4.467-6.089-5.561-7.395-.6-.626-1.757-2.053-2.772-3.363l-1.894-2.331c.172.854.344,1.708.449,2.448.223,1.306.5,2.9.65,3.641.161.8.451,2.448.747,3.929a23.144,23.144,0,0,0,.664,2.733l.121.4c.113.569-.164.569-.443.569h-1.585C108.438-12.006,107.242-11.838,106.49-11.838Z" transform="translate(57.173 388.654)" fill="#c66add"/>
      <path id="Path_642" data-name="Path 642" d="M118.79-30.734c.787,3.925,2.584,12.121,2.925,13.832.33,1.648,1.069,4.551,1.252,5.459l.024.117c.158.794-.177.908-.575.908-.432,0-1.655.228-2.606.228s-2.754.117-3.823.117-1.161-.854-1.426-1.594a15.522,15.522,0,0,1-.664-2.505c-.124-.626-.271-1.37-.424-2.334-.647-3.245-1.926-10.017-2.238-12.579-.427-2.733-1.808-12.405-2.265-14.686s-.9-4.495-1.222-6.715c-.183-1.306.287-1.537.8-1.537.4,0,.817.114,1.053.114.634,0,2.249-.054,3.358-.054a2.076,2.076,0,0,1,2.171,1.135c.5.911,2.45,4.726,3.981,7.626,1.52,2.847,5.644,10.989,7.143,13.718.758,1.423,2.026,3.587,3.1,5.58l1.921,3.473-.739-3.306-1.273-5.573q-.173-.854-.341-1.711c-.489-2.448-.905-4.719-1.185-6.313-.376-1.882-1.3-6.092-1.717-8.2L125.085-51c-.137-.687.107-.854.424-.854a3.587,3.587,0,0,1,.825.167,3.431,3.431,0,0,0,1.41.117c.435,0,.548.167.618.509.056.285.056.683.148,1.139.215,1.082,2.566,13.437,3.159,16.394.1.509.167,1.021.29,1.648.661,3.306,1.854,8.085,2.286,10.245.5,2.505,1.975,8.882,2.192,9.964l.021.111c.2,1.025-.18,1.082-.548,1.025l-.486-.057a11.736,11.736,0,0,1-1.338.057c-.446-.057-.486-.057-1.139-1.135-.521-1.028-4.271-8.879-5.48-11.159-1.287-2.277-5.773-11.042-7.14-13.715-.7-1.31-1.811-3.3-2.775-4.95l-1.741-2.961,1.2,5.406C117.643-36.086,118.393-32.727,118.79-30.734Z" transform="translate(72.785 387.576)" fill="#c66add"/>
      <path id="Path_643" data-name="Path 643" d="M130.617-30.209c-.58-2.9-1.813-5.687-2.963-5.687-1.464,0-1.228,3.754-.739,6.2.454,2.274,1.177,5.292,2.762,5.292C131.221-24.4,131.187-27.362,130.617-30.209Zm6.872-.512c1.649,8.252,1.617,20.778-4.6,20.778-8.717,0-12.476-15.426-13.706-21.575-3.277-16.387,1.563-20.319,5.05-20.319C132.828-51.838,135.826-39.028,137.489-30.722Z" transform="translate(90.291 388.015)" fill="#c66add"/>
      <path id="Path_644" data-name="Path 644" d="M137.281-32.851c.11-1.021.011-4.5,0-6.149-.038-1.762.253-7.455.293-8.822.091-1.135.32-3.761.758-3.761s.416.117.747.975c.29.851.516,1.192.876,2.385.556,1.2,2.445,5.295,3.312,7.063l1.993,3.811,1.166,2.274.059-.509.11-1.423c.038-1.2-.384-3.7-.392-5.921-.067-1.936.244-5.121.089-6.487-.2-1.594.116-1.993.553-1.993a4.612,4.612,0,0,1,1.381-.224l.527.05c.357,0,.51.174.578.519l.059.683c-.083.965.035,2.157-.048,3.925-.04,1.762.14,8.822.1,10.811.073,1.939.519,6.548.631,7.117a12.284,12.284,0,0,1,.107,3.3c-.113,1.825.787,11.273.7,11.843.051.854.234,1.762-.043,1.762-.435,0-.626-.338-1.075-1.192-.427-.569-2.171-4.327-2.727-5.523-.532-1.085-2.418-5.345-2.993-6.658-.333-.854-.9-2.107-1.445-3.245l-.975-2.107-.236,1.594c-.107.854-.253,2.9-.435,5.352-.089,2.331.18,9.217.175,9.786.011.857-.156,1.993-.435,1.993-.438,0-.669-.569-.911-1.192-.29-.455-2.45-6.889-3.194-8.426s-2.058-4.95-2.694-6.544c-.669-1.366-4.387-11.042-5.241-13.149-.87-2.16-2.77-7.288-3.358-8.651a6.5,6.5,0,0,1-.387-1.142l.223-.281h1.228a5.036,5.036,0,0,0,.94-.054l.414-.114c.548-.231.752.4,1.15,1.591.623,1.537,2.684,6.886,4.656,10.982.895,2.107,1.757,4.046,2.5,5.583l1.177,2.505.011-.744Z" transform="translate(101.788 388.496)" fill="#c66add"/>
      <path id="Path_645" data-name="Path 645" d="M160.523-14.482h.081c.435,0,.344.338.424.737.038.4.341,1.31.478,1.993.145.74-.406.569-1.037.569-.674,0-4.739-.509-6.125-.509-1.346,0-9.249.509-9.924.509s-.989-.569-1.1-1.139c-.091-.452-.419-2.1-.889-4.438-.406-2.05-3.288-17.248-3.654-19.067s-3.009-13.259-3.328-14.86c-.145-.737.005-.965.32-.965.4,0,.983.345,1.5.345a15.64,15.64,0,0,0,2.7.224,10.563,10.563,0,0,0,1.988-.171c1.526-.288,1.2,1.249,1.475,2.622.193.968,1.279,7.566,1.776,10.068s2.463,11.725,2.678,12.814c.207,1.018.97,5.231,1.166,6.2.043.228.1.683.185,1.139.1.509.244,1.025.36,1.594l.475,1.993,5.727.281Z" transform="translate(119.47 388.454)" fill="#c66add"/>
      <path id="Path_646" data-name="Path 646" d="M146.695-33.585c-.878-4.381-1.158-4.783-1.84-8.2s-1.273-6.772-1.555-8.37c-.215-1.078.067-1.253.505-1.253l.6.057c.6,0,1.343.171,3.127.171,1.7,0,4.3-.509,5.84-.509,1.625,0,3.691.221,4.443.221s.935.519,1.15,1.6c.242,1.192.674,2.565,1.026,4.324a15.049,15.049,0,0,1,.3,2.107c.1.687-.1.854-.381.854a5,5,0,0,1-.93-.285,17.8,17.8,0,0,0-3.482-.167c-.991,0-2.044-.114-3.036-.114a6.549,6.549,0,0,0-1.058.057c-.58.057-1.322.114-2.079.114-.948,0-1.87-.057-2.109-.057-.435,0-.341.285-.169,1.135.183.911.578,3.473.975,5.466l.669,3.356c.126.626.239,1.2.406,1.825a6.818,6.818,0,0,0,1.08.054c.688.057,1.676.057,2.788.057,1.464,0,3.2-.228,4.156-.228s1.537.171,1.972.171.572.285.653.683.059.683.274,1.765.357,1.594.642,3.018c.148.744.064.911-.172.911-.161,0-.473-.167-.75-.167-.634,0-1.488-.121-3.984-.121a30.193,30.193,0,0,0-4.586.455,1.213,1.213,0,0,1-.527-.054l-.253-.057,1.139,5.69.427-.054c.274,0,.661-.057,1.1-.057.908,0,2.88-.06,4.661-.06,1.308,0,3.436.117,5.018.117.712,0,1.3-.057,1.655-.057.674,0,.895.509,1.029,1.192.067.342.118.794.191,1.139.226,1.135.424,2.334.755,3.985.317,1.591-.384,1.253-1.649,1.253-1.308,0-5.136-.114-7-.114-1.9,0-5.7.224-6.216.224l-.223.06c-.357,0-.408-.455-.513-.968-.164-.63-.322-1.423-.459-2.107s-.328-1.253-.57-2.448l-1.558-7.8C147.5-28.18,147.568-29.2,146.695-33.585Z" transform="translate(132.68 388.377)" fill="#c66add"/>
      <path id="Path_647" data-name="Path 647" d="M164.747-25.989a9.708,9.708,0,0,0,.682-6.484,10.332,10.332,0,0,0-3.052-5.75,6.832,6.832,0,0,0-2.136-1.363c.164.623.33,1.253.465,1.929.4,2,.672,4.156,1.04,5.982.258,1.3.583,3.128.873,4.779.153.968.36,1.993.553,2.961A5.83,5.83,0,0,0,164.747-25.989ZM157.561-51.6c3.686,0,12.7,3.473,16.392,21.913,3.425,17.131-7.535,17.814-9.042,17.814-1.545,0-4.379.114-5.367.114-.634,0-.932-.908-1.139-1.936-.1-.509-.164-1.021-.255-1.477-.274-1.37-.962-4.21-1.2-5.406-.228-1.142-.983-3.929-1.883-8.426-.887-4.441-1.142-7.288-2.05-11.836-.924-4.612-1.776-8.483-2.015-9.679-.226-1.142,1.534-.854,2.485-.854l1.4-.114C155.71-51.543,156.65-51.6,157.561-51.6Z" transform="translate(145.758 388.574)" fill="#c66add"/>
      <path id="Path_648" data-name="Path 648" d="M172.252-28.017c-.7-.117-.846-.455-.913-.794a15.075,15.075,0,0,1-.126-2.224c.005-1.363.3-1.253.752-1.192.365.057,1.733.338,3.363.569,1.76.285,4.1.908,5.346.968.6.054.895.509,1.115,1.021a3.954,3.954,0,0,1,.234.968c2.429,15.312-2.482,18.5-5.851,18.5-2.5,0-11.482-2.907-14.9-20.038-3.952-19.75,3.508-21.686,6.361-21.686,5.9,0,9.561,7.174,9.873,7.74.322.626.79,1.768,1.048,2.277l.1.285c.064.342-.132.342-.567.74-.543.455-1.743,1.594-2.437,2.107-.623.626-1.22,1.423-1.768,2.053a3.557,3.557,0,0,1-.6.74l-.285.164-.293.121c-.32,0-.484-.63-.8-1.025-.379-.516-1.061-1.936-2.055-1.936-1.741,0-1.555,4.893-.895,8.192.639,3.188,1.569,8.651,4.226,8.651,1.271,0,1.617-1.423,1.652-2.847a12.591,12.591,0,0,0-.293-2.847l-.835-.228C173.195-27.846,172.7-27.957,172.252-28.017Z" transform="translate(161.2 387.815)" fill="#c66add"/>
      <path id="Path_649" data-name="Path 649" d="M171.688-33.585c-.876-4.381-1.152-4.783-1.838-8.2s-1.271-6.772-1.553-8.37c-.215-1.078.067-1.253.5-1.253l.6.057c.6,0,1.343.171,3.127.171,1.7,0,4.3-.509,5.84-.509,1.625,0,3.694.221,4.446.221s.932.519,1.15,1.6c.239,1.192.672,2.565,1.024,4.324a15.822,15.822,0,0,1,.3,2.107c.1.687-.107.854-.381.854a4.969,4.969,0,0,1-.932-.285,17.787,17.787,0,0,0-3.482-.167c-.989,0-2.042-.114-3.036-.114a6.516,6.516,0,0,0-1.056.057c-.583.057-1.324.114-2.079.114-.951,0-1.872-.057-2.111-.057-.435,0-.341.285-.169,1.135.183.911.578,3.473.975,5.466l.672,3.356c.124.626.239,1.2.4,1.825a6.852,6.852,0,0,0,1.083.054c.685.057,1.676.057,2.786.057,1.467,0,3.2-.228,4.156-.228s1.539.171,1.972.171.572.285.653.683.059.683.274,1.765.36,1.594.642,3.018c.148.744.067.911-.172.911a7.367,7.367,0,0,0-.75-.167c-.631,0-1.488-.121-3.984-.121a30.194,30.194,0,0,0-4.586.455,1.22,1.22,0,0,1-.527-.054l-.247-.057,1.136,5.69.424-.054c.277,0,.661-.057,1.1-.057.911,0,2.88-.06,4.664-.06,1.308,0,3.431.117,5.021.117.709,0,1.292-.057,1.649-.057.674,0,.895.509,1.032,1.192.067.342.121.794.188,1.139.228,1.135.427,2.334.758,3.985.317,1.591-.384,1.253-1.652,1.253-1.308,0-5.136-.114-7-.114-1.9,0-5.7.224-6.214.224l-.226.06c-.357,0-.408-.455-.51-.968-.164-.63-.325-1.423-.459-2.107s-.333-1.253-.57-2.448l-1.561-7.8C172.493-28.18,172.566-29.2,171.688-33.585Z" transform="translate(174.837 388.377)" fill="#c66add"/>
      <path id="Path_650" data-name="Path 650" d="M147.111-83.942H122.463l1.109,8.309H148.22Z" transform="translate(97.666 312.598)" fill="#d8c6a2"/>
    </g>
  </g>
</svg>
