<svg xmlns="http://www.w3.org/2000/svg" xmlns:xlink="http://www.w3.org/1999/xlink" width="860.573" height="808.298" viewBox="0 0 860.573 808.298">
  <defs>
    <linearGradient id="linear-gradient" x1="0.221" y1="0.573" x2="0.721" y2="0.431" gradientUnits="objectBoundingBox">
      <stop offset="0" stop-color="#d0f2dc"/>
      <stop offset="1" stop-color="#d9c179"/>
    </linearGradient>
    <filter id="Path_278" x="0" y="536.914" width="860.573" height="271.383" filterUnits="userSpaceOnUse">
      <feOffset dx="5" dy="5" input="SourceAlpha"/>
      <feGaussianBlur stdDeviation="3" result="blur"/>
      <feFlood flood-opacity="0.161"/>
      <feComposite operator="in" in2="blur"/>
      <feComposite in="SourceGraphic"/>
    </filter>
  </defs>
  <g id="svgHomepageMain" transform="translate(56.01 472.451)">
    <g transform="matrix(1, 0, 0, 1, -56.01, -472.45)" filter="url(#Path_278)">
      <path id="Path_278-2" data-name="Path 278" d="M414.8,5.234c229.087,2.891,415.334,42.675,416,88.86s-184.514,81.283-413.6,78.392S1.859,129.811,1.2,83.626,185.712,2.343,414.8,5.234Z" transform="matrix(0.99, -0.1, 0.1, 0.99, 2.28, 622.72)" fill="url(#linear-gradient)"/>
    </g>
    <path id="Path_1" data-name="Path 1" d="M528.4-190.028H233.033L172.958,83.434H468.323Z" transform="translate(77.819 124.001)" fill="#3b2d50"/>
    <path id="Path_2" data-name="Path 2" d="M246.14-389.456H202.093L190.338-189.707h49.854Z" transform="translate(84.894 36.44)" fill="#732b83"/>
    <path id="Path_3" data-name="Path 3" d="M250.112-389.456H205.361L193.744-189.707h50.648Z" transform="translate(86.281 36.44)" fill="#ab56be"/>
    <path id="Path_4" data-name="Path 4" d="M256.91-386.026H212.161l-18.52,194.184,47.3.248Z" transform="translate(86.239 37.946)" fill="#732b83"/>
    <path id="Path_5" data-name="Path 5" d="M244.794-387.618c-10.774,4.332-22.1,4.756-33.859,2.059L197.767-193.147c14.428-2.674,28.274-2.708,38.291.427Z" transform="translate(87.919 37.247)" fill="#ddcba6"/>
    <path id="Path_6" data-name="Path 6" d="M349.928-392.031H232.894L217.678-188.576H337.129Z" transform="translate(96.024 35.309)" fill="#732b83"/>
    <path id="Path_7" data-name="Path 7" d="M353.7-392.031H236.669L221.453-188.576H340.906Z" transform="translate(97.561 35.309)" fill="#be62d5"/>
    <path id="Path_8" data-name="Path 8" d="M223.116-384.561a65.04,65.04,0,0,1-12.18-1.626L197.767-193.776a114.688,114.688,0,0,1,17.119-1.892Z" transform="translate(87.919 37.875)" fill="#efe3ca"/>
    <path id="Path_9" data-name="Path 9" d="M231.507-310.92l5.544-75.653H293.9l-.67,1.933H238.806l-5.064,69.105Z" transform="translate(101.653 37.706)" fill="#db8fe7"/>
    <path id="Path_10" data-name="Path 10" d="M236.193-326.646l3.9-55.139h49.521l-.621,1.792H241.657l-3.48,49.249Z" transform="translate(103.561 39.808)" fill="#db8fe7"/>
    <path id="Path_11" data-name="Path 11" d="M223.9-263.94l4.4-60.9.179-.368Z" transform="translate(98.556 64.648)" fill="#65184a"/>
    <path id="Path_12" data-name="Path 12" d="M227.228-218.515h-5.251l2.7-37.408,4.583-61.271,6.122-12.651Zm20-1.171H229.211l8.41-114.774,4.359-9.009-8.4,118.825h11.638A28.075,28.075,0,0,0,247.227-219.687Z" transform="translate(97.774 56.631)" fill="#a63777"/>
    <path id="Path_13" data-name="Path 13" d="M246.365-221.264H225.709l8.158-111.33,2.234-4.615-8.41,114.774h18.016Q246.022-221.837,246.365-221.264Z" transform="translate(99.293 59.38)" fill="#bf4f81"/>
    <path id="Path_14" data-name="Path 14" d="M240.852-210.159H231.52l8.559-121.132.677-1.4,8.676,4.772-8.445-3.651c25.584,40.7,62.283,79.226,74.674,82.743.6.17,1.268.335,2,.5H260.938c-.189-.006-.38-.009-.566-.009C243.959-248.336,236.961-226.268,240.852-210.159ZM322.61-296.28l-52.953-22.891,21.236-61.369h11.233c-9.561,14.619-19.815,34.4-22.617,52.771-.135,0-.27-.007-.408-.013h0c-.176,0-.059.453.242,1.2q-.388,2.871-.519,5.684c-.218,4.916,8.1,9.145,12.515,9.145.189,0,.37-.007.544-.023a2.2,2.2,0,0,0,1.978-1.074,1.526,1.526,0,0,0,.066-.18c1.13-3.759,13.663-34.71,22.764-50,1.32,13.334,3.675,25.106,5.212,26.614.6.584,2.7.838,5.751.846.039,1.337.059,2.611.059,3.834C327.712-313.383,323.514-307.287,322.61-296.28Z" transform="translate(101.659 40.355)" fill="#a63777"/>
    <path id="Path_15" data-name="Path 15" d="M295.5-392.011H277.783l.023-.065h17.747C295.533-392.053,295.516-392.034,295.5-392.011Z" transform="translate(120.492 35.29)" fill="#de6b1d"/>
    <path id="Path_16" data-name="Path 16" d="M285.955-377.286h-11.8l1.715-4.958h13.511Q287.707-379.9,285.955-377.286Zm4.831-6.89H276.542l2.717-7.854h17.715C295.162-389.916,293.053-387.26,290.786-384.177Z" transform="translate(119.015 35.309)" fill="#a63777"/>
    <path id="Path_17" data-name="Path 17" d="M288.887-384.64H275.376l.67-1.933H290.29C289.828-385.947,289.359-385.3,288.887-384.64Z" transform="translate(119.512 37.706)" fill="#bf4f81"/>
    <path id="Path_18" data-name="Path 18" d="M241.864-207.821H230.226l8.4-118.825,1.984-4.1-8.559,121.132h9.332C241.525-209.005,241.687-208.41,241.864-207.821Zm60.789-172.172H291.42l.621-1.792h11.8Q303.248-380.9,302.653-379.993Z" transform="translate(101.132 39.808)" fill="#bf4f81"/>
    <path id="Path_19" data-name="Path 19" d="M303.743-447.538c-15.6-5.684-11.328-21.42-5.344-24.044s20.946.219,17.739,15.081S303.743-447.538,303.743-447.538Z" transform="translate(126.674 0)" fill="#954532"/>
    <path id="Path_20" data-name="Path 20" d="M305.432-458.234c-6.788-2.472-9.81-6.848-10.57-11.219-3.363,5.684-3.25,16.179,8.882,20.6,0,0,9.19,5.9,12.395-8.962a17.453,17.453,0,0,0,.391-5.106C312.657-453.6,305.432-458.234,305.432-458.234Z" transform="translate(126.675 1.316)" fill="#7e3325"/>
    <path id="Path_21" data-name="Path 21" d="M306.091-449.766c-12.259-3.287-8.9-12.386-4.2-13.9s16.456.127,13.937,8.721S306.091-449.766,306.091-449.766Z" transform="translate(128.57 3.636)" fill="#ffb94a"/>
    <path id="Path_22" data-name="Path 22" d="M311-385.025c-21.586-15.738-21.372-53.55-11.755-67.977s35.691-14.425,46.8-1.311S358.3-420.143,348.68-409,311-385.025,311-385.025Z" transform="translate(126.689 3.715)" fill="#954532"/>
    <path id="Path_23" data-name="Path 23" d="M337.509-423.2c-.481-23.529-3.7-29.617-13.515-35.542,0,0,11.585,9.873,6.115,23.7Z" transform="translate(139.303 6.02)" fill="#7e3325"/>
    <path id="Path_24" data-name="Path 24" d="M335.147-423.657c-6.637-25.093-11.38-30.928-22.532-35.187,0,0,13.917,8.111,12.188,24.074Z" transform="translate(134.671 5.974)" fill="#7e3325"/>
    <path id="Path_25" data-name="Path 25" d="M322.611-429.218c-11.811-10.2-17.043-23.157-9.56-32.218a16.188,16.188,0,0,1,1.954-1.951c-6.439,1.465-12.222,4.8-15.765,10.119-9.617,14.427-9.831,52.239,11.755,67.977,0,0,28.067-12.823,37.684-23.97a27.814,27.814,0,0,0,6.077-14.094C346.935-415.547,333.9-419.468,322.611-429.218Z" transform="translate(126.689 3.98)" fill="#7e3325"/>
    <path id="Path_26" data-name="Path 26" d="M365.726-317.043c-1.607-36.144-37.759-76.97-41.464-77.26s-3.046,15.113,6.072,30.266,19.149,51.075,20.289,54.863S366.01-310.631,365.726-317.043Z" transform="translate(138.552 34.31)" fill="#da2828"/>
    <path id="Path_27" data-name="Path 27" d="M324.605-396.713c-1.71-.134-2.579,3.822-2.125,9.609,7.111,5.622,36.4,43.94,39.553,76.882,2.14-1.593,3.7-3.606,3.605-5.763C364.033-352.129,328.31-396.421,324.605-396.713Z" transform="translate(138.638 33.252)" fill="#ec4848"/>
    <path id="Path_28" data-name="Path 28" d="M265.136-314.156c1.607-36.145,37.758-81.455,41.462-81.747s2.422,25.792-6.7,40.947-18.521,44.88-19.661,48.669S264.852-307.745,265.136-314.156Z" transform="translate(115.342 33.608)" fill="#ec4848"/>
    <path id="Path_29" data-name="Path 29" d="M297.056-364.626c-11.168,16.614-15.043,41.795-31.7,41.055-.5-.023,1.275,3.481,2.966,6.985,1.712,3.547,3.336,7.095,2.415,6.984,4.016,2.185,8.8,2.91,9.441.78,1.14-3.789,13.87-35.22,22.988-50.374,5.126-8.519-.035-22.136.644-30.935C301.39-381.863,301.968-371.934,297.056-364.626Z" transform="translate(115.399 36.143)" fill="#da2828"/>
    <path id="Path_30" data-name="Path 30" d="M288.488-338.563c-6.919-5.759-20.6-7.734-24.134-5.43s-2.092,19.088,8.044,22.049S288.488-338.563,288.488-338.563Z" transform="translate(114.314 55.989)" fill="#ffe8ca"/>
    <path id="Path_31" data-name="Path 31" d="M332.62-367.436l-38.221-19.2c17.739,84.371-1.3,73.936,3.135,106.686,21.7,9.147,42.571,5.6,62.69-9.565C340.1-293.864,332.62-367.436,332.62-367.436Z" transform="translate(127.256 37.677)" fill="#ec4848"/>
    <path id="Path_32" data-name="Path 32" d="M311.326-280.228c-4.859-20.77,2.412-40.35,16.239-43.735a19.281,19.281,0,0,1,13.31,1.793c-5.818-21.364-8.255-45.267-8.255-45.267l-38.221-19.2c17.739,84.371-1.3,73.936,3.135,106.686a63.5,63.5,0,0,0,15.091,4.321C312.142-277.126,311.7-278.65,311.326-280.228Z" transform="translate(127.256 37.677)" fill="#da2828"/>
    <path id="Path_33" data-name="Path 33" d="M348.881-298.68,238.248-346.509c25.584,40.7,62.283,79.226,74.674,82.743s55.559,5.336,64.112,1.852,74.919-75.944,74.919-75.944S365.551-299.09,348.881-298.68Z" transform="translate(104.398 55.296)" fill="#6d2d4a"/>
    <path id="Path_34" data-name="Path 34" d="M369.694-327.07l-39.982,24.929L343.145-316.7Z" transform="translate(141.631 63.831)" fill="#934669"/>
    <path id="Path_35" data-name="Path 35" d="M294.437-392.216c-7.2,13.062.058,60.846,3.319,64.045s51.275-2.341,53.66-4.474-9.458-58.239-13.3-61.172-16.134-8-18.969-8.263S295.211-393.623,294.437-392.216Z" transform="translate(126.018 30.895)" fill="#ec4848"/>
    <path id="Path_36" data-name="Path 36" d="M300.921-337.819c-2.482-2.577-8.458-30.908-8.793-51.907-2.8,18.427,2.64,54.615,5.414,57.338,3.262,3.2,51.493-3.55,53.879-5.683.31-.278.374-1.485.252-3.356C341.568-338.733,303.945-334.68,300.921-337.819Z" transform="translate(126.014 36.321)" fill="#da2828"/>
    <path id="Path_37" data-name="Path 37" d="M325.207-347.481c-.06,4.073-2.292,5.184-2.775,7.9s-1.87-1.173-1.268-3.395S325.207-347.481,325.207-347.481Z" transform="translate(138.091 54.87)" fill="#ff9466"/>
    <path id="Path_38" data-name="Path 38" d="M319.054-344.085c3.772,2.7,5.43,1.728,6.214.8a15.667,15.667,0,0,0,1.69-3.393l-4.283-1.235.12,2.777S316.64-345.812,319.054-344.085Z" transform="translate(137.064 54.681)" fill="#ffb881"/>
    <path id="Path_39" data-name="Path 39" d="M317.081-343.227c3.772,2.7,5.431,1.728,6.215.8a15.707,15.707,0,0,0,1.688-3.392l-4.283-1.235.121,2.776S314.668-344.954,317.081-343.227Z" transform="translate(136.261 55.058)" fill="#ffb881"/>
    <path id="Path_40" data-name="Path 40" d="M272.477-336.383c16.263-6.441,65.417-12.327,65.417-12.327l.391,1.281s-47.83,28.335-63.02,25.362C260.02-325.052,265.9-333.778,272.477-336.383Z" transform="translate(115.552 54.33)" fill="#ffb881"/>
    <path id="Path_41" data-name="Path 41" d="M280.86-330.842c-5.711-1.358-8.531-3.3-9.491-5.325-6.065,3.075-10.486,11,3.895,13.814,15.191,2.973,63.02-25.362,63.02-25.362l-.105-.345C323.126-341.118,292.534-328.069,280.86-330.842Z" transform="translate(115.552 54.615)" fill="#ff9466"/>
    <path id="Path_42" data-name="Path 42" d="M328.548-347.682c-2.977-2.634-9.494-2.14-14.8.164l-1.528,3.209c4.424-.989,10.94.987,12.952,1.481S331.523-345.05,328.548-347.682Z" transform="translate(134.509 54.001)" fill="#ffb881"/>
    <path id="Path_43" data-name="Path 43" d="M324.007-348.424c3.442,2.917,8.521,9.686,8.457,10.882-.065,1.171-4-2.662-5.039-4.061a36.9,36.9,0,0,0-4.967-4.3Z" transform="translate(138.678 54.456)" fill="#ffb881"/>
    <path id="Path_44" data-name="Path 44" d="M366.42-387.5l-37.614,84.807-37.9,2.039-2.279,2.041,118.257-1.748L447.348-387.5Z" transform="translate(124.906 37.299)" fill="#e9ddbe"/>
    <path id="Path_45" data-name="Path 45" d="M343.914-387.5c33.688,14.785,47.524,43.586,40.465,87.138L424.842-387.5Z" transform="translate(147.412 37.299)" fill="#f4e8d3"/>
    <path id="Path_46" data-name="Path 46" d="M331.626-299.247,370.475-387.5H366.42l-37.614,84.807-37.9,2.039-2.279,2.041Z" transform="translate(124.906 37.299)" fill="#d8bf90"/>
    <path id="Path_47" data-name="Path 47" d="M419.028-357.848c-14.96,3.5-48.727,41.966-88.479,99.671l.854,2.186s69.006-54.384,77.126-64.438S433.988-361.345,419.028-357.848Z" transform="translate(141.972 50.197)" fill="#934669"/>
    <path id="Path_48" data-name="Path 48" d="M409.917-330.519c-6.2,6.877-44.859,34.778-66.241,50.016q-6.435,8.949-13.127,18.656l.854,2.186s69.408-53.314,77.53-63.369c4.363-5.4,10.979-17.877,14.223-26.736A112.438,112.438,0,0,1,409.917-330.519Z" transform="translate(141.972 53.866)" fill="#7c3452"/>
    <path id="Path_49" data-name="Path 49" d="M334.883-268.635l36.085-27.737s17.821-34.172,36.369-57.895C390.952-342.251,364.874-311.34,334.883-268.635Z" transform="translate(143.736 51.891)" fill="#7c3452"/>
    <path id="Path_50" data-name="Path 50" d="M240.075-348.576c-8.976,6.556,10.259,20.108,28.211,38.905s50.865,24.48,102.585,49.836l2.137-1.312C311.456-320.6,249.051-355.134,240.075-348.576Z" transform="translate(104.214 54.041)" fill="#934669"/>
    <path id="Path_51" data-name="Path 51" d="M351.554-281.779c-43.24-18.6-71.471-24.407-87.858-40.959-9.6-9.7-19.515-17.935-25.5-24.55-3.217,7.149,13.518,21.328,29.656,38.227,17.953,18.8,51.294,22.956,103.014,48.312l2.137-1.312C365.838-268.986,358.661-275.556,351.554-281.779Z" transform="translate(104.215 54.954)" fill="#7c3452"/>
    <path id="Path_52" data-name="Path 52" d="M336.25-277.589l6.245-10.237a110.11,110.11,0,0,0-20.044-15.4Z" transform="translate(138.675 74.299)" fill="#dac7a1"/>
    <path id="Path_53" data-name="Path 53" d="M335.105-279.732l-7.868-2.8s6.266-11.3,23.192-19.5Z" transform="translate(140.623 74.826)" fill="#e9ddbe"/>
    <path id="Path_54" data-name="Path 54" d="M332.843-395.863c-5.344-2.923-13.251-7.213-15.388-7.431-2.254-.23-16.09,6.519-21.942,9.764C306.634-353.9,326-337.43,326-337.43S334.623-394.887,332.843-395.863Z" transform="translate(127.709 30.362)" fill="#ffe8ca"/>
    <path id="Path_55" data-name="Path 55" d="M332.843-397.912l-1.324-.722c-.916,13.654-6.962,53.972-6.962,53.972s-17.68-15.057-28.956-50.966l-.087.049c11.122,39.626,30.905,58.216,30.905,58.216S334.623-396.936,332.843-397.912Z" transform="translate(127.709 32.41)" fill="#da2828"/>
    <path id="Path_56" data-name="Path 56" d="M301.843-386.708c-.212-26.011,3.635-41.092,3.635-41.092l15.174,13.989-.855,23.388s-3.633,7.869-8.336,8.524S301.843-386.708,301.843-386.708Z" transform="translate(130.283 19.605)" fill="#ffb881"/>
    <path id="Path_57" data-name="Path 57" d="M440.878-286.959H346.347c-16.727,0-21.537,49.793-4.808,49.793h94.53C427.53-243.868,428.711-279.059,440.878-286.959Z" transform="translate(142.213 81.443)" fill="#dfd0b0"/>
    <path id="Path_58" data-name="Path 58" d="M390.323-288.662H258.542c-26.177-.8-29.065,53.906-2.886,54.7h131.78C364.993-234.642,367.881-289.347,390.323-288.662Z" transform="translate(104.055 80.691)" fill="#ff993d"/>
    <path id="Path_59" data-name="Path 59" d="M386.266-243.2c-9.581-1.15-14.178-12.569-14.282-24.693H237.422c.262,12.585,6.139,24.448,18.227,24.817H386.266Z" transform="translate(104.061 89.812)" fill="#ec8129"/>
    <path id="Path_60" data-name="Path 60" d="M440.49-288.665H335.55l-.947,5.184h104.94a3.218,3.218,0,0,0,3.008-2.592A2.079,2.079,0,0,0,440.49-288.665Z" transform="translate(143.622 80.694)" fill="#ffb94a"/>
    <path id="Path_61" data-name="Path 61" d="M438.779-253.779H334.237l-1.013,4.5H437.767a3.175,3.175,0,0,0,3.041-2.251A1.859,1.859,0,0,0,438.779-253.779Z" transform="translate(143.061 96.011)" fill="#ffb94a"/>
    <path id="Path_62" data-name="Path 62" d="M431.669-280.017H350.082c-16.727,0-18.64,33.427-1.912,33.427h81.943C427.357-255.315,427.8-269.837,431.669-280.017Z" transform="translate(144.41 84.491)" fill="#f4e8d4"/>
    <path id="Path_63" data-name="Path 63" d="M353.529-288.663H337.861c-12.312,10.32-13.741,44.352-2.018,54.7h14.8C328.2-234.645,331.086-289.348,353.529-288.663Z" transform="translate(140.849 80.692)" fill="#ffb94a"/>
    <path id="Path_64" data-name="Path 64" d="M351.682-259.361h-1.891c-.008-.423-.01-.848-.006-1.276.094-10.069,3.4-19.275,8.76-24.759H264.567c-.174-.006-.352-.007-.526-.007-6.468,0-11.979,3.285-15.582,9.293a31.147,31.147,0,0,0-4.1,16.749h-1.876a33.165,33.165,0,0,1,4.361-17.761c3.958-6.6,10.011-10.216,17.15-10.216.2,0,.4,0,.594.009h99.223l-2.192,1.731c-6.036,4.765-9.847,14.339-9.947,24.979C351.671-260.2,351.673-259.777,351.682-259.361Z" transform="translate(106.117 81.276)" fill="#ffc156"/>
    <path id="Path_65" data-name="Path 65" d="M355.765-251.7H353.6a36.357,36.357,0,0,1-3.81-16.2h1.891A33.5,33.5,0,0,0,355.765-251.7Zm-105.343,0h-2.538a21.234,21.234,0,0,1-2.232-3.4,29.428,29.428,0,0,1-3.17-12.8h1.876a27.44,27.44,0,0,0,2.958,11.882A18.843,18.843,0,0,0,250.422-251.7Z" transform="translate(106.121 89.812)" fill="#f4b138"/>
    <path id="Path_66" data-name="Path 66" d="M493.471-253.358H347.148c-25.893,0-27.262,95.711-1.369,95.711H492.1C478.066-170.531,475.6-238.173,493.471-253.358Z" transform="translate(140.539 96.196)" fill="#dfd0b0"/>
    <path id="Path_67" data-name="Path 67" d="M415.028-256.634H211.048c-40.618-1.537-38.415,103.616,2.2,105.152H417.235C382.411-152.8,380.206-257.951,415.028-256.634Z" transform="translate(81.363 94.75)" fill="#5d85bc"/>
    <path id="Path_68" data-name="Path 68" d="M415.318-169.256c-14.971-2.209-23.48-24.158-25.121-47.462H181.911c1.942,24.189,12.486,46.994,31.241,47.7H415.333Z" transform="translate(81.464 112.283)" fill="#4e74a5"/>
    <path id="Path_69" data-name="Path 69" d="M493.464-256.639H331.028l-.833,9.966H492.631c2.166,0,4.109-2.231,4.34-4.982S495.63-256.639,493.464-256.639Z" transform="translate(141.827 94.755)" fill="#739dcd"/>
    <path id="Path_70" data-name="Path 70" d="M495.193-189.582H333.373l-1.019,8.653h161.82a4.786,4.786,0,0,0,4.432-4.326C498.888-187.645,497.36-189.582,495.193-189.582Z" transform="translate(142.706 124.197)" fill="#739dcd"/>
    <path id="Path_71" data-name="Path 71" d="M480.465-240.016H354.179c-25.893,0-24.776,64.256,1.117,64.256H482.135C476.805-192.534,475.72-220.446,480.465-240.016Z" transform="translate(143.909 102.054)" fill="#f4e8d4"/>
    <path id="Path_72" data-name="Path 72" d="M358.075-256.635H333.824c-17.8,19.836-15.859,85.254,3.552,105.152h22.906C325.457-152.8,323.253-257.952,358.075-256.635Z" transform="translate(138.317 94.751)" fill="#739dcd"/>
    <path id="Path_73" data-name="Path 73" d="M192.74-200.31h-2.9c-1.048-11.931.447-24.286,4.583-34.14,5.323-12.687,14.251-19.637,25.3-19.637.305,0,.611.006.92.016H374.226l-3.183,3.329c-8.286,8.663-12.966,25.592-12.482,44.709h-2.93c-.483-18.065,3.477-34.378,10.676-44.32H220.838c-.272-.012-.546-.014-.816-.014-10.011,0-18.139,6.315-22.986,17.863C193.134-223.207,191.731-211.546,192.74-200.31Z" transform="translate(84.559 95.875)" fill="#81b4d5"/>
    <path id="Path_74" data-name="Path 74" d="M335.346-172.7l-113.105,0c-10.839-.367-20.069-7.254-26.028-19.4a70.687,70.687,0,0,1-6.468-24.612h2.9a65.938,65.938,0,0,0,6.027,22.839c3.792,7.735,10.926,17.037,23.37,17.459l114.086,0Z" transform="translate(84.653 112.283)" fill="#6ba2c7"/>
    <path id="Path_75" data-name="Path 75" d="M331.173-391.3c-.924-.505-1.923-1.051-2.958-1.609C329.248-392.351,330.249-391.806,331.173-391.3Zm-31.558-.691.023-.012Zm.052-.027c.827-.414,1.68-.836,2.543-1.256C301.347-392.855,300.494-392.433,299.667-392.019Zm21.04-4.785.618-16.887Z" transform="translate(129.379 25.799)" fill="#de6b1d"/>
    <path id="Path_76" data-name="Path 76" d="M315.044-412.386l.156-4.277Z" transform="translate(135.66 24.494)" fill="#6f1c15"/>
    <path id="Path_77" data-name="Path 77" d="M292.656-369.852a41.469,41.469,0,0,1-8.411-9.249c5.749-8.2,10.835-14.088,13.293-16.067a.88.88,0,0,0-.2.216c-1.794,3.255-2.69,8.665-2.975,15.005-.02.427-.038.858-.052,1.294A85.393,85.393,0,0,1,292.656-369.852Zm4.937-25.361a3.988,3.988,0,0,1,1.015-.639A8.724,8.724,0,0,0,297.593-395.213Z" transform="translate(123.122 33.632)" fill="#cf2828"/>
    <path id="Path_78" data-name="Path 78" d="M291.93-373.806q-.865-.617-1.708-1.294a85.364,85.364,0,0,0,1.652-8.8C291.764-380.706,291.794-377.291,291.93-373.806Z" transform="translate(125.555 38.879)" fill="#be1717"/>
    <path id="Path_79" data-name="Path 79" d="M309.3-361.632a30.227,30.227,0,0,1-15.63-4.609,182.7,182.7,0,0,1-1.573-19.95,69.378,69.378,0,0,0-.661,7.089c.284-6.341,1.181-11.75,2.975-15.005a.875.875,0,0,1,.2-.216c.02-.014.038-.03.056-.045a8.722,8.722,0,0,1,1.014-.639.021.021,0,0,0,.01,0c.422-.236.937-.5,1.525-.794a163.4,163.4,0,0,0,13.756,34.119Q310.138-361.631,309.3-361.632Zm23.791-15.607c1.124-9.931,1.908-18.4,1.6-20.54.777.415,1.455.81,2.073,1.194A39.178,39.178,0,0,1,333.088-377.238Z" transform="translate(126.048 32.786)" fill="#cf2828"/>
    <path id="Path_80" data-name="Path 80" d="M293.7-369.776q-1.131-.687-2.23-1.472c-.137-3.485-.166-6.9-.056-10.1.014-.436.032-.866.052-1.294a69.36,69.36,0,0,1,.661-7.089A182.688,182.688,0,0,0,293.7-369.776Z" transform="translate(126.014 36.321)" fill="#be1717"/>
    <path id="Path_81" data-name="Path 81" d="M311.07-360.029a145.155,145.155,0,0,1-15.495-34.14c1.5-.827,3.5-1.875,5.685-2.975l.023-.012.029-.016c.827-.414,1.68-.836,2.543-1.256.177-.088.356-.173.533-.259,0,.209,0,.42,0,.632,0,0,4.375,4.863,8.818,4.863a5.732,5.732,0,0,0,.8-.055c4.7-.655,8.336-8.524,8.336-8.524l.007-.186h0c2.291,1.105,5,2.536,7.508,3.893,1.034.558,2.033,1.1,2.958,1.609l-1.324-.722c-.388,5.8-1.7,16.4-3.087,26.69a27.172,27.172,0,0,1-7.732,7.06A25.033,25.033,0,0,1,311.07-360.029ZM332.9-396.342a.3.3,0,0,0-.068-.1A.294.294,0,0,1,332.9-396.342Z" transform="translate(127.734 30.952)" fill="#de8170"/>
    <path id="Path_82" data-name="Path 82" d="M309.311-361.309a163.4,163.4,0,0,1-13.756-34.119,0,0,0,0,1,0,0l-.044-.15.087-.049a145.158,145.158,0,0,0,15.495,34.14Q310.206-361.367,309.311-361.309Zm19.121-10.635c1.385-10.286,2.7-20.892,3.087-26.69l1.324.722.02.014a.3.3,0,0,1,.068.1.813.813,0,0,1,.049.148l.037.243.013.007c.307,2.14-.477,10.609-1.6,20.54A31.042,31.042,0,0,1,328.432-371.944Z" transform="translate(127.709 32.41)" fill="#be1717"/>
    <path id="Path_83" data-name="Path 83" d="M310.66-383.606c-4.444,0-8.818-4.863-8.818-4.863,0-.212,0-.423,0-.632l.006,0a205.236,205.236,0,0,1,2.493-34.687,35.5,35.5,0,0,1,16.239,10.256l-.156,4.277-.618,16.887-.007.186s-3.633,7.869-8.336,8.523A5.714,5.714,0,0,1,310.66-383.606Z" transform="translate(130.284 21.365)" fill="#de6648"/>
    <path id="Path_84" data-name="Path 84" d="M303.139-426.251c-8.184,36.031,20.293,50.1,20.293,50.1s22.464-22.107,25.146-49.764c1.449-14.953-.666-19.511-15.246-21.858C318.788-450.112,305.267-435.622,303.139-426.251Z" transform="translate(130.212 10.725)" fill="#ffb881"/>
    <path id="Path_85" data-name="Path 85" d="M306.242-406.65c7.491-22.3,9.14-41.062.224-40.078S293.633-413.734,306.242-406.65Z" transform="translate(128.806 11.278)" fill="#7e3325"/>
    <path id="Path_86" data-name="Path 86" d="M307.806-410.23c1.873-19.079.25-21.416-5.611-21.454C295.471-431.727,294.913-413.381,307.806-410.23Z" transform="translate(128.526 17.899)" fill="#ffb881"/>
    <path id="Path_87" data-name="Path 87" d="M305.244-415.9c1.121-11.433.151-12.834-3.363-12.855C297.853-428.784,297.518-417.789,305.244-415.9Z" transform="translate(129.161 19.184)" fill="#da5b3d"/>
    <path id="Path_88" data-name="Path 88" d="M305.14-416.4c.032-7.355-.76-8.185-3.28-7.977C298.97-424.142,299.472-417.116,305.14-416.4Z" transform="translate(129.589 21.094)" fill="#ffb881"/>
    <path id="Path_89" data-name="Path 89" d="M331.313-421.963c.5-3-.557-5.631-2.378-5.884s-3.7,1.993-4.21,5,.557,5.637,2.371,5.879S330.8-418.956,331.313-421.963Z" transform="translate(139.549 19.576)" fill="#66413b"/>
    <path id="Path_90" data-name="Path 90" d="M318.792-423.349c.692-3.449-.311-6.542-2.261-6.935s-4.065,2.094-4.755,5.545.319,6.551,2.258,6.93S318.1-419.907,318.792-423.349Z" transform="translate(134.241 18.497)" fill="#66413b"/>
    <path id="Path_91" data-name="Path 91" d="M309.609-426.014s6.942-3.691,12.184-1.9c0,0-.83-2.972-4.984-2.857S309.609-426.014,309.609-426.014Z" transform="translate(133.447 18.3)" fill="#66413b"/>
    <path id="Path_92" data-name="Path 92" d="M334.239-423.639s-4.925-4.347-9.986-3.69a4.8,4.8,0,0,1,5.153-1.636C332.957-428.177,334.239-423.639,334.239-423.639Z" transform="translate(139.409 19.023)" fill="#66413b"/>
    <path id="Path_93" data-name="Path 93" d="M309.484-429.795l-.063-.77a16.326,16.326,0,0,1,11.449-6.551l-.184,2.641C318.255-434.906,312.452-433.248,309.484-429.795Z" transform="translate(133.371 15.515)" fill="#7c4242"/>
    <path id="Path_94" data-name="Path 94" d="M335.468-427c-2.4-4.832-8.217-6.6-9.7-6.627l.609-2.56c1.66.109,6.985,2.324,9.66,8.342Z" transform="translate(140.024 15.92)" fill="#7c4242"/>
    <path id="Path_95" data-name="Path 95" d="M324.612-417.439l-.083.283A3.583,3.583,0,0,1,319.6-415.6a3.818,3.818,0,0,1-1.912-2.74,3.825,3.825,0,0,0,1.718,4.789,3.583,3.583,0,0,0,4.935-1.545A3.759,3.759,0,0,0,324.612-417.439Z" transform="translate(136.625 23.757)" fill="#e97b58"/>
    <path id="Path_96" data-name="Path 96" d="M313.209-411.735l12.429,2.045s-2.685,6.128-7.723,5.153C313.087-405.468,313.209-411.735,313.209-411.735Z" transform="translate(134.913 26.658)" fill="#491c2e"/>
    <path id="Path_97" data-name="Path 97" d="M313.83-411.46l10.553,1.737s.173,2.934-5.848,2.055C312.195-408.595,313.83-411.46,313.83-411.46Z" transform="translate(135.088 26.779)" fill="#ffebeb"/>
    <path id="Path_98" data-name="Path 98" d="M319.59-404.661c.191-.783-1.078-.183-2.409-.409s-2.216-1.19-2.409-.409.732,1.6,2.061,1.826S319.4-403.878,319.59-404.661Z" transform="translate(135.539 29.273)" fill="#ef8f6f"/>
    <path id="Path_99" data-name="Path 99" d="M448.189-220.7H299.818L290.279-74.315,387.725,62.538Z" transform="translate(125.578 110.536)" fill="#8b53b1"/>
    <path id="Path_100" data-name="Path 100" d="M450.871-216.943H302.5L292.96-70.562,390.406,66.291Z" transform="translate(126.67 112.184)" fill="#624b83"/>
    <path id="Path_101" data-name="Path 101" d="M462.8-212.072H314.428L260.469,43.791,402.335,71.163Z" transform="translate(113.443 114.323)" fill="#e2d5af"/>
    <path id="Path_102" data-name="Path 102" d="M310.8-200.772c26.407-.724,48.6-2.635,48.6-8.807a3.565,3.565,0,0,0-.124-.754H302.293Z" transform="translate(130.469 115.086)" fill="#f6f0d9"/>
    <path id="Path_103" data-name="Path 103" d="M299.762-213.038c18.115,2.91,27.043,12.423,24.472,24.4C320.964-173.4,299.762-213.038,299.762-213.038Z" transform="translate(129.439 113.899)" fill="#3b2d50"/>
    <path id="Path_104" data-name="Path 104" d="M477.123-197.519H328.752L268.29,85.716H416.661Z" transform="translate(116.627 120.712)" fill="#624b83"/>
    <path id="Path_105" data-name="Path 105" d="M497.635-197.519H349.263L288.8,85.716H437.171Z" transform="translate(124.976 120.712)" fill="#4b386a"/>
    <path id="Path_106" data-name="Path 106" d="M296,64.675h-17.01L332.046-183.85h17.01l-.875,4.1H334.2L284.1,60.573h12.779Z" transform="translate(120.984 126.714)" fill="#b482c1"/>
    <path id="Path_107" data-name="Path 107" d="M363.477,64.675h-72.4l.875-4.1h71.588Zm4.072-244.423H343.26l.875-4.1h23.483Z" transform="translate(125.905 126.714)" fill="#8b619e"/>
    <path id="Path_108" data-name="Path 108" d="M357.729-215.332H321.257l.055-.386-3.989-4.9h40.494Z" transform="translate(136.588 110.573)" fill="#792e62"/>
    <path id="Path_109" data-name="Path 109" d="M356.748-209.933H319.684l-.239-.294.948-6.716h36.472Z" transform="translate(137.451 112.184)" fill="#56294a"/>
    <path id="Path_110" data-name="Path 110" d="M356.33-191.129H336.683l-8.264-10.141c14.22-1.243,23.932-3.461,23.932-7.545a3.561,3.561,0,0,0-.124-.754H321.655l-2.04-2.5h37.064Z" transform="translate(137.521 114.323)" fill="#c47761"/>
    <path id="Path_111" data-name="Path 111" d="M327.829-202.034l-6.764-8.3h30.572a3.559,3.559,0,0,1,.124.754C351.76-205.495,342.049-203.277,327.829-202.034Z" transform="translate(138.111 115.086)" fill="#d88678"/>
    <path id="Path_112" data-name="Path 112" d="M331.773-197.484l-.028-.035h.035Z" transform="translate(142.458 120.712)" fill="#56294a"/>
    <path id="Path_113" data-name="Path 113" d="M351.382-197.474h-19.61l-.007-.01.007-.035h19.612Z" transform="translate(142.467 120.712)" fill="#41203c"/>
    <path id="Path_114" data-name="Path 114" d="M542.789-245.856H387.871a9.183,9.183,0,0,0-9.076,8.739L359.075,98.089a9.211,9.211,0,0,0,9.074,9.858H534.624a9.189,9.189,0,0,0,9.088-9.066l8.165-335.205A9.2,9.2,0,0,0,542.789-245.856Z" transform="translate(153.577 99.489)" fill="#f14b5c"/>
    <path id="Path_115" data-name="Path 115" d="M444.726-245.857H383.953c-1.885,0-2.951,3.831-2.43,8.741l35.617,335.2c.568,5.346,2.782,9.858,4.835,9.858h65.308c1.936,0,3-4.024,2.393-9.068L449.526-236.328C448.9-241.551,446.732-245.857,444.726-245.857Z" transform="translate(162.668 99.489)" fill="#d53344"/>
    <path id="Path_116" data-name="Path 116" d="M519.142,91.708H487.6l-.272-2.265h31.808a7.28,7.28,0,0,0,7.239-7.224l5.856-240.411c.785-.389,1.535-.768,2.246-1.133L528.6,82.278A9.507,9.507,0,0,1,519.142,91.708Zm-103.954,0H385.7V90.575l.232-274.2,2.2,20.707-.214,252.366h27.029Zm117.45-266.386,1.244-51.032a7.434,7.434,0,0,0-2.053-5.355,7.117,7.117,0,0,0-5.189-2.235H460.3l.549-1.773-1.078-.409.018-.086h66.85a9.285,9.285,0,0,1,6.775,2.92,9.719,9.719,0,0,1,2.683,7l-1.24,50.874Z" transform="translate(164.423 104.007)" fill="#fd8289"/>
    <path id="Path_117" data-name="Path 117" d="M487.538,91.708H415.121l-.241-2.265h72.386ZM388.065-162.923l-2.2-20.707.044-51.939h36.562c-.632.691-1.269,1.448-1.9,2.268H388.126Z" transform="translate(164.49 104.007)" fill="#f95965"/>
    <path id="Path_118" data-name="Path 118" d="M397.675-245.857H348.238l-5.9,353.8h55.034Z" transform="translate(146.772 99.489)" fill="#d53344"/>
    <path id="Path_119" data-name="Path 119" d="M346.56-245.857l-.1,5.788,42.743.448,3.042,347.567H395.7l.3-353.8Z" transform="translate(148.45 99.489)" fill="#b62036"/>
    <path id="Path_120" data-name="Path 120" d="M454.036-157.117S491.142-46.476,491.2-42.609,439.75,53.12,439.75,53.12l-1.22-.367,26.046-92.785-22.015-55.23Z" transform="translate(185.929 138.451)" fill="#6d3d4b"/>
    <path id="Path_121" data-name="Path 121" d="M450.177-138.432l-14.421,27.574,28.292,61.634L439.659,44.549l.241.071C449.617,21.952,475.419-46,475.365-49.224,475.323-51.882,461.142-105.492,450.177-138.432Z" transform="translate(184.799 146.655)" fill="#582e3c"/>
    <path id="Path_122" data-name="Path 122" d="M415.011-143.257C430.805-66.214,477.44,64.879,477.44,64.879h1.386L460.218-102.413l9.236-8.952-5.26-45.319S411.683-159.484,415.011-143.257Z" transform="translate(176.293 138.56)" fill="#6d3d4b"/>
    <path id="Path_123" data-name="Path 123" d="M419.87-124.1c21.693-20.641,29.426-20.062,35.65-17.555a17.944,17.944,0,0,0,11.7.58L464.2-153.617l-43.572-2.317Z" transform="translate(178.332 138.971)" fill="#582e3c"/>
    <path id="Path_124" data-name="Path 124" d="M423.271-154.178c-5.614,2.041-9.209,5.116-8.26,9.74C430.805-67.4,477.44,63.7,477.44,63.7h1.28C471.232,36.717,437.652-85.23,423.271-154.178Z" transform="translate(176.293 139.742)" fill="#582e3c"/>
    <path id="Path_125" data-name="Path 125" d="M451.243-112.813l-12.873-5.064,13.014-.289,11.317-9.55Z" transform="translate(185.863 151.36)" fill="#582e3c"/>
    <path id="Path_126" data-name="Path 126" d="M438.1-233.179c24.417,20.456,33.51,59.245,33.51,59.245l47.018-2.124,2.339,11.423s-39.227,23.379-60.006,17S438.1-233.179,438.1-233.179Z" transform="translate(185.756 105.055)" fill="#ffb94a"/>
    <path id="Path_127" data-name="Path 127" d="M497.095-180.519c10.044,2.749,16.834.289,19.663-3.183s7.5-12.442,2.83-12.877-24.614,7.814-24.614,7.814Z" transform="translate(208.905 121.118)" fill="#ff9466"/>
    <path id="Path_128" data-name="Path 128" d="M475.448-165.228c-13.744-4.218-8.3-38.967-37.343-67.951,0,0,2.077,79.172,22.859,85.548s60.006-17,60.006-17l-1.32-6.451C506.381-168.122,489.814-160.821,475.448-165.228Z" transform="translate(185.756 105.055)" fill="#ff9138"/>
    <path id="Path_129" data-name="Path 129" d="M504.583-179.89c0,.5-6.65-14.583-6.65-14.583l-13.014.947,1.508,9.889,3.962.164-4.717,2.8,5.092,8.24Z" transform="translate(204.813 122.05)" fill="#e9ddbe"/>
    <path id="Path_130" data-name="Path 130" d="M420.758-239.085c-20.451,26.5-13.951,62.4-9.139,79.49s-2.98,51.554,9.847,66.794c0,0,18.523-20.734,31.5-19s16.124,8.469,19.522,5.5-.922-44.378,1.237-55.768-1.057-42.147-15.477-59.977S420.758-239.085,420.758-239.085Z" transform="translate(172.967 102.46)" fill="#ffb94a"/>
    <path id="Path_131" data-name="Path 131" d="M418.068-229.795c-2.264,0-4.451,1.174-6.522,3.323-8.71,23.333-3.787,49.105.07,62.795,4.815,17.086-2.982,51.554,9.847,66.794,0,0,8.969-10.032,18.8-15.555a296.7,296.7,0,0,0,1.573-30.934C441.832-191.1,431.194-229.795,418.068-229.795Z" transform="translate(172.969 106.541)" fill="#ff6d2b"/>
    <path id="Path_132" data-name="Path 132" d="M430.014-228.42c-13.719-21.972-7.867-30.927-7.867-30.927s-7.442-11.53.111-22.393c0,0,.612-16.248,19.658-19.885,0,0,12.558-13.838,22.522-5.853,0,0,11.638-9.456,17.158,9.017s-1.411,18.342-1.411,18.342,10.9,23.932-6.7,29.783S430.014-228.42,430.014-228.42Z" transform="translate(177.926 71.344)" fill="#794938"/>
    <path id="Path_133" data-name="Path 133" d="M472.272-250.347s-13.491-.684-17.589-13.337c0,0-12.447-10.117-4.045-27.973,0,0-2.071-11.184,2.717-17.813-6.3,1.995-11.44,7.629-11.44,7.629-19.046,3.636-19.658,19.885-19.658,19.885-7.553,10.864-.111,22.393-.111,22.393s-5.852,8.955,7.867,30.927c0,0,24.777-15.386,42.339-21.524Z" transform="translate(177.926 71.559)" fill="#603328"/>
    <path id="Path_134" data-name="Path 134" d="M443.8-233.528l-27.113-5.559c21.3,10.361,41.685,29.479,41.685,29.479S451.349-228.822,443.8-233.528Z" transform="translate(177.037 102.461)" fill="#e9ddbe"/>
    <path id="Path_135" data-name="Path 135" d="M416.688-223.929l19.744-49.681,17.144,23.645L446.3-214.63Z" transform="translate(177.037 87.304)" fill="#ffb881"/>
    <path id="Path_136" data-name="Path 136" d="M553.663-250.922,510.8-169.1l-69.878,6.377.26,1.328h95.336L585.1-242.952Z" transform="translate(186.903 97.265)" fill="#daccac"/>
    <path id="Path_137" data-name="Path 137" d="M510.8-194.061l-69.878,6.377.26,1.328h95.336l-21.855-3.185Z" transform="translate(186.903 122.231)" fill="#d0ba93"/>
    <path id="Path_138" data-name="Path 138" d="M441.108-187.735h95.335l-21.855-3.185Z" transform="translate(186.978 123.61)" fill="#b99d6f"/>
    <path id="Path_139" data-name="Path 139" d="M541.439-249.322l-48.17,84.046,21.941,3.183,48.577-81.562Z" transform="translate(208.212 97.968)" fill="#efe3ca"/>
    <path id="Path_140" data-name="Path 140" d="M535.091-249.322l-26.229,87.229,48.577-81.562Z" transform="translate(214.559 97.968)" fill="#f9f0e1"/>
    <path id="Path_141" data-name="Path 141" d="M410.794-178.933c2.91,17.847-2.771,48.105,8.715,62.4,8.656-36.818,22.427-49.455,52.1-46.87-.242-8.3-.35-16.094.238-20.678C455.529-186.375,428.018-188.292,410.794-178.933Z" transform="translate(174.638 125.786)" fill="#ff6d2b"/>
    <path id="Path_142" data-name="Path 142" d="M439.58-170.918c-2.171-33.211-12.205-69.764-17.635-67.905-6.423,2.2-17.147,16.122-19.049,36.047-1.738,18.221,10.464,58.852,19.426,66.29s60.14-29.626,73.717-35.738l2.444-15.143C479.681-187.885,455.462-179.885,439.58-170.918Z" transform="translate(171.355 102.547)" fill="#ffb94a"/>
    <path id="Path_143" data-name="Path 143" d="M431.6-188.655c15.927-6.827,37.009-11.95,53.565-10.655l-2.579,12.2c.611-.312,1.188-.6,1.7-.827l2.444-15.143C469.357-203.558,447.376-196.762,431.6-188.655Z" transform="translate(183.109 118.26)" fill="#ff9138"/>
    <path id="Path_144" data-name="Path 144" d="M427.627-151.979c-8.962-7.44-19.388-52.448-17.65-70.669a62.856,62.856,0,0,1,1.591-9.206,58.923,58.923,0,0,0-8.665,25.988c-1.738,18.221,8.69,63.231,17.652,70.669s61.914-34.007,75.491-40.117l1.508-9.348C479.1-174.355,435.7-145.279,427.627-151.979Z" transform="translate(171.348 105.637)" fill="#ff9138"/>
    <path id="Path_145" data-name="Path 145" d="M478.5,2.177H459.464s-2.631-4.808,1.258-6.8C465.752-7.192,478.5,2.177,478.5,2.177Z" transform="translate(194.096 205.211)" fill="#f1e8cd"/>
    <path id="Path_146" data-name="Path 146" d="M451.727,6.136H441.009l-4.75-15.047s4.5-8.247,6.789-3.907c1.41,2.674.559,10.84.59,14.2A50.78,50.78,0,0,0,451.727,6.136Z" transform="translate(185.004 201.254)" fill="#f1e8cd"/>
    <path id="Path_147" data-name="Path 147" d="M304.374-215.056c-2.83,8.826,17.966,25.463,23.2,27.78l-15.561,3.76-15.7-23.583,1.179-13.647Z" transform="translate(128.034 110.514)" fill="#624b83"/>
    <path id="Path_148" data-name="Path 148" d="M337.892-183.032c-16.2-9.462-21.717-25.469-23.294-37.714L254.287,62.475c2.512,14.238,8.623,25.978,20.47,33.74Z" transform="translate(110.927 110.514)" fill="#4f3c6f"/>
    <path id="Path_149" data-name="Path 149" d="M375.751,40.93H349.982l2.762-188.552h23.148Z" transform="translate(149.882 142.62)" fill="#f95965"/>
    <path id="Path_150" data-name="Path 150" d="M376-226.01H352.854l-.895-8.735h25.769Z" transform="translate(150.687 104.368)" fill="#f95965"/>
    <path id="Path_151" data-name="Path 151" d="M376-212.737H352.854l-.895-8.737h25.769Z" transform="translate(150.687 110.195)" fill="#f95965"/>
    <path id="Path_152" data-name="Path 152" d="M485.77-201.092c.426,4.569-.657,7.473-1.652,8s-4.378-1.163-4.945-2.615S485.393-205.121,485.77-201.092Z" transform="translate(202.46 118.649)" fill="#ff9466"/>
    <path id="Path_153" data-name="Path 153" d="M485.428-203.279c-.3,8.587-1.114,9.365-2.378,10.148s-5.2-.243-5.642-1.589.3-4.729,1.337-4.45a14.007,14.007,0,0,0,2.3.365Z" transform="translate(201.701 118.183)" fill="#ffb881"/>
    <path id="Path_154" data-name="Path 154" d="M487.169-204.337c-1.748-3.455-15.285-3.192-22.492,3.674l4.432,12.346c6.225-2.749,11.618-7.571,15.548-7.172S488.917-200.88,487.169-204.337Z" transform="translate(196.573 116.763)" fill="#ffb881"/>
    <path id="Path_155" data-name="Path 155" d="M481.913-202.005c-.3,8.587-1.114,9.367-2.376,10.15s-5.2-.243-5.642-1.59.3-4.729,1.337-4.45a13.993,13.993,0,0,0,2.3.366Z" transform="translate(200.271 118.743)" fill="#ffb881"/>
    <path id="Path_156" data-name="Path 156" d="M478.689-206.209c4.546,1.065,7.791,3.261,9.3,5.4a29.258,29.258,0,0,1,3.452,8.879c.063,1.253-2.541,2.829-3.1,1.184s-2.3-6.569-2.772-6.769-5.1-2.711-5.323-2.669S478.689-206.209,478.689-206.209Z" transform="translate(202.277 116.897)" fill="#ffb881"/>
    <path id="Path_157" data-name="Path 157" d="M476.533-187.756c0,.578-6.65-17.072-6.65-17.072l-13.014,1.11,1.51,11.574,3.96.193-4.715,3.278,5.094,9.646Z" transform="translate(193.394 117.503)" fill="#e9ddbe"/>
    <path id="Path_158" data-name="Path 158" d="M415.313-236.7l3.771-6.366,29.711,11.285L447-225.993Z" transform="translate(176.477 100.714)" fill="#e9ddbe"/>
    <path id="Path_159" data-name="Path 159" d="M415.773-238.487l-.46-.155Z" transform="translate(176.477 102.657)" fill="#ba1c25"/>
    <path id="Path_160" data-name="Path 160" d="M447.683-221.677a86.293,86.293,0,0,0-8.231-10.091c-.2-.262-.394-.517-.594-.766a76.358,76.358,0,0,1,9.42,9.986A5.426,5.426,0,0,1,447.683-221.677Z" transform="translate(186.062 105.339)" fill="#de6629"/>
    <path id="Path_161" data-name="Path 161" d="M447.445-221.834q-1.174-1.727-2.467-3.327a42.446,42.446,0,0,0-3.85-4.159c-.6-.937-1.216-1.839-1.849-2.681a86.3,86.3,0,0,1,8.231,10.091C447.489-221.884,447.468-221.858,447.445-221.834Z" transform="translate(186.234 105.573)" fill="#de5020"/>
    <path id="Path_162" data-name="Path 162" d="M449.1-217.678c-5.063-.548-11.731-3.314-18.821-6.08-2.284-.891-4.611-1.782-6.944-2.6-1.69-5.182-3.4-9.124-4.95-11.271l4.366,1.475A197.472,197.472,0,0,1,449.1-217.678Zm5.209-.537a78.264,78.264,0,0,0-4.673-8.634,42.432,42.432,0,0,1,3.85,4.159q1.294,1.6,2.467,3.327a4,4,0,0,1-.9.76A6.154,6.154,0,0,1,454.308-218.215Z" transform="translate(177.727 103.102)" fill="#de6629"/>
    <path id="Path_163" data-name="Path 163" d="M449.546-218.029a15.764,15.764,0,0,1-1.71-.1A197.48,197.48,0,0,0,421.487-236.6l23,7.772.816-2.636c.2.236.405.456.606.705l.018.016c.2.249.4.5.594.766.633.842,1.252,1.744,1.849,2.681a78.284,78.284,0,0,1,4.673,8.634A8.731,8.731,0,0,1,449.546-218.029Z" transform="translate(178.991 103.552)" fill="#cc7b6a"/>
    <path id="Path_164" data-name="Path 164" d="M427.032-225.959c-5.756-2.015-11.54-3.58-16.758-3.58-.328,0-.653.007-.975.019,3.01-4.535,6.249-7.672,8.942-9.007l-.02-.006,3.861,1.3C423.637-235.083,425.342-231.142,427.032-225.959Z" transform="translate(174.029 102.704)" fill="#de6629"/>
    <path id="Path_165" data-name="Path 165" d="M447.317-240.673l.22-1.063Zm-23.5-15.517.584-1.471h0Z" transform="translate(179.941 94.306)" fill="#de6b1d"/>
    <path id="Path_166" data-name="Path 166" d="M419.44-244.164l2.2-5.55h0Z" transform="translate(178.157 97.796)" fill="#c37362"/>
    <path id="Path_167" data-name="Path 167" d="M421.009-246.673h0l3.962-9.966Z" transform="translate(178.795 94.755)" fill="#655773"/>
    <path id="Path_168" data-name="Path 168" d="M438.355-231.051h0l3.048-14.805Z" transform="translate(185.857 99.489)" fill="#d32933"/>
    <path id="Path_169" data-name="Path 169" d="M418.376-241.7l-.383-.145.383.144,1.653-4.16Z" transform="translate(177.568 99.489)" fill="#ba1c25"/>
    <path id="Path_170" data-name="Path 170" d="M438.342-235.482l.017-.086h0Z" transform="translate(185.852 104.007)" fill="#dd494b"/>
    <path id="Path_171" data-name="Path 171" d="M424.237-254.86h0l3.646-9.175h0Z" transform="translate(180.11 91.507)" fill="#531c17"/>
    <path id="Path_172" data-name="Path 172" d="M446.515-222.982l-28.25-10.731,1.653-4.162,2.206-5.55,3.959-9.966.584-1.469,3.647-9.177c7.7,6.224,14.553,15.65,19.484,25.1l-.219,1.064-3.048,14.805Z" transform="translate(177.679 91.507)" fill="#de6648"/>
    <path id="Path_173" data-name="Path 173" d="M447-225.993l-23-7.772-4.366-1.475-3.861-1.3-.46-.155,3.771-6.366.383.145,28.25,10.731,1.078.409-.977,3.152Z" transform="translate(176.477 100.714)" fill="#cc7b6a"/>
    <path id="Path_174" data-name="Path 174" d="M435.981-280.787c-10.379,26.049-10.269,50.372-10.186,52.255s16.718,14.477,22.428,15.624c0,0,20.275-26.208,24.476-48.122s-1.226-27.323-7.65-28.675S440.007-290.89,435.981-280.787Z" transform="translate(180.738 79.975)" fill="#ffb881"/>
    <path id="Path_175" data-name="Path 175" d="M432.4-246.238c14.091-34.471,18.035-51.1,6.029-44.83s-11.168,39.816-11.168,39.816Z" transform="translate(181.337 79.067)" fill="#603328"/>
    <path id="Path_176" data-name="Path 176" d="M433.866-265.039c.349-8.151-8.6-15.467-10.225-6.687s3.764,21.838,5.907,19.177S433.75-262.3,433.866-265.039Z" transform="translate(179.745 86.381)" fill="#ffb881"/>
    <path id="Path_177" data-name="Path 177" d="M431.377-265.979c.22-5.126-5.4-9.724-6.428-4.2s2.365,13.732,3.713,12.058S431.3-264.258,431.377-265.979Z" transform="translate(180.323 87.709)" fill="#da5b3d"/>
    <path id="Path_178" data-name="Path 178" d="M430.067-264.243c.143-3.369-3.553-6.391-4.223-2.762s1.555,9.023,2.44,7.923A12.518,12.518,0,0,0,430.067-264.243Z" transform="translate(180.714 89.481)" fill="#ffb881"/>
    <path id="Path_179" data-name="Path 179" d="M456.323-264.237c.94-2.223.7-4.408-.547-4.871s-3,.969-3.936,3.2-.694,4.4.542,4.867S455.387-262.005,456.323-264.237Z" transform="translate(191.115 89.242)" fill="#4e3131"/>
    <path id="Path_180" data-name="Path 180" d="M450.411-270.67c1.876-.666,2.717,23.137,1.545,25.745-.581,1.3-8.443-3.146-8.443-3.146S450.069-270.556,450.411-270.67Z" transform="translate(187.957 88.589)" fill="#ffb881"/>
    <path id="Path_181" data-name="Path 181" d="M450.818-270.067c.864,5.074,1.7,22.183.7,24.345-.45.981-5.413-1.522-7.441-2.667-.135.484-.22.761-.22.761s8.255,5.153,8.806,3.855C453.724-246.281,452.33-268.778,450.818-270.067Z" transform="translate(188.098 88.859)" fill="#e97b58"/>
    <path id="Path_182" data-name="Path 182" d="M447.008-268.144c1.112-2.156,1.047-4.353-.141-4.924s-3.06.705-4.172,2.851-1.055,4.356.136,4.933S445.893-266,447.008-268.144Z" transform="translate(187.299 87.48)" fill="#4e3131"/>
    <path id="Path_183" data-name="Path 183" d="M458.566-279.9c-.647-1.91-11.72-2.579-14.442-2.29s-3.284,2.317-3.38,4.439,11.565,6.769,15.64,4.337C458.261-274.541,459.216-277.994,458.566-279.9Z" transform="translate(186.83 83.506)" fill="#794938"/>
    <path id="Path_184" data-name="Path 184" d="M454.912-271.506c-.432,3.786,5.772,5.615,7.234,4.06s2.718-3.3,2.063-4.873-4.622-6.657-6.173-5.621S455.108-273.247,454.912-271.506Z" transform="translate(192.589 85.342)" fill="#794938"/>
    <path id="Path_185" data-name="Path 185" d="M441.452-246.93c.2-.391-.739-1.354-2.09-2.148s-2.6-1.118-2.8-.727.739,1.356,2.088,2.15S441.258-246.537,441.452-246.93Z" transform="translate(185.118 97.683)" fill="#e97b58"/>
    <path id="Path_186" data-name="Path 186" d="M435.142-255.307c.25-.445.414-.714.414-.714,3.475,5.107,5.951,8.113,13.919,12.176a8.146,8.146,0,0,0-.83.642C443.872-245.019,435.953-251.671,435.142-255.307Z" transform="translate(184.549 95.026)" fill="#e97b58"/>
    <path id="Path_187" data-name="Path 187" d="M512.267-185.511c3.867-4.146,7.075-12.635,6.132-15.624s-3.491-1.832-4.245-.579-1.6,10.61-2.075,12.828A5.084,5.084,0,0,0,512.267-185.511Z" transform="translate(215.8 118.296)" fill="#ff9466"/>
    <path id="Path_188" data-name="Path 188" d="M510.43-184.048c3.2-3.1,5.032-9.434,3.606-11.668a2.592,2.592,0,0,0-4.338-.43c-.553.935.111,7.921,0,9.577A3.384,3.384,0,0,0,510.43-184.048Z" transform="translate(214.809 120.885)" fill="#ff9466"/>
    <path id="Path_189" data-name="Path 189" d="M119.368-181.567H261.122L281.14,79.719H121.024Z" transform="translate(56.004 127.716)" fill="#b6be46"/>
    <path id="Path_190" data-name="Path 190" d="M133.685-36.394l53.221-145.148h22.174l-8.609,26.148,7.826-1.6,7.044,128.606h24.524L252.91,22.039h10.436l9.392,32.021L276.652,79.4H119.336Z" transform="translate(55.991 127.727)" fill="#999a32"/>
    <path id="Path_191" data-name="Path 191" d="M260.895,19.646H258.91L247.792-174.018l-43.635.413.68-2.061,44.792-.426Zm-135.921-.417h-.7l-.438-71.137,1.976,2.195.373,59.2ZM123.69-75.124l-.1-15.536c.659-.4,1.313-.793,1.949-1.179L125.629-78Q124.684-76.531,123.69-75.124Zm-.331-53.642-.283-46.123,44.147-.419.127,1.187c-.35.26-.733.551-1.138.875l-41.18.39.267,42.347C124.636-129.872,123.987-129.288,123.36-128.767Z" transform="translate(57.514 130.12)" fill="#e1e26b"/>
    <path id="Path_192" data-name="Path 192" d="M128.905,68.1q-.325-1.023-.606-2.125l132.688-.734-2.626-45.728h1.985l2.755,47.85Zm-3.212-49h-1.268l1.207-9.741Zm69.9-192.76q-.922-.568-1.874-1.038l.156-.03-.232-.967,10.646-.1-.68,2.061Z" transform="translate(58.062 130.25)" fill="#d4d34b"/>
    <path id="Path_193" data-name="Path 193" d="M219.524-181.567h35.807l15.64,261.286H233.385Z" transform="translate(96.775 127.716)" fill="#a5a53a"/>
    <path id="Path_194" data-name="Path 194" d="M258.275,30.66H239.885l-9.911-184.4h17.52Z" transform="translate(101.029 139.934)" fill="#cbc84e"/>
    <path id="Path_195" data-name="Path 195" d="M223.217-181.567,236.975,79.719h-5.322l-13.86-261.286Z" transform="translate(96.071 127.716)" fill="#999a32"/>
    <path id="Path_196" data-name="Path 196" d="M161.738-98.848C117.826-84.616,9.282-65.955,9.282-65.955l.619,1.9H178.745Z" transform="translate(11.19 164.035)" fill="#7c3452"/>
    <path id="Path_197" data-name="Path 197" d="M171.8-86.612l6.781,17.181H9.732l-.034-.1Z" transform="translate(11.359 169.408)" fill="#602540"/>
    <path id="Path_198" data-name="Path 198" d="M126.783-92.252c34.5-20.737,37.42-25.65,43.517-38.567s11.2-39.615-1.9-40.455c-6.544-.422-15.71,10.587-24.523,21.6s-17.285,22.036-22.408,21.595c-4.624-.4-7.875,9.2-8.3,18.791C112.658-97.629,116.322-85.967,126.783-92.252Z" transform="translate(53.463 132.231)" fill="#e9ddbe"/>
    <path id="Path_199" data-name="Path 199" d="M118.553-128.9c2.1,4.188,10.255,8.511,14.876,3.822,19.345-19.617,21.828-37.62,31.741-42.956.463-.249,2.194-.145,4.079-.042,2.583.142,5.462.285,5.759-.484,3.917,8.413-.11,25.994-4.71,35.739-6.1,12.918-9.012,17.831-43.517,38.567C109.673-83.969,110.751-121.682,118.553-128.9Z" transform="translate(53.464 133.429)" fill="#d8c4a0"/>
    <path id="Path_200" data-name="Path 200" d="M155.095-155.8c7.576-14.073,17.587-19.6,17.587-19.6s27.213-8.7,36.182,14.706-21.647,95.83-26.9,109.429-11.133,18.026-40.818,15.812L116.092-63.28C144.232-86.368,150.129-146.575,155.095-155.8Z" transform="translate(54.67 129.732)" fill="#e9ddbe"/>
    <path id="Path_201" data-name="Path 201" d="M140.9-106.205c-2.043,15.677,15.3,31.7,21.756,31.183,10.327-.816,24.013-40.13,35.221-73.2a84.634,84.634,0,0,0,4.725-24.143,25.686,25.686,0,0,1,6.259,9.646c8.967,23.4-21.647,95.83-26.9,109.429s-11.133,18.026-40.818,15.812L116.092-65.306C127.595-74.743,135.377-90.381,140.9-106.205Z" transform="translate(54.67 131.758)" fill="#d8c4a0"/>
    <path id="Path_202" data-name="Path 202" d="M163.249-145.31l-47.315-4.745-47.313,7.591,49.446,2.862,45.481-3.914Z" transform="translate(35.346 141.552)" fill="#dac7a2"/>
    <path id="Path_203" data-name="Path 203" d="M97.21-148.918l7.086-1.137,47.315,4.745.3,1.795-7.118.613Z" transform="translate(46.984 141.552)" fill="#d3ba91"/>
    <path id="Path_204" data-name="Path 204" d="M108.347-203.021l12.06,76.221-47.313,7.591-15.461-68Z" transform="translate(30.873 118.297)" fill="#e9ddbe"/>
    <path id="Path_205" data-name="Path 205" d="M108.347-203.021,73.094-119.209l-15.461-68Z" transform="translate(30.873 118.297)" fill="#f4e7cd"/>
    <path id="Path_206" data-name="Path 206" d="M90.856-201.782l3.967-1.239,12.06,76.221-4.764.764Z" transform="translate(44.397 118.297)" fill="#dac7a2"/>
    <path id="Path_207" data-name="Path 207" d="M161.671-89.6c29.664-27.475,31.575-30.371,34.976-44.287S199.739-175,186.752-173.1s-26.9,48.705-37.109,49.97S145.281-74.417,161.671-89.6Z" transform="translate(66.268 131.392)" fill="#e9ddbe"/>
    <path id="Path_208" data-name="Path 208" d="M149.642-127.611c6.474-.8,14.442-19.937,22.719-34.3,4.77-8.279-11.3,33.57-21.5,34.835-8.012.993-6.128,30.442,2.982,35.712C143.7-94.589,141.286-126.575,149.642-127.611Z" transform="translate(66.269 135.87)" fill="#d8c4a0"/>
    <path id="Path_209" data-name="Path 209" d="M161.522-114.305c29.665-27.476,31.544-32.893,34.946-46.808.328-1.34.62-2.808.871-4.357,1.931,8.662,1.19,20.471-.7,28.194-3.4,13.916-5.279,19.332-34.943,46.807-14.036,13-20.351-21.759-15.467-32.809C148.815-113.964,154.08-107.411,161.522-114.305Z" transform="translate(66.274 134.784)" fill="#d8c4a0"/>
    <path id="Path_210" data-name="Path 210" d="M134.539-138.128c-18.089-7.141-55.53-5.938-55.53-5.938l4.7,6.67s43.39,37.234,53.841,33.173C148.425-108.452,141.886-135.228,134.539-138.128Z" transform="translate(39.574 144.148)" fill="#ff9466"/>
    <path id="Path_211" data-name="Path 211" d="M169.048-129.778c-9.819-17.185-31.8-32.6-31.8-32.6l-9.944,6.988s22.892,62.513,33.165,64.82S172.947-122.951,169.048-129.778Z" transform="translate(59.233 136.139)" fill="#ffb881"/>
    <path id="Path_212" data-name="Path 212" d="M160.639-113.874c4.925,1.1,7.989-6.292,9.426-15.04,2.329,10.7-.4,38.27-9.6,36.207-10.273-2.307-33.165-64.82-33.165-64.82S153.818-115.406,160.639-113.874Z" transform="translate(59.233 138.271)" fill="#ff9466"/>
    <path id="Path_213" data-name="Path 213" d="M124.269-235.876s-.167.945-.345,2.5A8.975,8.975,0,0,1,124.269-235.876Z" transform="translate(57.859 103.871)" fill="#cd522f"/>
    <path id="Path_214" data-name="Path 214" d="M124.051-226.355a10.148,10.148,0,0,0,1.04,4.614c1.856,3.8,11.829,5.219,6.958-11.386s9.045-18.738,9.045-18.738-8.813,7.827,1.393,12.1,5.334-9.252,15.771-10.912,13.684,14.47,13.684,14.47,4.175-9.963,18.786-4.27,5.1,17.554,5.1,17.554,13.684,2.37,14.611,20.874S201.4-190.43,201.4-190.43c1.622,11.386-7.885,16.6-7.885,16.6s-2.551,4.745-4.175,16.841l-41.515-38.9C121.582-188.42,123.031-217.5,124.051-226.355Z" transform="translate(57.731 96.851)" fill="#794938"/>
    <path id="Path_215" data-name="Path 215" d="M153.23-204.779c18.475-8.893,35.667-19.85,32.067-38.527-.111-.576-.281-1.124-.422-1.685a26.266,26.266,0,0,1,5.353,1.494c14.611,5.693,5.1,17.552,5.1,17.552s13.684,2.372,14.611,20.875-9.045,11.622-9.045,11.622c1.622,11.386-7.885,16.6-7.885,16.6S190.46-172.1,188.836-160l-41.515-38.9c-13.758,3.914-19.9-2.222-22.484-10.219C130.4-201.043,135.49-196.241,153.23-204.779Z" transform="translate(58.231 99.869)" fill="#603328"/>
    <path id="Path_216" data-name="Path 216" d="M173.161-201.921l9.277,38.663c-9.447,1.383-17.918,6.574-25.512,15.181l-4.407-41.511Z" transform="translate(69.499 118.78)" fill="#ffb881"/>
    <path id="Path_217" data-name="Path 217" d="M106.4-140.379l11.133-5.061c24.12,6.643,63.084,87.291,63.084,87.291s-9.9,14.231-21.029,14.231h-28.14l-14.534-69.264-30,66.734-2.474-.95S100.525-126.463,106.4-140.379Z" transform="translate(41.787 143.578)" fill="#7c3452"/>
    <path id="Path_218" data-name="Path 218" d="M117.984-138.836s15.042,9.616,27.6,17.918c18.182,25.692,34.7,59.869,34.7,59.869s-9.9,14.231-21.029,14.231h-28.14l-14.534-69.264-30,66.734-1.306-.5Z" transform="translate(42.125 146.478)" fill="#602540"/>
    <path id="Path_219" data-name="Path 219" d="M244.086-73.878H122.659c-21.489,0-27.666,46.759-6.177,46.759H237.909C226.939-33.413,228.456-66.46,244.086-73.878Z" transform="translate(49.392 174.999)" fill="#cdb994"/>
    <path id="Path_220" data-name="Path 220" d="M159.534-75.48H36.68c-24.4-.75-27.1,50.623-2.692,51.375H156.842C135.919-24.75,138.61-76.123,159.534-75.48Z" transform="translate(14.321 174.292)" fill="#ffb94a"/>
    <path id="Path_221" data-name="Path 221" d="M273.937-75.482H33.477l-1.009,4.87H272.93a3.327,3.327,0,0,0,3.2-2.433h0A2.031,2.031,0,0,0,273.937-75.482Z" transform="translate(20.628 174.294)" fill="#ffb94a"/>
    <path id="Path_222" data-name="Path 222" d="M272.116-42.721H32.079L31-38.492H271.037a3.354,3.354,0,0,0,3.238-2.115C274.573-41.774,273.606-42.721,272.116-42.721Z" transform="translate(20.031 188.679)" fill="#ffb94a"/>
    <path id="Path_223" data-name="Path 223" d="M242.094-75.483H113.8l-.538,4.868h128.3c.8,0,1.56-1.091,1.708-2.433h0C243.412-74.392,242.889-75.483,242.094-75.483Z" transform="translate(53.517 174.294)" fill="#ef7334"/>
    <path id="Path_224" data-name="Path 224" d="M241.123-42.721H113.051l-.575,4.229H240.547c.8,0,1.569-.947,1.726-2.114S241.918-42.721,241.123-42.721Z" transform="translate(53.198 188.679)" fill="#ef7334"/>
    <path id="Path_225" data-name="Path 225" d="M163.49-72.814H40.636c-24.4-.639-27.1,43.113-2.692,43.752H160.8C131.077-31.028,133.769-74.78,163.49-72.814Z" transform="translate(15.932 175.437)" fill="#ef7334"/>
    <path id="Path_226" data-name="Path 226" d="M156.388-71.71l-108.511.547c-21.838-.6-24.247,40.281-2.409,40.878H155.4C136.674-30.8,137.665-72.222,156.388-71.71Z" transform="translate(19.723 175.949)" fill="#ddcba6"/>
    <path id="Path_227" data-name="Path 227" d="M138-67.873H51.665c-17.149-.453-19.042,30.479-1.891,30.93h86.333C121.4-37.331,123.3-68.262,138-67.873Z" transform="translate(22.806 177.633)" fill="#e9ddbe"/>
    <path id="Path_228" data-name="Path 228" d="M185.77-40.364H12.357c-10.746,0-10.884,58.086-.138,58.086H185.632C171.735,17.723,171.873-40.364,185.77-40.364Z" transform="translate(9.133 189.713)" fill="#5d85bc"/>
    <path id="Path_229" data-name="Path 229" d="M262.6-35.616h-124.4c-22.014,0-22.118,44.42-.1,44.42H262.5C250.421,2.824,247.578-28.569,262.6-35.616Z" transform="translate(56.93 191.798)" fill="#ddcba6"/>
    <path id="Path_230" data-name="Path 230" d="M157.836-2.728c-17.024,0-16.943-26.749.08-26.749H245.1c-3.377,7.957-2.856,18.9.5,26.749Z" transform="translate(66.482 194.493)" fill="#e9ddbe"/>
    <path id="Path_231" data-name="Path 231" d="M262.441-40.364H119.034l-.025,10.25H262.416c1.842,0,3.34-2.3,3.347-5.126S264.282-40.364,262.441-40.364Z" transform="translate(55.858 189.713)" fill="#4a6f9a"/>
    <path id="Path_232" data-name="Path 232" d="M262.36-7.123H118.953l-.024,10.252H262.336c1.84,0,3.34-2.3,3.347-5.126S264.2-7.123,262.36-7.123Z" transform="translate(55.825 204.308)" fill="#4a6f9a"/>
    <path id="Path_233" data-name="Path 233" d="M141.836,17.723h-23.9C109.7,6.76,109.79-29.4,118.074-40.365h23.9C128.078-40.365,127.94,17.723,141.836,17.723Z" transform="translate(52.928 189.713)" fill="#4a6f9a"/>
    <path id="Path_234" data-name="Path 234" d="M145.4,10.735H21.759c-4.9,0-6.633-12.644-6.633-23.473,0-11.029,1.763-23.907,6.73-23.907H145.5v2.12c-3.73,0-6.544,9.345-6.544,21.74,0,12.2,2.772,21.4,6.447,21.4ZM21.856-34.525c-2.68,0-4.86,9.773-4.86,21.787C17,.628,19.418,8.615,21.759,8.615H141.6c-3.1-3.917-4.521-12.69-4.521-21.4,0-8.863,1.448-17.781,4.6-21.74Z" transform="translate(13.569 191.346)" fill="#a2cdd0"/>
    <path id="Path_235" data-name="Path 235" d="M70.079-73.6H93.732s3.305-3.914-.868-6.048S70.079-73.6,70.079-73.6Z" transform="translate(35.939 172.311)" fill="#f4e6c8"/>
    <path id="Path_236" data-name="Path 236" d="M0-88.245,11.116-66.891s4.93,1.144,4.811-3.628S0-88.245,0-88.245Z" transform="translate(7.411 168.691)" fill="#f4e6c8"/>
    <path id="Path_237" data-name="Path 237" d="M154.32-176.393l-1.8-16.958Z" transform="translate(69.499 122.542)" fill="#de6b1d"/>
    <path id="Path_238" data-name="Path 238" d="M154.718-172.905l-.919-8.662Z" transform="translate(70.02 127.716)" fill="#a06a28"/>
    <path id="Path_239" data-name="Path 239" d="M154.579-174.361l-.127-1.187Z" transform="translate(70.286 130.359)" fill="#c37d3c"/>
    <path id="Path_240" data-name="Path 240" d="M173.674-175.024l-.011,0,.167-.026Z" transform="translate(78.106 130.576)" fill="#b97429"/>
    <path id="Path_241" data-name="Path 241" d="M147.014-165.579q-.061-1.274-.073-2.589a18.9,18.9,0,0,1,4.467-2.682A55.591,55.591,0,0,0,147.014-165.579Z" transform="translate(67.228 132.422)" fill="#cc7b6a"/>
    <path id="Path_242" data-name="Path 242" d="M161.376-142.258a10.257,10.257,0,0,1-2.251-.25c-8.381-1.866-11.608-10.338-12.132-21.232a55.592,55.592,0,0,1,4.394-5.271h0a47.611,47.611,0,0,1,6.226-5.571h0l1.56,14.7c7.549-8.555,15.965-13.736,25.344-15.155l.011,0-.023.006a22.5,22.5,0,0,1,4.452,2.891,7.235,7.235,0,0,0-1.93-.253,8.7,8.7,0,0,0-1.259.094c-6.088.889-12.381,11.648-18.4,22.956l-.02.037c-.011.022-.023.042-.034.065a.266.266,0,0,0-.015.027l-.01.019c-.01.02-.021.039-.031.059a.108.108,0,0,1-.01.017l-.066.125,0,.009-.034.062,0,.006c-1.13,2.13-2.251,4.274-3.36,6.371A10.477,10.477,0,0,1,161.376-142.258Z" transform="translate(67.249 130.584)" fill="#cc7b6a"/>
    <path id="Path_243" data-name="Path 243" d="M160.951-144.392c3.637-7.536,6.039-14.126,5.548-14.126-.111,0-.373.34-.8,1.084-1.347,2.336-2.685,4.8-4.009,7.287,6.018-11.308,12.311-22.067,18.4-22.956a8.7,8.7,0,0,1,1.259-.094,7.235,7.235,0,0,1,1.931.253l.013.012c2.787.776,4.773,3.252,6.126,6.676C178.115-163.973,170.231-148.974,160.951-144.392Zm.512-5.329,0-.006S161.465-149.722,161.463-149.721Zm.037-.068,0-.009Zm.07-.134a.105.105,0,0,0,.01-.017Zm.041-.076.01-.019Zm.025-.046c.011-.023.023-.043.034-.065Z" transform="translate(72.931 131.392)" fill="#cc7b6a"/>
    <path id="Path_244" data-name="Path 244" d="M158.927-147.828c1.109-2.1,2.23-4.241,3.36-6.371,0,0,0,0,0-.006l.034-.062,0-.009.066-.125.01-.017c.01-.02.021-.039.031-.059l.01-.019a.264.264,0,0,1,.015-.027l.034-.065.02-.037c1.324-2.49,2.662-4.952,4.009-7.287.428-.744.689-1.084.8-1.084.491,0-1.911,6.589-5.548,14.126A13.234,13.234,0,0,1,158.927-147.828Z" transform="translate(72.108 135.87)" fill="#bc6e58"/>
    <path id="Path_245" data-name="Path 245" d="M156.926-148.077l-1.56-14.7-.127-1.187-.919-8.662-1.8-16.958,20.642-12.333,9.277,38.663-.167.026C172.891-161.813,164.475-156.632,156.926-148.077Z" transform="translate(69.499 118.78)" fill="#de6648"/>
    <path id="Path_246" data-name="Path 246" d="M174.928-221.229c6.938,28.387,2.551,55.5,2.551,55.5S158.69-154.1,147.1-153.864c0,0-10.668-45.306-6.494-63.333S173.536-226.922,174.928-221.229Z" transform="translate(64.253 107.251)" fill="#ffb881"/>
    <path id="Path_247" data-name="Path 247" d="M163.4-184.047c-2.094-25.372-3.653-41.825,3.933-38.059s4.984,32.308,4.984,32.308Z" transform="translate(73.229 109.682)" fill="#603328"/>
    <path id="Path_248" data-name="Path 248" d="M141.281-203.847c-.2-1.757.286-3.261,1.092-3.357s1.621,1.248,1.824,3-.287,3.258-1.092,3.356S141.482-202.091,141.281-203.847Z" transform="translate(64.906 116.458)" fill="#623c37"/>
    <path id="Path_249" data-name="Path 249" d="M150.412-205.145c-.2-1.757.287-3.261,1.092-3.357s1.621,1.248,1.824,3-.287,3.259-1.091,3.356S150.615-203.39,150.412-205.145Z" transform="translate(68.623 115.888)" fill="#623c37"/>
    <path id="Path_250" data-name="Path 250" d="M134.333-201.9l3.512,12.993,27.945-2.954.611-11.671,20.462-3.034,4.887,6.266,4.123-3.734-6.413-4.768Z" transform="translate(62.096 115.757)" fill="#e9ddbe"/>
    <path id="Path_251" data-name="Path 251" d="M144.026-203.73l-8.435,1.157,2.7,9.694,6.174-.889Z" transform="translate(62.608 117.985)" fill="#ffb881"/>
    <path id="Path_252" data-name="Path 252" d="M144.026-203.869l-8.435,1.156,2.7,9.695,6.174-.888Z" transform="translate(62.608 117.924)" fill="#ffb881"/>
    <path id="Path_253" data-name="Path 253" d="M144.141-194.1,142-193.8l-6.238-9.183,2.647-.363Z" transform="translate(62.679 118.156)" fill="#ffc69e"/>
    <path id="Path_254" data-name="Path 254" d="M166.759-204.038c2.423-6.768,11.675-5.286,10.044-.253s-8.511,14.286-10.31,12.8S166.1-202.184,166.759-204.038Z" transform="translate(74.829 115.847)" fill="#ffb881"/>
    <path id="Path_255" data-name="Path 255" d="M143.965-202.741c-.274-.174-4.346,17.279-4.59,18.8s9.634-1.521,9.634-1.521S144.726-202.257,143.965-202.741Z" transform="translate(64.147 118.419)" fill="#ffb881"/>
    <path id="Path_256" data-name="Path 256" d="M167.91-203.38c1.387-3.874,6.682-3.025,5.748-.144s-4.871,8.175-5.9,7.323S167.53-202.32,167.91-203.38Z" transform="translate(75.497 116.992)" fill="#da5b3d"/>
    <path id="Path_257" data-name="Path 257" d="M167.606-201.269c.882-2.462,4.249-1.923,3.656-.091s-3.1,5.2-3.753,4.657S167.365-200.594,167.606-201.269Z" transform="translate(75.47 118.337)" fill="#ffb881"/>
    <path id="Path_258" data-name="Path 258" d="M143.687-203.38l2.869,10.5,13.3-1.779.782-10.674Z" transform="translate(65.904 117.28)" fill="#ffb881"/>
    <path id="Path_259" data-name="Path 259" d="M144.891-203.912l5.678-.656,8.541,9.6-5.595.748Z" transform="translate(66.394 117.617)" fill="#ffc69e"/>
    <path id="Path_260" data-name="Path 260" d="M143.965-202.741a6.1,6.1,0,0,1,.754,1.793c-1.29,5.025-3.513,14.648-3.691,15.762s4.957-.191,7.8-.989c.117.452.182.712.182.712s-9.876,3.042-9.634,1.521S143.691-202.915,143.965-202.741Z" transform="translate(64.147 118.419)" fill="#ff9466"/>
    <path id="Path_261" data-name="Path 261" d="M140.486-200.135c-.891.088-1.769-1.166-2.232-2.986l3.869-.53C142.035-201.7,141.4-200.226,140.486-200.135Z" transform="translate(63.692 118.02)" fill="#623c37"/>
    <path id="Path_262" data-name="Path 262" d="M151.585-200.467c-1.057.079-2.06-1.645-2.406-3.982l4.206-.485C153.416-202.492,152.666-200.549,151.585-200.467Z" transform="translate(68.139 117.457)" fill="#623c37"/>
    <path id="Path_263" data-name="Path 263" d="M164.143-207.531a86.066,86.066,0,0,1-17.861-1.307l-.711-7.664s16.28,2.88,17.7,4.3S164.143-207.531,164.143-207.531Z" transform="translate(66.671 112.378)" fill="#794938"/>
    <path id="Path_264" data-name="Path 264" d="M137.055-205.593a30.578,30.578,0,0,0,10.113-3.049l-.678-7.653s-8.979,4.45-9.6,6S137.055-205.593,137.055-205.593Z" transform="translate(63.041 112.469)" fill="#794938"/>
    <path id="Path_265" data-name="Path 265" d="M145.062-187.346l14.873-4.071s.639,9.315-6.8,10.783S145.062-187.346,145.062-187.346Z" transform="translate(66.463 123.392)" fill="#462921"/>
    <path id="Path_266" data-name="Path 266" d="M146.564-184.829a8.942,8.942,0,0,1-.751-2.736l12.761-3.494a13.064,13.064,0,0,1-.243,3.009Z" transform="translate(66.769 123.549)" fill="#fff5e3"/>
    <path id="Path_267" data-name="Path 267" d="M77.714-166.068c1.862-.315,2.928-3.31,2.381-6.689a9.179,9.179,0,0,0-1.707-4.182c1.31.776,2.455,2.749,2.854,5.208.546,3.377-.521,6.372-2.382,6.687a2.928,2.928,0,0,1-2.652-1.366A2.21,2.21,0,0,0,77.714-166.068Z" transform="translate(38.434 129.748)" fill="#dac7a2"/>
    <path id="Path_268" data-name="Path 268" d="M77.051-179.382c1.8-.305,3.654,1.406,4.864,4.12-1.145-1.744-2.586-2.757-3.995-2.518-2.531.426-3.957,4.645-3.184,9.42a15.134,15.134,0,0,0,1.116,3.753,13.869,13.869,0,0,1-1.985-5.353C73.094-174.736,74.52-178.955,77.051-179.382Z" transform="translate(37.396 128.66)" fill="#d3ba91"/>
    <path id="Path_269" data-name="Path 269" d="M112.579-160.481c-.5,4.218.768,6.884,1.936,7.359s5.126-1.108,5.789-2.454S113.021-164.2,112.579-160.481Z" transform="translate(53.195 136.514)" fill="#ff9466"/>
    <path id="Path_270" data-name="Path 270" d="M113.465-162.507c.348,7.916,1.3,8.627,2.783,9.338s6.087-.266,6.609-1.511-.348-4.359-1.565-4.091a20.807,20.807,0,0,1-2.7.355Z" transform="translate(53.601 136.085)" fill="#ffb881"/>
    <path id="Path_271" data-name="Path 271" d="M116.625-163.483c2.046-3.2,17.9-3.07,26.342,3.2l-8.61,8.8c-2.814-4.668-10.187-4.267-14.791-3.868S114.579-160.283,116.625-163.483Z" transform="translate(54.406 134.75)" fill="#ffb881"/>
    <path id="Path_272" data-name="Path 272" d="M115.814-161.441c.348,7.915,1.3,8.629,2.782,9.34s6.087-.268,6.609-1.512-.348-4.357-1.565-4.091a20.526,20.526,0,0,1-2.7.355Z" transform="translate(54.557 136.553)" fill="#ffb881"/>
    <path id="Path_273" data-name="Path 273" d="M122.916-165.244c-5.324,1.022-9.124,3.072-10.9,5.06a24.045,24.045,0,0,0-4.043,8.214c-.075,1.158,2.976,2.59,3.627,1.069s2.692-6.076,3.246-6.266,5.976-2.543,6.233-2.5S122.916-165.244,122.916-165.244Z" transform="translate(51.367 134.883)" fill="#ffb881"/>
    <path id="Path_274" data-name="Path 274" d="M92.077-133.306c-11.872-5.2-18.262-2.934-21.133-11.34l18,.712Z" transform="translate(36.291 143.927)" fill="#ff9466"/>
    <path id="Path_275" data-name="Path 275" d="M78.713-138.736c-4-2.313-4.957-5.6-4.957-7.738s-3.218-2.668-3.3-.622a11.282,11.282,0,0,0,1.565,5.87C72.886-139.893,78.713-138.736,78.713-138.736Z" transform="translate(36.088 142.287)" fill="#ff9466"/>
    <path id="Path_276" data-name="Path 276" d="M81.927-138.489c-4-2.311-4.957-5.6-4.957-7.738s-3.218-2.668-3.3-.622a11.278,11.278,0,0,0,1.565,5.87C76.1-139.645,81.927-138.489,81.927-138.489Z" transform="translate(37.397 142.395)" fill="#ff9466"/>
    <path id="Path_277" data-name="Path 277" d="M85.326-138.18c-4-2.313-4.957-5.6-4.957-7.738s-3.217-2.668-3.3-.623a11.275,11.275,0,0,0,1.565,5.87C79.5-139.335,85.326-138.18,85.326-138.18Z" transform="translate(38.78 142.531)" fill="#ff9466"/>
  </g>
</svg>
