<svg xmlns="http://www.w3.org/2000/svg" xmlns:xlink="http://www.w3.org/1999/xlink" width="308.517" height="294.367" viewBox="0 0 308.517 294.367">
  <defs>
    <linearGradient id="linear-gradient" x1="0.093" y1="0.585" x2="0.79" y2="0.334" gradientUnits="objectBoundingBox">
      <stop offset="0" stop-color="#d0f2dc"/>
      <stop offset="1" stop-color="#d9c179"/>
    </linearGradient>
    <filter id="Path_392" x="0" y="172.631" width="308.517" height="121.736" filterUnits="userSpaceOnUse">
      <feOffset dx="5" dy="5" input="SourceAlpha"/>
      <feGaussianBlur stdDeviation="3" result="blur"/>
      <feFlood flood-opacity="0.161"/>
      <feComposite operator="in" in2="blur"/>
      <feComposite in="SourceGraphic"/>
    </filter>
  </defs>
  <g id="svgHomepage2" transform="translate(53.899 205.023)">
    <g transform="matrix(1, 0, 0, 1, -53.9, -205.02)" filter="url(#Path_392)">
      <path id="Path_392-2" data-name="Path 392" d="M144.033,89.57C64.986,87.531.607,66.052.239,41.6S63.652-1.033,142.7,1.006,286.125,24.525,286.494,48.981,223.08,91.609,144.033,89.57Z" transform="translate(8.46 175.77) rotate(3)" fill="url(#linear-gradient)"/>
    </g>
    <path id="Path_279" data-name="Path 279" d="M66.828-138.3c-6.571,9.6-9.965,19.935-6.457,34.672,3.482,4.505,16.138,16.1,20.505,15.389s13.29-11.321,13.29-11.321C89.419-103.275,77.838-127.511,66.828-138.3Z" transform="translate(12.094 13.932)" fill="#6a90be"/>
    <path id="Path_280" data-name="Path 280" d="M68.935-115.922a62.584,62.584,0,0,1-5.994-16.913c-3.848,7.846-5.293,16.627-2.571,28.063,3.482,4.505,16.138,16.1,20.505,15.389,1.908-.308,4.687-2.511,7.212-4.891C81.976-96.909,74.5-105.075,68.935-115.922Z" transform="translate(12.095 15.074)" fill="#4a78a2"/>
    <path id="Path_281" data-name="Path 281" d="M32.073-156.8a5.732,5.732,0,0,1-4.873,6.652,6.1,6.1,0,0,1-7.139-4.54,5.733,5.733,0,0,1,4.873-6.652A6.1,6.1,0,0,1,32.073-156.8Zm-18.6,3.269c1.313,6.48,8.013,10.742,14.967,9.519S39.97-151.48,38.658-157.96s-8.012-10.742-14.966-9.518S12.165-160.013,13.476-153.534Z" transform="translate(-1.497 7.796)" fill="#e7dec1"/>
    <path id="Path_282" data-name="Path 282" d="M29.862-162.632l1.679,8.294,7.483-2.962-1.035-5.113Z" transform="translate(3.441 8.852)" fill="#e7dec1"/>
    <path id="Path_283" data-name="Path 283" d="M18.123-151.483l-1.679-8.295-7.483,2.964L10-151.7Z" transform="translate(-2.773 9.448)" fill="#e7dec1"/>
    <path id="Path_284" data-name="Path 284" d="M29.841-150.854l-8.9,1.564,3.18,6.972,5.488-.965Z" transform="translate(0.788 11.311)" fill="#e7dec1"/>
    <path id="Path_285" data-name="Path 285" d="M18.084-163.219l8.9-1.564-3.18-6.972-5.488.966Z" transform="translate(-0.06 6.947)" fill="#e7dec1"/>
    <path id="Path_286" data-name="Path 286" d="M23.9-148.624l-7.482-4.759-3.042,7.026,4.612,2.934Z" transform="translate(-1.461 10.783)" fill="#e7dec1"/>
    <path id="Path_287" data-name="Path 287" d="M24.4-165.2l7.482,4.759,3.042-7.026L30.312-170.4Z" transform="translate(1.817 7.229)" fill="#e7dec1"/>
    <path id="Path_288" data-name="Path 288" d="M15.893-157.537,21-164.509l-7.539-2.835-3.149,4.3Z" transform="translate(-2.371 7.868)" fill="#e7dec1"/>
    <path id="Path_289" data-name="Path 289" d="M32.441-156.317l-5.107,6.972,7.54,2.835,3.147-4.3Z" transform="translate(2.69 10.17)" fill="#e7dec1"/>
    <path id="Path_290" data-name="Path 290" d="M20.43-130.095a4.058,4.058,0,0,1-5.222,1.783,3.563,3.563,0,0,1-1.912-4.865,4.058,4.058,0,0,1,5.22-1.782A3.562,3.562,0,0,1,20.43-130.095ZM9.385-134.867a7.47,7.47,0,0,0,4.01,10.2A8.506,8.506,0,0,0,24.34-128.4a7.467,7.467,0,0,0-4.01-10.2A8.506,8.506,0,0,0,9.385-134.867Z" transform="translate(-2.875 13.72)" fill="#e7dec1"/>
    <path id="Path_291" data-name="Path 291" d="M20.862-132.968l-2.451,4.926,5.1,1.059,1.511-3.038Z" transform="translate(0.037 15.046)" fill="#e7dec1"/>
    <path id="Path_292" data-name="Path 292" d="M10.376-132.027l2.453-4.926-5.106-1.058-1.51,3.037Z" transform="translate(-3.59 13.993)" fill="#e7dec1"/>
    <path id="Path_293" data-name="Path 293" d="M16.287-127.18,11-129.465l-1.135,4.757,3.259,1.408Z" transform="translate(-2.504 15.777)" fill="#e7dec1"/>
    <path id="Path_294" data-name="Path 294" d="M14.908-137.783l5.287,2.285,1.136-4.758-3.26-1.407Z" transform="translate(-1.005 13.23)" fill="#e7dec1"/>
    <path id="Path_295" data-name="Path 295" d="M12.454-128.32l-2-5.1L6.036-130.8l1.236,3.144Z" transform="translate(-3.642 14.952)" fill="#e7dec1"/>
    <path id="Path_296" data-name="Path 296" d="M18.74-136.713l2.006,5.1,4.412-2.615-1.236-3.143Z" transform="translate(0.135 14.126)" fill="#e7dec1"/>
    <path id="Path_297" data-name="Path 297" d="M11.21-135.86l5.473-1.868-2.807-4.112L10.5-140.688Z" transform="translate(-2.314 13.193)" fill="#e7dec1"/>
    <path id="Path_298" data-name="Path 298" d="M19.929-129.136l-5.472,1.869,2.807,4.111,3.373-1.151Z" transform="translate(-1.139 15.846)" fill="#e7dec1"/>
    <path id="Path_299" data-name="Path 299" d="M2-65.718H80.237c13.846,0,17.825,49.9,3.98,49.9H5.975C13.043-22.532,12.066-57.8,2-65.718Z" transform="translate(-4.844 29.089)" fill="#dfc1a8"/>
    <path id="Path_300" data-name="Path 300" d="M67.769-19.031C51.364-33.753,65.356-62.4,65.356-62.4s8.525,11.912,7.882,23.154A53.863,53.863,0,0,1,67.769-19.031Z" transform="translate(12.34 29.783)" fill="#4e333a"/>
    <path id="Path_301" data-name="Path 301" d="M56.023-32.907c0-7.533-33.132-15.29-48.164-18.786,1.636,9.414,1.426,20.275-.528,27.15C6.953-23.206,56.023-25.064,56.023-32.907Z" transform="translate(-3.258 32.017)" fill="#fff0d1"/>
    <path id="Path_302" data-name="Path 302" d="M58.594-67.754H167.667c6.758,0,9.149,54.826,2.39,54.826H60.984C69.724-12.928,67.335-67.754,58.594-67.754Z" transform="translate(11.983 28.664)" fill="#ffb94a"/>
    <path id="Path_303" data-name="Path 303" d="M1.742-67.754H88.6l.784,5.2H2.526a2.88,2.88,0,0,1-2.49-2.6C-.179-66.591.585-67.754,1.742-67.754Z" transform="translate(-5.437 28.664)" fill="#ff9036"/>
    <path id="Path_304" data-name="Path 304" d="M3.187-26.132H89.716l.838,4.512H4.027a2.752,2.752,0,0,1-2.518-2.256A1.765,1.765,0,0,1,3.187-26.132Z" transform="translate(-5.001 37.355)" fill="#ff9036"/>
    <path id="Path_305" data-name="Path 305" d="M167.667-67.754H58.594c2.445,0,4.393,4.29,5.739,10.47,15.176,5.261,36.692,9.654,60.8,11.894a309.847,309.847,0,0,0,48.57.949C172.864-56.653,170.708-67.754,167.667-67.754Z" transform="translate(11.983 28.664)" fill="#ffcb64"/>
    <path id="Path_306" data-name="Path 306" d="M60.984-12.928H73.106c4.042-11.919,2.692-42.907-2.391-54.826H58.594C67.335-67.754,69.724-12.928,60.984-12.928Z" transform="translate(11.983 28.664)" fill="#ff9036"/>
    <path id="Path_307" data-name="Path 307" d="M76.641-20.307h9.341c3.114-9.183,2.073-33.059-1.841-42.242H74.8C81.534-62.549,83.376-20.307,76.641-20.307Z" transform="translate(16.801 29.75)" fill="#ffe7bd"/>
    <path id="Path_308" data-name="Path 308" d="M133.84-20.307h9.339c3.115-9.183,2.073-33.059-1.841-42.242H132C138.732-62.549,140.574-20.307,133.84-20.307Z" transform="translate(33.807 29.75)" fill="#ffe7bd"/>
    <path id="Path_309" data-name="Path 309" d="M171.189-25.471l-106.8-.2-.765,3.531,106.8.2Z" transform="translate(13.478 37.452)" fill="#ff9036"/>
    <path id="Path_310" data-name="Path 310" d="M69.094-22.692H182.971c7.056,0,3.92,27.43-3.136,27.43H65.958C75.083,4.738,78.219-22.692,69.094-22.692Z" transform="translate(14.173 38.073)" fill="#d54b60"/>
    <path id="Path_311" data-name="Path 311" d="M65.958,4.738H80.4c5.864-5.09,7.77-22.339,3.028-27.43H69.094C78.219-22.692,75.083,4.738,65.958,4.738Z" transform="translate(14.173 38.073)" fill="#b4314a"/>
    <path id="Path_312" data-name="Path 312" d="M9.341-20.171l77.326.33c13.684.059,11.311,21.025-2.373,20.967L6.968.8C14.8-2,18.293-16.8,9.341-20.171Z" transform="translate(-3.365 38.599)" fill="#e9ddbe"/>
    <path id="Path_313" data-name="Path 313" d="M71.926-.917C69.3-8.21,72.512-19,72.512-19s6.433,3.9,4.608,11.139C76.06-3.656,71.926-.917,71.926-.917Z" transform="translate(15.64 38.844)" fill="#4e333a"/>
    <path id="Path_314" data-name="Path 314" d="M66.948-11.809H13.538a15.272,15.272,0,0,1-3.174,7.793H64.678C78.362-4.016,80.631-11.809,66.948-11.809Z" transform="translate(-2.356 40.346)" fill="#fff0d1"/>
    <path id="Path_315" data-name="Path 315" d="M6.481-22.692h94.174l-.554,4.841H5.928a2.026,2.026,0,0,1-1.914-2.42A2.667,2.667,0,0,1,6.481-22.692Z" transform="translate(-4.249 38.073)" fill="#b4314a"/>
    <path id="Path_316" data-name="Path 316" d="M4.49-4.005H98.664L98.111.836H3.938a2.025,2.025,0,0,1-1.914-2.42A2.665,2.665,0,0,1,4.49-4.005Z" transform="translate(-4.84 41.975)" fill="#b4314a"/>
    <path id="Path_317" data-name="Path 317" d="M177.138-22.692H85.576c3.16,6.769,26.365,13.524,54.9,15.626,15.656,1.152,29.914.682,40.27-1.006C181.724-15.218,180.823-22.692,177.138-22.692Z" transform="translate(20.005 38.073)" fill="#ec5672"/>
    <path id="Path_318" data-name="Path 318" d="M164.636-2.493H94.452C97-5.217,98.361-11.379,97.737-15.57c10.039,3.246,24.247,5.849,40.1,7.017,5.831.429,11.468.632,16.782.632,5.283,0,10.246-.2,14.762-.584C168.538-5.27,166.843-2.493,164.636-2.493Z" transform="translate(22.644 39.56)" fill="#ff8f9d" fill-rule="evenodd"/>
    <path id="Path_319" data-name="Path 319" d="M154.086-7.426c-5.314,0-10.951-.2-16.782-.632-15.853-1.168-30.061-3.771-40.1-7.017a7.341,7.341,0,0,0-.961-2.864h70.211c3.081,0,3.569,5.412,2.394,9.929C164.332-7.628,159.368-7.426,154.086-7.426Z" transform="translate(23.176 39.066)" fill="#ffa1ba"/>
    <path id="Path_320" data-name="Path 320" d="M77.414-136.671c-1.78-2.818-9.677-5.386-16.376-7s-22.017,5.745-22.017,5.745c-23.263,32.6-13.985,69.755-.209,82.061,3.334,2.98,7.325,4.788,11.209,2.731L89.052-73.823C58.845-96.628,87.334-120.962,77.414-136.671Z" transform="translate(1.944 12.762)" fill="#6a90be"/>
    <path id="Path_321" data-name="Path 321" d="M46.371-130.529c3-9.592-6.868-8.424-6.868-8.424C12.146-101.722,24.528-67.919,38.3-55.61a10.875,10.875,0,0,0,12.2,1.449L63.12-60.849C48.251-75.03,29.214-92.861,46.371-130.529Z" transform="translate(1.462 13.787)" fill="#4a78a2"/>
    <path id="Path_322" data-name="Path 322" d="M93.835-22.6l9.98-4.554s-7.825-1.582-10.177-.568S93.835-22.6,93.835-22.6Z" transform="translate(22.105 36.953)" fill="#ff9036"/>
    <path id="Path_323" data-name="Path 323" d="M110.531-26.977l9.98-4.554s-7.824-1.582-10.177-.568S110.531-26.977,110.531-26.977Z" transform="translate(27.069 36.038)" fill="#ff9036"/>
    <path id="Path_324" data-name="Path 324" d="M67.452-64.743h9.169l23.643,49.608h1.448L95.118-58.149l27.023,35.969h1.929L104.286-71.488,66.81-68.34Z" transform="translate(14.426 27.884)" fill="#ff9036"/>
    <path id="Path_325" data-name="Path 325" d="M117.877-81.219C115.088-84.507,78.4-87.56,78.4-87.56S52.847-90.613,50.616-64.077l55.418-.235,43.19,44.148,1.808.47S120.665-77.933,117.877-81.219Z" transform="translate(9.611 24.506)" fill="#6f4b4e"/>
    <path id="Path_326" data-name="Path 326" d="M129.456-47.274c-9.8-16.315-13.283-28.032-7.781-26.171a7.176,7.176,0,0,1,1.039.462,94.622,94.622,0,0,0-4.836-8.236C115.088-84.507,78.4-87.561,78.4-87.561S52.847-90.613,50.616-64.077l55.418-.235,43.19,44.148.576.15C143.754-26.13,136.023-36.344,129.456-47.274Z" transform="translate(9.611 24.505)" fill="#603d41"/>
    <path id="Path_327" data-name="Path 327" d="M103.031-76.885C100.5-80.188,69.69-88.221,69.69-88.221s-25.057-1.47-31.879,20.038A3.905,3.905,0,0,0,41.8-63.276l43.783-.213L123.089-16l1.772.471S105.563-73.583,103.031-76.885Z" transform="translate(5.755 24.385)" fill="#6f4b4e"/>
    <path id="Path_328" data-name="Path 328" d="M124.318-17.322c-4.4-6.067-26.479-50.817-41.278-52.69-11.53-1.46-19.925-5.247-18.577-8.244S76.772-82.91,88.187-80.8c5.118.944,12.86,2.962,15.281,4.72a4.761,4.761,0,0,0-.437-.8C100.5-80.188,69.69-88.221,69.69-88.221s-25.057-1.47-31.879,20.038A3.905,3.905,0,0,0,41.8-63.276l43.783-.213L123.089-16l1.772.471S124.666-16.174,124.318-17.322Z" transform="translate(5.755 24.385)" fill="#603d41"/>
    <path id="Path_329" data-name="Path 329" d="M87.39-110.419l5.79,5.6L80.313-91.335l-9.329-3.2s.643-6.993,4.932-11.09S87.39-110.419,87.39-110.419Z" transform="translate(15.667 19.755)" fill="#e7dec1"/>
    <path id="Path_330" data-name="Path 330" d="M86.192-110.419s-6.865.678-11.181,4.542c1.938,2.194,5.471,4.23,9.815,5.394.842.226,1.676.4,2.5.546l4.659-4.886Z" transform="translate(16.864 19.755)" fill="#f6edd5"/>
    <path id="Path_331" data-name="Path 331" d="M79.622-91.881c11.193,4.667,30.341,7.388,30.341,7.388l5.611-7.341S93.827-105.776,86.95-107.42c-3.988-.953-7.722,3.367-10.155,7.167A5.678,5.678,0,0,0,79.622-91.881Z" transform="translate(17.126 20.353)" fill="#ffb881"/>
    <path id="Path_332" data-name="Path 332" d="M85.436-107.422l.08-.105c-4.059.389-7.689,5.635-9.713,9.209a3.905,3.905,0,0,0,1.838,5.458c10.668,5.261,32.5,8.363,32.5,8.363l4.115-5.383c-5.2-.857-16.6-2.942-25.074-6C84.219-97.667,82.347-103.388,85.436-107.422Z" transform="translate(16.951 20.358)" fill="#ff9466"/>
    <path id="Path_333" data-name="Path 333" d="M69.815-85.537l34.932,8.728L145.5-79.4l.759-3.421-36.577-6.015-40.122.473Z" transform="translate(15.244 24.261)" fill="#e7dec1"/>
    <path id="Path_334" data-name="Path 334" d="M69.815-85.618l35.262,9.28L145.5-79.485l.759-3.421-39.9,3.57-36.8-9.112Z" transform="translate(15.244 24.342)" fill="#d5bf99"/>
    <path id="Path_335" data-name="Path 335" d="M159.871-120.278c-1.662-.453-41.763-2.983-43.391-2.53s-18.55,52.53-18.55,52.53l39.079-1.957S161.534-119.824,159.871-120.278Z" transform="translate(23.678 17.156)" fill="#e7dec1"/>
    <path id="Path_336" data-name="Path 336" d="M155.62-120.278c-1.662-.453-41.763-2.983-43.391-2.53,38.926,12.089,20.528,50.573,20.528,50.573S157.283-119.824,155.62-120.278Z" transform="translate(27.929 17.156)" fill="#efe7cd"/>
    <path id="Path_337" data-name="Path 337" d="M122.748-154.6l5.886,19.589,2.942-24.682Z" transform="translate(31.056 9.465)" fill="#b5c646"/>
    <path id="Path_338" data-name="Path 338" d="M163.608-205.023H105.76c-5.763,0-10.433,4.353-10.433,9.723v43.579c0,5.368,4.67,9.721,10.433,9.721h57.848c5.761,0,10.433-4.353,10.433-9.721V-195.3C174.041-200.67,169.369-205.023,163.608-205.023Z" transform="translate(22.904 0)" fill="#b5c646"/>
    <path id="Path_339" data-name="Path 339" d="M131.666-170.59h-10.41l2.845,9.469h4.721Z" transform="translate(30.613 7.19)" fill="#fff"/>
    <path id="Path_340" data-name="Path 340" d="M126.754-163.551h-2.417l.333,1.754h1.749Z" transform="translate(31.529 8.66)" fill="#fff"/>
    <path id="Path_341" data-name="Path 341" d="M125.306-165.028c-5.018-.925-7.541-6.262-6.368-11.919s5.834-9.494,10.851-8.568,7.539,6.262,6.367,11.92S130.323-164.1,125.306-165.028Zm2.24-22.075c-5.8,0-9.943,5.3-9.943,11.832s4.147,11.832,9.943,11.832,9.943-5.3,9.943-11.832S133.34-187.1,127.547-187.1Z" transform="translate(29.527 3.742)" fill="#fff"/>
    <path id="Path_342" data-name="Path 342" d="M128.277-166l-1.065-.052,1.142-9.291a8.188,8.188,0,0,1-3.85.01l1.491,8.87-1.138.212-2.294-11.479,1.147.44c.034.013,3.086,1.163,5.187-.014l1.149-.644Z" transform="translate(31.001 5.654)" fill="#fff"/>
    <path id="Path_343" data-name="Path 343" d="M113.58-166.176c1.314-.98,4.189-3.691,3.6-4.172s-4.186,1.636-5.5,2.616-2.017,2.071-1.428,2.552S112.266-165.2,113.58-166.176Z" transform="translate(27.279 7.226)" fill="#fff"/>
    <path id="Path_344" data-name="Path 344" d="M142.36-169.768c-1.493-.766-5.532-2.356-6.119-1.872s2.73,2.671,4.221,3.438,3.064,1.09,3.652.606S143.853-169,142.36-169.768Z" transform="translate(35.047 6.952)" fill="#fff"/>
    <path id="Path_345" data-name="Path 345" d="M147.989-179.418c-1.414-.16-4.973-.238-5.1.267s3.283,1.208,4.7,1.366,2.637-.023,2.761-.529S149.4-179.26,147.989-179.418Z" transform="translate(37.044 5.321)" fill="#fff"/>
    <path id="Path_346" data-name="Path 346" d="M121.492-194.369c.2,1.164,1.059,4.007,1.679,3.967s.522-2.93.327-4.094-.736-2.084-1.357-2.044S121.3-195.533,121.492-194.369Z" transform="translate(30.663 1.771)" fill="#fff"/>
    <path id="Path_347" data-name="Path 347" d="M106.242-176.156c1.59-.164,5.388-.979,5.19-1.646s-4.236-.67-5.827-.505-2.759.707-2.562,1.373S104.65-175.991,106.242-176.156Z" transform="translate(25.192 5.56)" fill="#fff"/>
    <path id="Path_348" data-name="Path 348" d="M139.491-194.1c-1.251.82-3.967,3.133-3.379,3.613s4.024-1.241,5.274-2.06,1.9-1.781,1.314-2.26S140.741-194.915,139.491-194.1Z" transform="translate(35.005 2.089)" fill="#fff"/>
    <path id="Path_349" data-name="Path 349" d="M105.83-190.055c1.562,1.123,5.63,3.564,6.141,3.079.57-.538-3.512-4.15-5.362-5.5-1.873-1.364-3.461-1.862-3.539-.938C103-192.584,104.252-191.189,105.83-190.055Z" transform="translate(25.206 2.326)" fill="#fff"/>
    <path id="Path_350" data-name="Path 350" d="M30.179-116.6C33.73-94,59.473-79.837,59.473-79.837L76.75-96.288c-20.835-9.218-20.942-37.846-32.522-42.091C36-141.4,29.04-123.851,30.179-116.6Z" transform="translate(3.499 13.844)" fill="#6a90be"/>
    <path id="Path_351" data-name="Path 351" d="M68.335-96.38l2.675-2.548c-12.114-5.36-17.22-17.279-21.649-27.155C52.912-115.661,56.961-103.186,68.335-96.38Z" transform="translate(9.238 16.484)" fill="#4a78a2"/>
    <path id="Path_352" data-name="Path 352" d="M40.389-122.853c-.979-3.734-.462-10.619,1.537-15.958-7.475.578-14.348,16.511-13.317,23.081,3.549,22.6,31.325,35.911,31.325,35.911L68.21-87.7C58.924-94.109,44.748-106.248,40.389-122.853Z" transform="translate(3.038 13.826)" fill="#4a78a2"/>
    <path id="Path_353" data-name="Path 353" d="M42.058-141.288l19.19,13.782,6.694-12.261a68.44,68.44,0,0,0-12.027-3.907C52.483-144.5,46.794-142.974,42.058-141.288Z" transform="translate(7.067 12.762)" fill="#e7dec1"/>
    <path id="Path_354" data-name="Path 354" d="M90.71-173.418s13.444-16.181,6.489-22.07-17.687.328-17.687.328S81.235-200.5,77-200.6c-9.427-.219-24.606,10.9-24.606,10.9-9.974-1.281-8.252,16.086-8.252,16.086s-5.844,13.562,8.2,34.19l25.03-9.847C102.974-164.44,90.71-173.418,90.71-173.418Z" transform="translate(7.328 0.923)" fill="#d8522e"/>
    <path id="Path_355" data-name="Path 355" d="M87.486-165.558c-4.089,1.037-4.079-4.543-4.079-4.543s-8.375,8.822-16.847,5.033S66-187.945,66-187.945a8.389,8.389,0,0,1-5.1-8.092,91.682,91.682,0,0,0-8.5,5.383c-9.974-1.281-8.252,16.086-8.252,16.086s-5.844,13.562,8.2,34.19l25.03-9.847c13.434-7.959,16.437-14.21,16.262-18.356A19.926,19.926,0,0,1,87.486-165.558Z" transform="translate(7.328 1.876)" fill="#c13826"/>
    <path id="Path_356" data-name="Path 356" d="M44.976-138.641,52-160.4l15.948,9.73-3.228,13.621-5.7,7.607Z" transform="translate(7.935 9.318)" fill="#ffb881"/>
    <path id="Path_357" data-name="Path 357" d="M67.889-105.133l-6.327-6.2s-10.616,3-13.725,11.59-1.929,11.99-1.929,11.99l9.757,2.4Z" transform="translate(8.146 19.565)" fill="#e7dec1"/>
    <path id="Path_358" data-name="Path 358" d="M60.492-111.328s-6.9,1.955-11.206,7.218a26.193,26.193,0,0,0,6.819,3.7,27.64,27.64,0,0,0,6.808,1.594l3.906-6.321Z" transform="translate(9.216 19.565)" fill="#f6edd5"/>
    <path id="Path_359" data-name="Path 359" d="M56.835-85.174c15.857,5.1,38.278.175,38.278.175l1.047-4.647s-22.577-12.277-30.186-16.935c-4.546-2.783-12.686,3.405-15.226,9.892C49.127-92.551,52.366-86.609,56.835-85.174Z" transform="translate(9.525 20.413)" fill="#ffb881"/>
    <path id="Path_360" data-name="Path 360" d="M127.864-29.32l8.823-6.293s-8-.118-10.1,1.307S127.864-29.32,127.864-29.32Z" transform="translate(31.995 35.375)" fill="#ffe7bd"/>
    <path id="Path_361" data-name="Path 361" d="M104.332-25.57l9.98-4.555s-7.825-1.582-10.177-.568S104.332-25.57,104.332-25.57Z" transform="translate(25.226 36.331)" fill="#ffe7bd"/>
    <path id="Path_362" data-name="Path 362" d="M65.759-92.515c-4.469-1.436-8.7-5.054-7.077-9.192a18.2,18.2,0,0,1,3.5-5.455c-4.358.789-9.508,5.53-11.436,10.451-1.622,4.138,1.618,10.08,6.087,11.515,15.857,5.1,36.428.625,36.428.625S76.863-88.948,65.759-92.515Z" transform="translate(9.525 20.435)" fill="#ff9466"/>
    <path id="Path_363" data-name="Path 363" d="M66.362-136.031a13.661,13.661,0,0,0-.992-1.881c-.012-.017-.022-.035-.034-.053q.481.486.963,1C66.326-136.647,66.348-136.338,66.362-136.031Z" transform="translate(13.988 14.003)" fill="#5c506a"/>
    <path id="Path_364" data-name="Path 364" d="M35.68-138.805l.008-.011A.057.057,0,0,0,35.68-138.805Zm.048-.066.066-.089Zm.066-.089h0Z" transform="translate(5.171 13.795)" fill="#de8e8e"/>
    <path id="Path_365" data-name="Path 365" d="M62.284-121.2c-2.91,0-6.152-1.093-9.805-3.659-2.836-6.2-5.575-11.288-9.949-12.892a5.466,5.466,0,0,0-1.9-.346,5.349,5.349,0,0,0-.933.082c.022-.063.045-.124.069-.186-.178.013-.355.036-.532.066a10.457,10.457,0,0,0-2.5-.293,9.06,9.06,0,0,0-.964.045h0c.088-.042,3.7-1.771,8.159-3.359l19.19,13.782,6.694-12.26A10.806,10.806,0,0,1,74.1-137.2l.027.027c.012.018.022.036.034.053a13.66,13.66,0,0,1,.992,1.881c.174,3.639-.608,6.76-2.4,8.689C69.772-123.335,66.353-121.2,62.284-121.2Z" transform="translate(5.197 13.214)" fill="#5c506a"/>
    <path id="Path_366" data-name="Path 366" d="M31.012-129.456a97.74,97.74,0,0,1,6.056-9.342.056.056,0,0,1,.008-.011c.013-.019.027-.037.04-.056l.066-.089a9.057,9.057,0,0,1,.964-.045,10.458,10.458,0,0,1,2.5.293c-3.387.59-6.614,4.237-8.992,8.613C31.445-129.888,31.229-129.677,31.012-129.456Z" transform="translate(3.783 13.787)" fill="#40425b"/>
    <path id="Path_367" data-name="Path 367" d="M51.853-125.487a43.58,43.58,0,0,1-6.035-5.249c-1.76-1.8-4.29-3.653-7.5-3.653-.145,0-.293,0-.442.012a31.124,31.124,0,0,1,1.2-4.266,5.349,5.349,0,0,1,.933-.082,5.465,5.465,0,0,1,1.9.346C46.279-136.775,49.017-131.691,51.853-125.487Z" transform="translate(5.822 13.844)" fill="#5c506a"/>
    <path id="Path_368" data-name="Path 368" d="M60.241-140.665l.854-3.6Z" transform="translate(12.473 12.687)" fill="#de8e8e"/>
    <path id="Path_369" data-name="Path 369" d="M64.775-140.971h0Zm-19.786-1.785.138-.04Z" transform="translate(7.939 12.994)" fill="#5c506a"/>
    <path id="Path_370" data-name="Path 370" d="M31.51-130.132c2.378-4.376,5.6-8.023,8.992-8.613.176-.03.354-.053.532-.066-.023.062-.047.123-.069.186a31.125,31.125,0,0,0-1.2,4.266C37.365-134.233,34.6-133.072,31.51-130.132Z" transform="translate(3.931 13.826)" fill="#40425b"/>
    <path id="Path_371" data-name="Path 371" d="M61.248-127.738,42.058-141.52c.584-.208,1.183-.413,1.79-.612l.04-.013q.891-.292,1.8-.56l.082-.024.092-.028L46-142.8l-.154.479,14.05,9.2,5.7-7.607.058-.245h0c.3.115.584.23.868.348l.2.081c.426.178.837.359,1.23.543Z" transform="translate(7.067 12.994)" fill="#cb7d6b"/>
    <path id="Path_372" data-name="Path 372" d="M59.026-129.717l-14.05-9.2.154-.479h0l6.355-19.686a27.639,27.639,0,0,1,2.78,1.073A30.665,30.665,0,0,1,67-146.96l-1.371,5.787-.854,3.6h0l-.058.245Z" transform="translate(7.935 9.593)" fill="#de6648"/>
    <path id="Path_373" data-name="Path 373" d="M70.109-133.349c-11.036-2.988-20.63-9.348-21.168-11.429-.531-2.055,2.2-29.148,5.961-33.079,1.771-1.848,19.692-5.328,24.3-2.7C85.314-177.077,76.754-141.082,70.109-133.349Z" transform="translate(9.094 4.911)" fill="#ffb881"/>
    <path id="Path_374" data-name="Path 374" d="M53.7-152.044c5.393-18.909,3.53-26.5,3.53-26.5s-7-5.354-8.154-2.844-.44,28.284-.44,28.284Z" transform="translate(8.958 4.795)" fill="#c13826"/>
    <path id="Path_375" data-name="Path 375" d="M52.988-166.776c-1.048-2.871-7.469-1.185-6.682,2.815.8,4.083,3.405,9.465,5.577,8.974C54.133-155.494,54.059-163.84,52.988-166.776Z" transform="translate(8.31 7.687)" fill="#ffb881"/>
    <path id="Path_376" data-name="Path 376" d="M51.332-165.043c-.6-1.642-4.272-.677-3.822,1.61.459,2.335,1.947,5.412,3.19,5.131C51.987-158.592,51.944-163.364,51.332-165.043Z" transform="translate(8.677 8.177)" fill="#da5b3d"/>
    <path id="Path_377" data-name="Path 377" d="M51-162.573c-.424-1.164-3.03-.48-2.711,1.142.326,1.657,1.382,3.84,2.264,3.641C51.463-158,51.433-161.382,51-162.573Z" transform="translate(8.911 8.742)" fill="#ffb881"/>
    <path id="Path_378" data-name="Path 378" d="M119.82-122.828a21.2,21.2,0,0,0-3,.021c-1.628.453-20.051,53.155-20.051,53.155l3.368-.214C104.279-81.613,115.932-114.442,119.82-122.828Z" transform="translate(23.334 17.156)" fill="#d5bf99"/>
    <path id="Path_379" data-name="Path 379" d="M95.092-88.587c-.362,3.284-1.908,5.084-2.966,5.24s-4.063-1.739-4.368-2.877S95.409-91.485,95.092-88.587Z" transform="translate(20.651 24.102)" fill="#ff9466"/>
    <path id="Path_380" data-name="Path 380" d="M95.054-90.49c-1.746,5.941-2.674,6.312-4.035,6.593S86-85.168,85.8-86.2s1.091-3.243,2.056-2.827a19.025,19.025,0,0,0,2.177.743Z" transform="translate(20.065 23.916)" fill="#ffb881"/>
    <path id="Path_381" data-name="Path 381" d="M95.872-91.877c-1.113-2.786-14.331-5.467-22.511-2.2l.257.378A14.144,14.144,0,0,0,84.79-87.635a30.449,30.449,0,0,1,7.135,1.412C95.682-85.111,96.985-89.089,95.872-91.877Z" transform="translate(16.374 22.854)" fill="#ffb881"/>
    <path id="Path_382" data-name="Path 382" d="M92.717-90.007c-1.747,5.94-2.674,6.312-4.036,6.592s-5.017-1.27-5.22-2.306,1.091-3.243,2.055-2.827a18.74,18.74,0,0,0,2.178.743Z" transform="translate(19.37 24.017)" fill="#ffb881"/>
    <path id="Path_383" data-name="Path 383" d="M88.858-94.008c4.243,1.708,7.027,3.93,8.135,5.748a17.5,17.5,0,0,1,1.851,6.939c-.152.89-2.954,1.441-3.216.173s-1.121-5.079-1.546-5.32-4.5-2.976-4.727-2.993S88.858-94.008,88.858-94.008Z" transform="translate(20.981 23.181)" fill="#ffb881"/>
    <path id="Path_384" data-name="Path 384" d="M69.169-163.911c.147-1.552-.4-2.957-1.213-3.14s-1.6.921-1.754,2.477.387,2.993,1.21,3.176S69.028-162.342,69.169-163.911Z" transform="translate(14.237 7.925)" fill="#4e3131"/>
    <path id="Path_385" data-name="Path 385" d="M65.132-167.857c1.164-.583,3.591,13.744,2.813,15.961-.4,1.144-6.957-2.1-6.957-2.1S64.922-167.755,65.132-167.857Z" transform="translate(12.695 7.757)" fill="#ffb881"/>
    <path id="Path_386" data-name="Path 386" d="M65.437-167.59c.838,2.4,2.784,13.382,2.113,15.2-.311.849-4.572-.983-6.127-1.738-.1.363-.158.572-.158.572s7.151,4.012,7.522,2.819C69.472-152.956,66.493-167.192,65.437-167.59Z" transform="translate(12.777 7.816)" fill="#e97b58"/>
    <path id="Path_387" data-name="Path 387" d="M61.676-165.857c.178-1.563-.348-2.969-1.175-3.157s-1.659.911-1.849,2.471.33,3.01,1.173,3.2S61.493-164.289,61.676-165.857Z" transform="translate(11.989 7.514)" fill="#4e3131"/>
    <path id="Path_388" data-name="Path 388" d="M65.075-171.052c-1.094,1.661-7.74.749-8.5-.289s-1.243-2.083.027-2.542,7.029-1.425,8.069-.6A2.888,2.888,0,0,1,65.075-171.052Z" transform="translate(11.158 6.31)" fill="#cd3829"/>
    <path id="Path_389" data-name="Path 389" d="M66.6-170.38c.026,1.729,6.263,3.9,7.159,3.156s1.613-1.558,1-2.248-5.477-4.348-6.49-3.86A3.86,3.86,0,0,0,66.6-170.38Z" transform="translate(14.364 6.608)" fill="#cd3829"/>
    <path id="Path_390" data-name="Path 390" d="M67.747-151.64l-10.3-2.016s0,5.273,1.742,6.017,5.9.972,6.782-.051A15.316,15.316,0,0,0,67.747-151.64Z" transform="translate(11.643 10.726)" fill="#532929"/>
    <path id="Path_391" data-name="Path 391" d="M66.777-149.865c.532-1.545.409-1.724.409-1.724l-9.391-1.84s-.259-.236.039,1.695Z" transform="translate(11.715 10.772)" fill="#fff6e8"/>
  </g>
</svg>
