<?xml version="1.0" standalone="no"?>
<!DOCTYPE svg PUBLIC "-//W3C//DTD SVG 20010904//EN"
 "http://www.w3.org/TR/2001/REC-SVG-20010904/DTD/svg10.dtd">
<svg version="1.0" xmlns="http://www.w3.org/2000/svg"
 width="752.000000pt" height="752.000000pt" viewBox="0 0 752.000000 752.000000"
 preserveAspectRatio="xMidYMid meet">
<metadata>
Created by potrace 1.11, written by Peter Selinger 2001-2013
</metadata>
<g transform="translate(0.000000,752.000000) scale(0.100000,-0.100000)"
fill="#000000" stroke="none">
<path d="M2219 7516 c-2 -2 -26 -7 -54 -10 -83 -11 -107 -16 -190 -37 -209
-53 -385 -138 -568 -273 -82 -60 -226 -198 -272 -261 -17 -22 -35 -45 -41 -52
-6 -6 -26 -35 -45 -65 -18 -29 -36 -55 -40 -58 -27 -20 -161 -345 -172 -415
-1 -11 -6 -26 -11 -33 -4 -7 -6 -16 -3 -19 3 -3 2 -15 -3 -27 -22 -59 -25
-231 -25 -1456 0 -1156 4 -1393 20 -1486 2 -12 7 -48 10 -80 4 -33 9 -68 11
-79 2 -11 6 -31 9 -45 7 -41 35 -173 41 -200 3 -14 7 -29 8 -35 3 -16 35 -124
53 -185 9 -30 18 -59 19 -65 3 -17 93 -251 116 -302 12 -26 23 -50 23 -53 3
-14 81 -169 97 -192 11 -16 17 -28 15 -28 -6 0 86 -156 108 -185 8 -10 15 -22
15 -27 0 -4 29 -49 65 -100 175 -253 333 -435 541 -626 119 -110 138 -126 176
-154 20 -15 42 -33 50 -40 7 -7 29 -24 48 -38 19 -13 40 -28 45 -33 35 -29
165 -117 173 -117 6 0 12 -4 14 -8 2 -5 53 -38 113 -74 301 -177 628 -314 954
-398 108 -29 127 -33 186 -45 34 -7 65 -13 95 -19 14 -3 41 -8 60 -10 19 -3
44 -7 55 -9 31 -7 145 -20 295 -33 47 -4 506 -8 1021 -8 695 -1 940 -5 951
-13 16 -14 178 -75 178 -67 0 2 8 0 19 -5 10 -6 31 -13 47 -16 16 -2 40 -7 54
-11 34 -8 71 -12 168 -20 l83 -6 -4 3053 c-3 1680 -7 3075 -10 3101 -13 108
-55 273 -97 378 -22 56 -109 231 -119 240 -4 3 -23 31 -44 62 -146 225 -407
440 -667 551 -36 16 -73 32 -82 38 -10 5 -26 9 -36 9 -10 0 -22 4 -27 9 -10 9
-111 35 -200 52 -27 5 -66 12 -85 16 -36 7 -3133 16 -3141 9z"/>
</g>
</svg>
